<svg width="161" height="89" viewBox="0 0 161 89" fill="none" xmlns="http://www.w3.org/2000/svg">
<path d="M28.1005 21.4C28.1005 21.56 28.0405 21.7 27.9205 21.82C27.8005 21.94 27.6605 22 27.5005 22H26.7805C26.6205 22 26.4805 21.94 26.3605 21.82C26.2405 21.7 26.1805 21.56 26.1805 21.4V1.6C26.1805 1.44 26.2405 1.3 26.3605 1.18C26.4805 1.06 26.6205 0.999999 26.7805 0.999999H36.7705C36.9305 0.999999 37.0705 1.06 37.1905 1.18C37.3105 1.3 37.3705 1.44 37.3705 1.6V2.32C37.3705 2.48 37.3105 2.62 37.1905 2.74C37.0705 2.86 36.9305 2.92 36.7705 2.92H28.4005C28.2005 2.92 28.1005 3.02 28.1005 3.22V10C28.1005 10.2 28.2005 10.3 28.4005 10.3H36.4405C36.6005 10.3 36.7405 10.36 36.8605 10.48C36.9805 10.6 37.0405 10.74 37.0405 10.9V11.62C37.0405 11.78 36.9805 11.92 36.8605 12.04C36.7405 12.16 36.6005 12.22 36.4405 12.22H28.4005C28.2005 12.22 28.1005 12.32 28.1005 12.52V21.4ZM49.7246 2.86C49.7246 3.18 49.5646 3.34 49.2446 3.34H47.6846C47.3646 3.34 47.2046 3.18 47.2046 2.86V1.27C47.2046 1.15 47.2446 1.04 47.3246 0.939999C47.4246 0.839999 47.5446 0.789999 47.6846 0.789999H49.2446C49.3846 0.789999 49.4946 0.839999 49.5746 0.939999C49.6746 1.04 49.7246 1.15 49.7246 1.27V2.86ZM43.6946 8.8C43.5346 8.8 43.3946 8.74 43.2746 8.62C43.1546 8.5 43.0946 8.36 43.0946 8.2V7.6C43.0946 7.44 43.1546 7.3 43.2746 7.18C43.3946 7.06 43.5346 7 43.6946 7H48.9446C49.1046 7 49.2446 7.06 49.3646 7.18C49.4846 7.3 49.5446 7.44 49.5446 7.6V19.9C49.5446 20.1 49.6446 20.2 49.8446 20.2H53.7746C53.9346 20.2 54.0746 20.26 54.1946 20.38C54.3146 20.5 54.3746 20.64 54.3746 20.8V21.4C54.3746 21.56 54.3146 21.7 54.1946 21.82C54.0746 21.94 53.9346 22 53.7746 22H43.3946C43.2346 22 43.0946 21.94 42.9746 21.82C42.8546 21.7 42.7946 21.56 42.7946 21.4V20.8C42.7946 20.64 42.8546 20.5 42.9746 20.38C43.0946 20.26 43.2346 20.2 43.3946 20.2H47.4446C47.6446 20.2 47.7446 20.1 47.7446 19.9V9.1C47.7446 8.9 47.6446 8.8 47.4446 8.8H43.6946ZM61.1488 7.69C61.3688 7.69 61.5688 7.64 61.7488 7.54C61.9488 7.44 62.1688 7.33 62.4088 7.21C62.6688 7.07 62.9788 6.95 63.3388 6.85C63.6988 6.75 64.1588 6.7 64.7188 6.7C65.4988 6.7 66.2188 6.81 66.8788 7.03C67.5388 7.25 68.1088 7.58 68.5888 8.02C69.0688 8.46 69.4388 9.01 69.6988 9.67C69.9588 10.31 70.0888 11.06 70.0888 11.92V21.4C70.0888 21.56 70.0288 21.7 69.9088 21.82C69.7888 21.94 69.6488 22 69.4888 22H68.9188C68.7588 22 68.6188 21.94 68.4988 21.82C68.3788 21.7 68.3188 21.56 68.3188 21.4V11.92C68.3188 10.66 67.9488 9.77 67.2088 9.25C66.4888 8.73 65.5888 8.47 64.5088 8.47C63.9688 8.47 63.4688 8.56 63.0088 8.74C62.5488 8.9 62.1388 9.13 61.7788 9.43C61.4388 9.73 61.1688 10.08 60.9688 10.48C60.7888 10.88 60.6988 11.31 60.6988 11.77V21.4C60.6988 21.56 60.6388 21.7 60.5188 21.82C60.3988 21.94 60.2588 22 60.0988 22H59.5288C59.3688 22 59.2288 21.94 59.1088 21.82C58.9888 21.7 58.9288 21.56 58.9288 21.4V7.6C58.9288 7.44 58.9888 7.3 59.1088 7.18C59.2288 7.06 59.3688 7 59.5288 7H60.0088C60.1488 7 60.2888 7.07 60.4288 7.21C60.5288 7.31 60.6288 7.42 60.7288 7.54C60.8288 7.64 60.9688 7.69 61.1488 7.69ZM74.7329 2.92C74.5729 2.92 74.4329 2.86 74.3129 2.74C74.1929 2.62 74.1329 2.48 74.1329 2.32V1.6C74.1329 1.44 74.1929 1.3 74.3129 1.18C74.4329 1.06 74.5729 0.999999 74.7329 0.999999H87.3329C87.4929 0.999999 87.6329 1.06 87.7529 1.18C87.8729 1.3 87.9329 1.44 87.9329 1.6V2.32C87.9329 2.48 87.8729 2.62 87.7529 2.74C87.6329 2.86 87.4929 2.92 87.3329 2.92H82.3229C82.1229 2.92 82.0229 3.02 82.0229 3.22V21.4C82.0229 21.56 81.9629 21.7 81.8429 21.82C81.7229 21.94 81.5829 22 81.4229 22H80.6729C80.5129 22 80.3729 21.94 80.2529 21.82C80.1329 21.7 80.0729 21.56 80.0729 21.4V3.22C80.0729 3.02 79.9729 2.92 79.7729 2.92H74.7329ZM93.2071 15.52C93.2071 16.24 93.2871 16.91 93.4471 17.53C93.6271 18.13 93.8971 18.66 94.2571 19.12C94.6171 19.56 95.0671 19.91 95.6071 20.17C96.1671 20.41 96.8371 20.53 97.6171 20.53C98.1971 20.53 98.7071 20.45 99.1471 20.29C99.6071 20.13 99.9971 19.92 100.317 19.66C100.657 19.38 100.927 19.08 101.127 18.76C101.347 18.42 101.517 18.07 101.637 17.71C101.697 17.51 101.787 17.38 101.907 17.32C102.047 17.24 102.187 17.2 102.327 17.2H102.927C103.087 17.2 103.217 17.25 103.317 17.35C103.437 17.43 103.477 17.58 103.437 17.8C103.337 18.46 103.127 19.07 102.807 19.63C102.487 20.17 102.067 20.64 101.547 21.04C101.047 21.44 100.457 21.75 99.7771 21.97C99.1171 22.19 98.3971 22.3 97.6171 22.3C96.7171 22.3 95.8971 22.15 95.1571 21.85C94.4371 21.55 93.8071 21.15 93.2671 20.65C92.7471 20.13 92.3271 19.52 92.0071 18.82C91.7071 18.12 91.5271 17.38 91.4671 16.6C91.4271 16 91.4071 15.3 91.4071 14.5C91.4071 13.7 91.4271 13 91.4671 12.4C91.5271 11.62 91.7071 10.88 92.0071 10.18C92.3271 9.48 92.7471 8.88 93.2671 8.38C93.8071 7.86 94.4371 7.45 95.1571 7.15C95.8971 6.85 96.7171 6.7 97.6171 6.7C98.4571 6.7 99.2371 6.86 99.9571 7.18C100.697 7.5 101.337 7.93 101.877 8.47C102.417 9.01 102.837 9.65 103.137 10.39C103.457 11.11 103.617 11.88 103.617 12.7V14.62C103.617 14.78 103.557 14.92 103.437 15.04C103.317 15.16 103.177 15.22 103.017 15.22H93.5071C93.3071 15.22 93.2071 15.32 93.2071 15.52ZM93.2671 13.24C93.2671 13.44 93.3671 13.54 93.5671 13.54H101.667C101.867 13.54 101.967 13.44 101.967 13.24C101.967 12.48 101.857 11.81 101.637 11.23C101.417 10.63 101.107 10.13 100.707 9.73C100.327 9.31 99.8771 9 99.3571 8.8C98.8371 8.58 98.2671 8.47 97.6471 8.47C96.3071 8.47 95.2371 8.88 94.4371 9.7C93.6571 10.52 93.2671 11.7 93.2671 13.24ZM114.231 20.53C114.891 20.53 115.461 20.43 115.941 20.23C116.421 20.01 116.821 19.74 117.141 19.42C117.461 19.08 117.691 18.71 117.831 18.31C117.991 17.91 118.071 17.51 118.071 17.11C118.071 16.91 118.131 16.78 118.251 16.72C118.371 16.64 118.501 16.6 118.641 16.6H119.271C119.431 16.6 119.571 16.66 119.691 16.78C119.811 16.9 119.871 17.04 119.871 17.2C119.871 17.88 119.731 18.53 119.451 19.15C119.191 19.75 118.811 20.29 118.311 20.77C117.811 21.23 117.211 21.6 116.511 21.88C115.831 22.16 115.071 22.3 114.231 22.3C113.331 22.3 112.521 22.15 111.801 21.85C111.081 21.55 110.461 21.15 109.941 20.65C109.421 20.13 109.011 19.52 108.711 18.82C108.411 18.12 108.231 17.38 108.171 16.6C108.131 16 108.111 15.3 108.111 14.5C108.111 13.7 108.131 13 108.171 12.4C108.231 11.62 108.411 10.88 108.711 10.18C109.011 9.48 109.421 8.88 109.941 8.38C110.461 7.86 111.081 7.45 111.801 7.15C112.521 6.85 113.331 6.7 114.231 6.7C115.071 6.7 115.831 6.84 116.511 7.12C117.211 7.4 117.811 7.78 118.311 8.26C118.811 8.72 119.191 9.26 119.451 9.88C119.731 10.48 119.871 11.12 119.871 11.8C119.871 11.96 119.821 12.1 119.721 12.22C119.641 12.34 119.521 12.4 119.361 12.4H118.671C118.531 12.4 118.401 12.36 118.281 12.28C118.161 12.2 118.101 12.08 118.101 11.92C118.101 11.48 118.011 11.05 117.831 10.63C117.671 10.21 117.421 9.84 117.081 9.52C116.761 9.2 116.361 8.95 115.881 8.77C115.401 8.57 114.851 8.47 114.231 8.47C113.471 8.47 112.831 8.6 112.311 8.86C111.791 9.12 111.361 9.45 111.021 9.85C110.701 10.23 110.461 10.65 110.301 11.11C110.141 11.57 110.041 12 110.001 12.4C109.941 13.02 109.911 13.72 109.911 14.5C109.911 15.28 109.941 15.98 110.001 16.6C110.041 17 110.141 17.43 110.301 17.89C110.461 18.35 110.701 18.78 111.021 19.18C111.361 19.56 111.791 19.88 112.311 20.14C112.831 20.4 113.471 20.53 114.231 20.53ZM125.655 22C125.495 22 125.355 21.94 125.235 21.82C125.115 21.7 125.055 21.56 125.055 21.4V1.39C125.055 1.23 125.115 1.09 125.235 0.969999C125.355 0.849999 125.495 0.789999 125.655 0.789999H126.225C126.385 0.789999 126.525 0.849999 126.645 0.969999C126.765 1.09 126.825 1.23 126.825 1.39V6.82C126.825 6.96 126.875 7.1 126.975 7.24C127.095 7.38 127.265 7.45 127.485 7.45C127.625 7.45 127.785 7.41 127.965 7.33C128.165 7.25 128.395 7.17 128.655 7.09C128.915 6.99 129.205 6.9 129.525 6.82C129.865 6.74 130.255 6.7 130.695 6.7C131.475 6.7 132.185 6.84 132.825 7.12C133.485 7.4 134.035 7.78 134.475 8.26C134.935 8.74 135.285 9.3 135.525 9.94C135.785 10.56 135.915 11.22 135.915 11.92V21.4C135.915 21.56 135.855 21.7 135.735 21.82C135.615 21.94 135.475 22 135.315 22H134.745C134.585 22 134.445 21.94 134.325 21.82C134.205 21.7 134.145 21.56 134.145 21.4V11.92C134.145 10.9 133.805 10.07 133.125 9.43C132.445 8.79 131.565 8.47 130.485 8.47C129.945 8.47 129.445 8.56 128.985 8.74C128.545 8.9 128.165 9.13 127.845 9.43C127.525 9.73 127.275 10.08 127.095 10.48C126.915 10.88 126.825 11.31 126.825 11.77V21.4C126.825 21.56 126.765 21.7 126.645 21.82C126.525 21.94 126.385 22 126.225 22H125.655ZM2.5493 43C2.5493 43.2 2.6493 43.3 2.8493 43.3H10.7093C10.9093 43.3 11.0093 43.2 11.0093 43V34.6C11.0093 34.44 11.0693 34.3 11.1893 34.18C11.3093 34.06 11.4493 34 11.6093 34H12.3293C12.4893 34 12.6293 34.06 12.7493 34.18C12.8693 34.3 12.9293 34.44 12.9293 34.6V54.4C12.9293 54.56 12.8693 54.7 12.7493 54.82C12.6293 54.94 12.4893 55 12.3293 55H11.6093C11.4493 55 11.3093 54.94 11.1893 54.82C11.0693 54.7 11.0093 54.56 11.0093 54.4V45.52C11.0093 45.32 10.9093 45.22 10.7093 45.22H2.8493C2.6493 45.22 2.5493 45.32 2.5493 45.52V54.4C2.5493 54.56 2.4893 54.7 2.3693 54.82C2.2493 54.94 2.1093 55 1.9493 55H1.2293C1.0693 55 0.929297 54.94 0.809297 54.82C0.689297 54.7 0.629297 54.56 0.629297 54.4V34.6C0.629297 34.44 0.689297 34.3 0.809297 34.18C0.929297 34.06 1.0693 34 1.2293 34H1.9493C2.1093 34 2.2493 34.06 2.3693 34.18C2.4893 34.3 2.5493 34.44 2.5493 34.6V43ZM18.9834 48.52C18.9834 49.24 19.0634 49.91 19.2234 50.53C19.4034 51.13 19.6734 51.66 20.0334 52.12C20.3934 52.56 20.8434 52.91 21.3834 53.17C21.9434 53.41 22.6134 53.53 23.3934 53.53C23.9734 53.53 24.4834 53.45 24.9234 53.29C25.3834 53.13 25.7734 52.92 26.0934 52.66C26.4334 52.38 26.7034 52.08 26.9034 51.76C27.1234 51.42 27.2934 51.07 27.4134 50.71C27.4734 50.51 27.5634 50.38 27.6834 50.32C27.8234 50.24 27.9634 50.2 28.1034 50.2H28.7034C28.8634 50.2 28.9934 50.25 29.0934 50.35C29.2134 50.43 29.2534 50.58 29.2134 50.8C29.1134 51.46 28.9034 52.07 28.5834 52.63C28.2634 53.17 27.8434 53.64 27.3234 54.04C26.8234 54.44 26.2334 54.75 25.5534 54.97C24.8934 55.19 24.1734 55.3 23.3934 55.3C22.4934 55.3 21.6734 55.15 20.9334 54.85C20.2134 54.55 19.5834 54.15 19.0434 53.65C18.5234 53.13 18.1034 52.52 17.7834 51.82C17.4834 51.12 17.3034 50.38 17.2434 49.6C17.2034 49 17.1834 48.3 17.1834 47.5C17.1834 46.7 17.2034 46 17.2434 45.4C17.3034 44.62 17.4834 43.88 17.7834 43.18C18.1034 42.48 18.5234 41.88 19.0434 41.38C19.5834 40.86 20.2134 40.45 20.9334 40.15C21.6734 39.85 22.4934 39.7 23.3934 39.7C24.2334 39.7 25.0134 39.86 25.7334 40.18C26.4734 40.5 27.1134 40.93 27.6534 41.47C28.1934 42.01 28.6134 42.65 28.9134 43.39C29.2334 44.11 29.3934 44.88 29.3934 45.7V47.62C29.3934 47.78 29.3334 47.92 29.2134 48.04C29.0934 48.16 28.9534 48.22 28.7934 48.22H19.2834C19.0834 48.22 18.9834 48.32 18.9834 48.52ZM19.0434 46.24C19.0434 46.44 19.1434 46.54 19.3434 46.54H27.4434C27.6434 46.54 27.7434 46.44 27.7434 46.24C27.7434 45.48 27.6334 44.81 27.4134 44.23C27.1934 43.63 26.8834 43.13 26.4834 42.73C26.1034 42.31 25.6534 42 25.1334 41.8C24.6134 41.58 24.0434 41.47 23.4234 41.47C22.0834 41.47 21.0134 41.88 20.2134 42.7C19.4334 43.52 19.0434 44.7 19.0434 46.24ZM39.0476 47.77C38.2076 47.77 37.4676 48 36.8276 48.46C36.1876 48.92 35.8676 49.59 35.8676 50.47C35.8676 51.01 35.9576 51.48 36.1376 51.88C36.3376 52.26 36.5976 52.58 36.9176 52.84C37.2576 53.1 37.6376 53.3 38.0576 53.44C38.4776 53.56 38.9276 53.62 39.4076 53.62C40.7876 53.62 41.8476 53.3 42.5876 52.66C43.3476 52.02 43.7276 51.09 43.7276 49.87V48.07C43.7276 47.87 43.6276 47.77 43.4276 47.77H39.0476ZM40.0076 41.35C39.5476 41.35 39.1076 41.42 38.6876 41.56C38.2676 41.68 37.8976 41.86 37.5776 42.1C37.2576 42.32 36.9976 42.59 36.7976 42.91C36.5976 43.23 36.4976 43.59 36.4976 43.99C36.4976 44.25 36.4176 44.4 36.2576 44.44C36.0976 44.48 35.9476 44.5 35.8076 44.5H35.3876C34.9876 44.5 34.7876 44.3 34.7876 43.9C34.7876 43.2 34.9376 42.59 35.2376 42.07C35.5376 41.55 35.9376 41.12 36.4376 40.78C36.9376 40.42 37.4976 40.15 38.1176 39.97C38.7376 39.79 39.3676 39.7 40.0076 39.7C40.7476 39.7 41.4376 39.8 42.0776 40C42.7376 40.2 43.3076 40.51 43.7876 40.93C44.2876 41.33 44.6776 41.84 44.9576 42.46C45.2576 43.08 45.4076 43.82 45.4076 44.68V54.4C45.4076 54.56 45.3476 54.7 45.2276 54.82C45.1076 54.94 44.9676 55 44.8076 55H44.5376C44.3376 55 44.1976 54.93 44.1176 54.79C44.0376 54.67 43.9676 54.54 43.9076 54.4C43.8476 54.24 43.7176 54.16 43.5176 54.16C43.3776 54.16 43.1976 54.22 42.9776 54.34C42.7576 54.46 42.4876 54.59 42.1676 54.73C41.8476 54.87 41.4676 55 41.0276 55.12C40.6076 55.24 40.1176 55.3 39.5576 55.3C38.6376 55.3 37.8276 55.17 37.1276 54.91C36.4476 54.65 35.8776 54.3 35.4176 53.86C34.9776 53.42 34.6476 52.91 34.4276 52.33C34.2076 51.75 34.0976 51.14 34.0976 50.5C34.0976 49.88 34.2076 49.3 34.4276 48.76C34.6476 48.22 34.9676 47.76 35.3876 47.38C35.8076 46.98 36.3276 46.67 36.9476 46.45C37.5676 46.23 38.2676 46.12 39.0476 46.12H43.3376C43.5376 46.12 43.6376 46.02 43.6376 45.82V44.65C43.6376 43.67 43.2976 42.88 42.6176 42.28C41.9376 41.66 41.0676 41.35 40.0076 41.35ZM51.4617 35.59C51.3017 35.59 51.1617 35.53 51.0417 35.41C50.9217 35.29 50.8617 35.15 50.8617 34.99V34.39C50.8617 34.23 50.9217 34.09 51.0417 33.97C51.1617 33.85 51.3017 33.79 51.4617 33.79H56.5917C56.7517 33.79 56.8917 33.85 57.0117 33.97C57.1317 34.09 57.1917 34.23 57.1917 34.39V52.9C57.1917 53.1 57.2917 53.2 57.4917 53.2H61.3017C61.4617 53.2 61.6017 53.26 61.7217 53.38C61.8417 53.5 61.9017 53.64 61.9017 53.8V54.4C61.9017 54.56 61.8417 54.7 61.7217 54.82C61.6017 54.94 61.4617 55 61.3017 55H50.8617C50.7017 55 50.5617 54.94 50.4417 54.82C50.3217 54.7 50.2617 54.56 50.2617 54.4V53.8C50.2617 53.64 50.3217 53.5 50.4417 53.38C50.5617 53.26 50.7017 53.2 50.8617 53.2H55.0317C55.1317 53.2 55.2117 53.18 55.2717 53.14C55.3517 53.08 55.3917 53 55.3917 52.9V35.89C55.3917 35.69 55.2917 35.59 55.0917 35.59H51.4617ZM71.6759 50.2C71.6759 51.26 71.9559 52.08 72.5159 52.66C73.0959 53.22 73.7659 53.5 74.5259 53.5C75.3859 53.5 76.0559 53.21 76.5359 52.63C77.0359 52.05 77.2859 51.34 77.2859 50.5C77.2859 50.34 77.3459 50.2 77.4659 50.08C77.5859 49.96 77.7259 49.9 77.8859 49.9H78.5159C78.6759 49.9 78.8159 49.96 78.9359 50.08C79.0559 50.2 79.1159 50.34 79.1159 50.5C79.1159 51.16 78.9959 51.78 78.7559 52.36C78.5359 52.94 78.2159 53.45 77.7959 53.89C77.3959 54.33 76.9159 54.68 76.3559 54.94C75.7959 55.18 75.1859 55.3 74.5259 55.3C73.8659 55.3 73.2459 55.18 72.6659 54.94C72.1059 54.68 71.6159 54.33 71.1959 53.89C70.7959 53.45 70.4759 52.94 70.2359 52.36C69.9959 51.78 69.8759 51.16 69.8759 50.5V42.22C69.8759 42.02 69.7759 41.92 69.5759 41.92H66.2459C66.0859 41.92 65.9459 41.86 65.8259 41.74C65.7059 41.62 65.6459 41.48 65.6459 41.32V40.75C65.6459 40.59 65.7059 40.45 65.8259 40.33C65.9459 40.21 66.0859 40.15 66.2459 40.15H69.5759C69.7759 40.15 69.8759 40.05 69.8759 39.85V35.2C69.8759 35.04 69.9359 34.9 70.0559 34.78C70.1759 34.66 70.3159 34.6 70.4759 34.6H71.0759C71.2359 34.6 71.3759 34.66 71.4959 34.78C71.6159 34.9 71.6759 35.04 71.6759 35.2V39.85C71.6759 40.05 71.7759 40.15 71.9759 40.15H76.9559C77.1159 40.15 77.2559 40.21 77.3759 40.33C77.4959 40.45 77.5559 40.59 77.5559 40.75V41.32C77.5559 41.48 77.4959 41.62 77.3759 41.74C77.2559 41.86 77.1159 41.92 76.9559 41.92H71.9759C71.7759 41.92 71.6759 42.02 71.6759 42.22V50.2ZM84.42 55C84.26 55 84.12 54.94 84 54.82C83.88 54.7 83.82 54.56 83.82 54.4V34.39C83.82 34.23 83.88 34.09 84 33.97C84.12 33.85 84.26 33.79 84.42 33.79H84.99C85.15 33.79 85.29 33.85 85.41 33.97C85.53 34.09 85.59 34.23 85.59 34.39V39.82C85.59 39.96 85.64 40.1 85.74 40.24C85.86 40.38 86.03 40.45 86.25 40.45C86.39 40.45 86.55 40.41 86.73 40.33C86.93 40.25 87.16 40.17 87.42 40.09C87.68 39.99 87.97 39.9 88.29 39.82C88.63 39.74 89.02 39.7 89.46 39.7C90.24 39.7 90.95 39.84 91.59 40.12C92.25 40.4 92.8 40.78 93.24 41.26C93.7 41.74 94.05 42.3 94.29 42.94C94.55 43.56 94.68 44.22 94.68 44.92V54.4C94.68 54.56 94.62 54.7 94.5 54.82C94.38 54.94 94.24 55 94.08 55H93.51C93.35 55 93.21 54.94 93.09 54.82C92.97 54.7 92.91 54.56 92.91 54.4V44.92C92.91 43.9 92.57 43.07 91.89 42.43C91.21 41.79 90.33 41.47 89.25 41.47C88.71 41.47 88.21 41.56 87.75 41.74C87.31 41.9 86.93 42.13 86.61 42.43C86.29 42.73 86.04 43.08 85.86 43.48C85.68 43.88 85.59 44.31 85.59 44.77V54.4C85.59 54.56 85.53 54.7 85.41 54.82C85.29 54.94 85.15 55 84.99 55H84.42ZM99.4741 35.92C99.3141 35.92 99.1741 35.86 99.0541 35.74C98.9341 35.62 98.8741 35.48 98.8741 35.32V34.6C98.8741 34.44 98.9341 34.3 99.0541 34.18C99.1741 34.06 99.3141 34 99.4741 34H112.074C112.234 34 112.374 34.06 112.494 34.18C112.614 34.3 112.674 34.44 112.674 34.6V35.32C112.674 35.48 112.614 35.62 112.494 35.74C112.374 35.86 112.234 35.92 112.074 35.92H107.064C106.864 35.92 106.764 36.02 106.764 36.22V54.4C106.764 54.56 106.704 54.7 106.584 54.82C106.464 54.94 106.324 55 106.164 55H105.414C105.254 55 105.114 54.94 104.994 54.82C104.874 54.7 104.814 54.56 104.814 54.4V36.22C104.814 36.02 104.714 35.92 104.514 35.92H99.4741ZM117.948 48.52C117.948 49.24 118.028 49.91 118.188 50.53C118.368 51.13 118.638 51.66 118.998 52.12C119.358 52.56 119.808 52.91 120.348 53.17C120.908 53.41 121.578 53.53 122.358 53.53C122.938 53.53 123.448 53.45 123.888 53.29C124.348 53.13 124.738 52.92 125.058 52.66C125.398 52.38 125.668 52.08 125.868 51.76C126.088 51.42 126.258 51.07 126.378 50.71C126.438 50.51 126.528 50.38 126.648 50.32C126.788 50.24 126.928 50.2 127.068 50.2H127.668C127.828 50.2 127.958 50.25 128.058 50.35C128.178 50.43 128.218 50.58 128.178 50.8C128.078 51.46 127.868 52.07 127.548 52.63C127.228 53.17 126.808 53.64 126.288 54.04C125.788 54.44 125.198 54.75 124.518 54.97C123.858 55.19 123.138 55.3 122.358 55.3C121.458 55.3 120.638 55.15 119.898 54.85C119.178 54.55 118.548 54.15 118.008 53.65C117.488 53.13 117.068 52.52 116.748 51.82C116.448 51.12 116.268 50.38 116.208 49.6C116.168 49 116.148 48.3 116.148 47.5C116.148 46.7 116.168 46 116.208 45.4C116.268 44.62 116.448 43.88 116.748 43.18C117.068 42.48 117.488 41.88 118.008 41.38C118.548 40.86 119.178 40.45 119.898 40.15C120.638 39.85 121.458 39.7 122.358 39.7C123.198 39.7 123.978 39.86 124.698 40.18C125.438 40.5 126.078 40.93 126.618 41.47C127.158 42.01 127.578 42.65 127.878 43.39C128.198 44.11 128.358 44.88 128.358 45.7V47.62C128.358 47.78 128.298 47.92 128.178 48.04C128.058 48.16 127.918 48.22 127.758 48.22H118.248C118.048 48.22 117.948 48.32 117.948 48.52ZM118.008 46.24C118.008 46.44 118.108 46.54 118.308 46.54H126.408C126.608 46.54 126.708 46.44 126.708 46.24C126.708 45.48 126.598 44.81 126.378 44.23C126.158 43.63 125.848 43.13 125.448 42.73C125.068 42.31 124.618 42 124.098 41.8C123.578 41.58 123.008 41.47 122.388 41.47C121.048 41.47 119.978 41.88 119.178 42.7C118.398 43.52 118.008 44.7 118.008 46.24ZM138.972 53.53C139.632 53.53 140.202 53.43 140.682 53.23C141.162 53.01 141.562 52.74 141.882 52.42C142.202 52.08 142.432 51.71 142.572 51.31C142.732 50.91 142.812 50.51 142.812 50.11C142.812 49.91 142.872 49.78 142.992 49.72C143.112 49.64 143.242 49.6 143.382 49.6H144.012C144.172 49.6 144.312 49.66 144.432 49.78C144.552 49.9 144.612 50.04 144.612 50.2C144.612 50.88 144.472 51.53 144.192 52.15C143.932 52.75 143.552 53.29 143.052 53.77C142.552 54.23 141.952 54.6 141.252 54.88C140.572 55.16 139.812 55.3 138.972 55.3C138.072 55.3 137.262 55.15 136.542 54.85C135.822 54.55 135.202 54.15 134.682 53.65C134.162 53.13 133.752 52.52 133.452 51.82C133.152 51.12 132.972 50.38 132.912 49.6C132.872 49 132.852 48.3 132.852 47.5C132.852 46.7 132.872 46 132.912 45.4C132.972 44.62 133.152 43.88 133.452 43.18C133.752 42.48 134.162 41.88 134.682 41.38C135.202 40.86 135.822 40.45 136.542 40.15C137.262 39.85 138.072 39.7 138.972 39.7C139.812 39.7 140.572 39.84 141.252 40.12C141.952 40.4 142.552 40.78 143.052 41.26C143.552 41.72 143.932 42.26 144.192 42.88C144.472 43.48 144.612 44.12 144.612 44.8C144.612 44.96 144.562 45.1 144.462 45.22C144.382 45.34 144.262 45.4 144.102 45.4H143.412C143.272 45.4 143.142 45.36 143.022 45.28C142.902 45.2 142.842 45.08 142.842 44.92C142.842 44.48 142.752 44.05 142.572 43.63C142.412 43.21 142.162 42.84 141.822 42.52C141.502 42.2 141.102 41.95 140.622 41.77C140.142 41.57 139.592 41.47 138.972 41.47C138.212 41.47 137.572 41.6 137.052 41.86C136.532 42.12 136.102 42.45 135.762 42.85C135.442 43.23 135.202 43.65 135.042 44.11C134.882 44.57 134.782 45 134.742 45.4C134.682 46.02 134.652 46.72 134.652 47.5C134.652 48.28 134.682 48.98 134.742 49.6C134.782 50 134.882 50.43 135.042 50.89C135.202 51.35 135.442 51.78 135.762 52.18C136.102 52.56 136.532 52.88 137.052 53.14C137.572 53.4 138.212 53.53 138.972 53.53ZM150.397 55C150.237 55 150.097 54.94 149.977 54.82C149.857 54.7 149.797 54.56 149.797 54.4V34.39C149.797 34.23 149.857 34.09 149.977 33.97C150.097 33.85 150.237 33.79 150.397 33.79H150.967C151.127 33.79 151.267 33.85 151.387 33.97C151.507 34.09 151.567 34.23 151.567 34.39V39.82C151.567 39.96 151.617 40.1 151.717 40.24C151.837 40.38 152.007 40.45 152.227 40.45C152.367 40.45 152.527 40.41 152.707 40.33C152.907 40.25 153.137 40.17 153.397 40.09C153.657 39.99 153.947 39.9 154.267 39.82C154.607 39.74 154.997 39.7 155.437 39.7C156.217 39.7 156.927 39.84 157.567 40.12C158.227 40.4 158.777 40.78 159.217 41.26C159.677 41.74 160.027 42.3 160.267 42.94C160.527 43.56 160.657 44.22 160.657 44.92V54.4C160.657 54.56 160.597 54.7 160.477 54.82C160.357 54.94 160.217 55 160.057 55H159.487C159.327 55 159.187 54.94 159.067 54.82C158.947 54.7 158.887 54.56 158.887 54.4V44.92C158.887 43.9 158.547 43.07 157.867 42.43C157.187 41.79 156.307 41.47 155.227 41.47C154.687 41.47 154.187 41.56 153.727 41.74C153.287 41.9 152.907 42.13 152.587 42.43C152.267 42.73 152.017 43.08 151.837 43.48C151.657 43.88 151.567 44.31 151.567 44.77V54.4C151.567 54.56 151.507 54.7 151.387 54.82C151.267 54.94 151.127 55 150.967 55H150.397ZM28.1005 76.03C28.1005 76.23 28.2005 76.33 28.4005 76.33H36.4405C36.6005 76.33 36.7405 76.39 36.8605 76.51C36.9805 76.63 37.0405 76.77 37.0405 76.93V77.62C37.0405 77.78 36.9805 77.92 36.8605 78.04C36.7405 78.16 36.6005 78.22 36.4405 78.22H28.4005C28.2005 78.22 28.1005 78.32 28.1005 78.52V85.78C28.1005 85.98 28.2005 86.08 28.4005 86.08H36.8305C36.9905 86.08 37.1305 86.14 37.2505 86.26C37.3705 86.38 37.4305 86.52 37.4305 86.68V87.4C37.4305 87.56 37.3705 87.7 37.2505 87.82C37.1305 87.94 36.9905 88 36.8305 88H26.7805C26.6205 88 26.4805 87.94 26.3605 87.82C26.2405 87.7 26.1805 87.56 26.1805 87.4V67.6C26.1805 67.44 26.2405 67.3 26.3605 67.18C26.4805 67.06 26.6205 67 26.7805 67H36.7705C36.9305 67 37.0705 67.06 37.1905 67.18C37.3105 67.3 37.3705 67.44 37.3705 67.6V68.32C37.3705 68.48 37.3105 68.62 37.1905 68.74C37.0705 68.86 36.9305 68.92 36.7705 68.92H28.4005C28.2005 68.92 28.1005 69.02 28.1005 69.22V76.03ZM44.6546 73.69C44.8746 73.69 45.0746 73.64 45.2546 73.54C45.4546 73.44 45.6746 73.33 45.9146 73.21C46.1746 73.07 46.4846 72.95 46.8446 72.85C47.2046 72.75 47.6646 72.7 48.2246 72.7C49.0046 72.7 49.7246 72.81 50.3846 73.03C51.0446 73.25 51.6146 73.58 52.0946 74.02C52.5746 74.46 52.9446 75.01 53.2046 75.67C53.4646 76.31 53.5946 77.06 53.5946 77.92V87.4C53.5946 87.56 53.5346 87.7 53.4146 87.82C53.2946 87.94 53.1546 88 52.9946 88H52.4246C52.2646 88 52.1246 87.94 52.0046 87.82C51.8846 87.7 51.8246 87.56 51.8246 87.4V77.92C51.8246 76.66 51.4546 75.77 50.7146 75.25C49.9946 74.73 49.0946 74.47 48.0146 74.47C47.4746 74.47 46.9746 74.56 46.5146 74.74C46.0546 74.9 45.6446 75.13 45.2846 75.43C44.9446 75.73 44.6746 76.08 44.4746 76.48C44.2946 76.88 44.2046 77.31 44.2046 77.77V87.4C44.2046 87.56 44.1446 87.7 44.0246 87.82C43.9046 87.94 43.7646 88 43.6046 88H43.0346C42.8746 88 42.7346 87.94 42.6146 87.82C42.4946 87.7 42.4346 87.56 42.4346 87.4V73.6C42.4346 73.44 42.4946 73.3 42.6146 73.18C42.7346 73.06 42.8746 73 43.0346 73H43.5146C43.6546 73 43.7946 73.07 43.9346 73.21C44.0346 73.31 44.1346 73.42 44.2346 73.54C44.3346 73.64 44.4746 73.69 44.6546 73.69ZM63.4288 83.2C63.4288 84.26 63.7088 85.08 64.2688 85.66C64.8488 86.22 65.5188 86.5 66.2788 86.5C67.1388 86.5 67.8088 86.21 68.2888 85.63C68.7888 85.05 69.0388 84.34 69.0388 83.5C69.0388 83.34 69.0988 83.2 69.2188 83.08C69.3388 82.96 69.4788 82.9 69.6388 82.9H70.2688C70.4288 82.9 70.5688 82.96 70.6888 83.08C70.8088 83.2 70.8688 83.34 70.8688 83.5C70.8688 84.16 70.7488 84.78 70.5088 85.36C70.2888 85.94 69.9688 86.45 69.5488 86.89C69.1488 87.33 68.6688 87.68 68.1088 87.94C67.5488 88.18 66.9388 88.3 66.2788 88.3C65.6188 88.3 64.9988 88.18 64.4188 87.94C63.8588 87.68 63.3688 87.33 62.9488 86.89C62.5488 86.45 62.2288 85.94 61.9888 85.36C61.7488 84.78 61.6288 84.16 61.6288 83.5V75.22C61.6288 75.02 61.5288 74.92 61.3288 74.92H57.9988C57.8388 74.92 57.6988 74.86 57.5788 74.74C57.4588 74.62 57.3988 74.48 57.3988 74.32V73.75C57.3988 73.59 57.4588 73.45 57.5788 73.33C57.6988 73.21 57.8388 73.15 57.9988 73.15H61.3288C61.5288 73.15 61.6288 73.05 61.6288 72.85V68.2C61.6288 68.04 61.6888 67.9 61.8088 67.78C61.9288 67.66 62.0688 67.6 62.2288 67.6H62.8288C62.9888 67.6 63.1288 67.66 63.2488 67.78C63.3688 67.9 63.4288 68.04 63.4288 68.2V72.85C63.4288 73.05 63.5288 73.15 63.7288 73.15H68.7088C68.8688 73.15 69.0088 73.21 69.1288 73.33C69.2488 73.45 69.3088 73.59 69.3088 73.75V74.32C69.3088 74.48 69.2488 74.62 69.1288 74.74C69.0088 74.86 68.8688 74.92 68.7088 74.92H63.7288C63.5288 74.92 63.4288 75.02 63.4288 75.22V83.2ZM74.7329 68.92C74.5729 68.92 74.4329 68.86 74.3129 68.74C74.1929 68.62 74.1329 68.48 74.1329 68.32V67.6C74.1329 67.44 74.1929 67.3 74.3129 67.18C74.4329 67.06 74.5729 67 74.7329 67H87.3329C87.4929 67 87.6329 67.06 87.7529 67.18C87.8729 67.3 87.9329 67.44 87.9329 67.6V68.32C87.9329 68.48 87.8729 68.62 87.7529 68.74C87.6329 68.86 87.4929 68.92 87.3329 68.92H82.3229C82.1229 68.92 82.0229 69.02 82.0229 69.22V87.4C82.0229 87.56 81.9629 87.7 81.8429 87.82C81.7229 87.94 81.5829 88 81.4229 88H80.6729C80.5129 88 80.3729 87.94 80.2529 87.82C80.1329 87.7 80.0729 87.56 80.0729 87.4V69.22C80.0729 69.02 79.9729 68.92 79.7729 68.92H74.7329ZM93.2071 81.52C93.2071 82.24 93.2871 82.91 93.4471 83.53C93.6271 84.13 93.8971 84.66 94.2571 85.12C94.6171 85.56 95.0671 85.91 95.6071 86.17C96.1671 86.41 96.8371 86.53 97.6171 86.53C98.1971 86.53 98.7071 86.45 99.1471 86.29C99.6071 86.13 99.9971 85.92 100.317 85.66C100.657 85.38 100.927 85.08 101.127 84.76C101.347 84.42 101.517 84.07 101.637 83.71C101.697 83.51 101.787 83.38 101.907 83.32C102.047 83.24 102.187 83.2 102.327 83.2H102.927C103.087 83.2 103.217 83.25 103.317 83.35C103.437 83.43 103.477 83.58 103.437 83.8C103.337 84.46 103.127 85.07 102.807 85.63C102.487 86.17 102.067 86.64 101.547 87.04C101.047 87.44 100.457 87.75 99.7771 87.97C99.1171 88.19 98.3971 88.3 97.6171 88.3C96.7171 88.3 95.8971 88.15 95.1571 87.85C94.4371 87.55 93.8071 87.15 93.2671 86.65C92.7471 86.13 92.3271 85.52 92.0071 84.82C91.7071 84.12 91.5271 83.38 91.4671 82.6C91.4271 82 91.4071 81.3 91.4071 80.5C91.4071 79.7 91.4271 79 91.4671 78.4C91.5271 77.62 91.7071 76.88 92.0071 76.18C92.3271 75.48 92.7471 74.88 93.2671 74.38C93.8071 73.86 94.4371 73.45 95.1571 73.15C95.8971 72.85 96.7171 72.7 97.6171 72.7C98.4571 72.7 99.2371 72.86 99.9571 73.18C100.697 73.5 101.337 73.93 101.877 74.47C102.417 75.01 102.837 75.65 103.137 76.39C103.457 77.11 103.617 77.88 103.617 78.7V80.62C103.617 80.78 103.557 80.92 103.437 81.04C103.317 81.16 103.177 81.22 103.017 81.22H93.5071C93.3071 81.22 93.2071 81.32 93.2071 81.52ZM93.2671 79.24C93.2671 79.44 93.3671 79.54 93.5671 79.54H101.667C101.867 79.54 101.967 79.44 101.967 79.24C101.967 78.48 101.857 77.81 101.637 77.23C101.417 76.63 101.107 76.13 100.707 75.73C100.327 75.31 99.8771 75 99.3571 74.8C98.8371 74.58 98.2671 74.47 97.6471 74.47C96.3071 74.47 95.2371 74.88 94.4371 75.7C93.6571 76.52 93.2671 77.7 93.2671 79.24ZM114.231 86.53C114.891 86.53 115.461 86.43 115.941 86.23C116.421 86.01 116.821 85.74 117.141 85.42C117.461 85.08 117.691 84.71 117.831 84.31C117.991 83.91 118.071 83.51 118.071 83.11C118.071 82.91 118.131 82.78 118.251 82.72C118.371 82.64 118.501 82.6 118.641 82.6H119.271C119.431 82.6 119.571 82.66 119.691 82.78C119.811 82.9 119.871 83.04 119.871 83.2C119.871 83.88 119.731 84.53 119.451 85.15C119.191 85.75 118.811 86.29 118.311 86.77C117.811 87.23 117.211 87.6 116.511 87.88C115.831 88.16 115.071 88.3 114.231 88.3C113.331 88.3 112.521 88.15 111.801 87.85C111.081 87.55 110.461 87.15 109.941 86.65C109.421 86.13 109.011 85.52 108.711 84.82C108.411 84.12 108.231 83.38 108.171 82.6C108.131 82 108.111 81.3 108.111 80.5C108.111 79.7 108.131 79 108.171 78.4C108.231 77.62 108.411 76.88 108.711 76.18C109.011 75.48 109.421 74.88 109.941 74.38C110.461 73.86 111.081 73.45 111.801 73.15C112.521 72.85 113.331 72.7 114.231 72.7C115.071 72.7 115.831 72.84 116.511 73.12C117.211 73.4 117.811 73.78 118.311 74.26C118.811 74.72 119.191 75.26 119.451 75.88C119.731 76.48 119.871 77.12 119.871 77.8C119.871 77.96 119.821 78.1 119.721 78.22C119.641 78.34 119.521 78.4 119.361 78.4H118.671C118.531 78.4 118.401 78.36 118.281 78.28C118.161 78.2 118.101 78.08 118.101 77.92C118.101 77.48 118.011 77.05 117.831 76.63C117.671 76.21 117.421 75.84 117.081 75.52C116.761 75.2 116.361 74.95 115.881 74.77C115.401 74.57 114.851 74.47 114.231 74.47C113.471 74.47 112.831 74.6 112.311 74.86C111.791 75.12 111.361 75.45 111.021 75.85C110.701 76.23 110.461 76.65 110.301 77.11C110.141 77.57 110.041 78 110.001 78.4C109.941 79.02 109.911 79.72 109.911 80.5C109.911 81.28 109.941 81.98 110.001 82.6C110.041 83 110.141 83.43 110.301 83.89C110.461 84.35 110.701 84.78 111.021 85.18C111.361 85.56 111.791 85.88 112.311 86.14C112.831 86.4 113.471 86.53 114.231 86.53ZM125.655 88C125.495 88 125.355 87.94 125.235 87.82C125.115 87.7 125.055 87.56 125.055 87.4V67.39C125.055 67.23 125.115 67.09 125.235 66.97C125.355 66.85 125.495 66.79 125.655 66.79H126.225C126.385 66.79 126.525 66.85 126.645 66.97C126.765 67.09 126.825 67.23 126.825 67.39V72.82C126.825 72.96 126.875 73.1 126.975 73.24C127.095 73.38 127.265 73.45 127.485 73.45C127.625 73.45 127.785 73.41 127.965 73.33C128.165 73.25 128.395 73.17 128.655 73.09C128.915 72.99 129.205 72.9 129.525 72.82C129.865 72.74 130.255 72.7 130.695 72.7C131.475 72.7 132.185 72.84 132.825 73.12C133.485 73.4 134.035 73.78 134.475 74.26C134.935 74.74 135.285 75.3 135.525 75.94C135.785 76.56 135.915 77.22 135.915 77.92V87.4C135.915 87.56 135.855 87.7 135.735 87.82C135.615 87.94 135.475 88 135.315 88H134.745C134.585 88 134.445 87.94 134.325 87.82C134.205 87.7 134.145 87.56 134.145 87.4V77.92C134.145 76.9 133.805 76.07 133.125 75.43C132.445 74.79 131.565 74.47 130.485 74.47C129.945 74.47 129.445 74.56 128.985 74.74C128.545 74.9 128.165 75.13 127.845 75.43C127.525 75.73 127.275 76.08 127.095 76.48C126.915 76.88 126.825 77.31 126.825 77.77V87.4C126.825 87.56 126.765 87.7 126.645 87.82C126.525 87.94 126.385 88 126.225 88H125.655Z" fill="#EEFF12"/>
</svg>
