<svg width="1548" height="125" viewBox="0 0 1548 125" fill="none" xmlns="http://www.w3.org/2000/svg">
<path d="M15.0769 85.6751C15.0769 86.0788 14.9156 86.4826 14.5931 86.8056C14.2706 87.1286 13.8675 87.29 13.4644 87.29H11.5294C11.1262 87.29 10.7231 87.1286 10.4006 86.8056C10.0781 86.4826 9.91687 86.0788 9.91687 85.6751V31.25C9.91687 30.8463 10.0781 30.4425 10.4006 30.1195C10.7231 29.7965 11.1262 29.635 11.5294 29.635H38.9419C39.345 29.635 39.7481 29.7965 40.0706 30.1195C40.3931 30.4425 40.5544 30.8463 40.5544 31.25V33.188C40.5544 33.5917 40.3931 33.9955 40.0706 34.3185C39.7481 34.6415 39.345 34.803 38.9419 34.803H15.8831C15.3187 34.803 15.0769 35.0452 15.0769 35.6105V54.2636C15.0769 54.8288 15.3187 55.0711 15.8831 55.0711H37.8937C38.2969 55.0711 38.7 55.2326 39.0225 55.5556C39.345 55.8786 39.5062 56.2823 39.5062 56.686V58.624C39.5062 59.0278 39.345 59.4315 39.0225 59.7545C38.7 60.0775 38.2969 60.239 37.8937 60.239H15.8831C15.3187 60.239 15.0769 60.4813 15.0769 61.0465V85.6751Z" fill="#EEFF12"/>
<path d="M57.8888 51.0336C57.4856 51.0336 57.0825 50.8721 56.76 50.5492C56.4375 50.2262 56.2763 49.8224 56.2763 49.4187V47.8037C56.2763 47.3999 56.4375 46.9962 56.76 46.6732C57.0825 46.3502 57.4856 46.1887 57.8888 46.1887H72.3206C72.7237 46.1887 73.1269 46.3502 73.4494 46.6732C73.7719 46.9962 73.9331 47.3999 73.9331 47.8037V81.5569C73.9331 82.1221 74.175 82.3644 74.7394 82.3644H85.5431C85.9462 82.3644 86.3494 82.5259 86.6719 82.8489C86.9944 83.1719 87.1556 83.5756 87.1556 83.9794V85.5944C87.1556 85.9981 86.9944 86.4019 86.6719 86.7249C86.3494 87.0479 85.9462 87.2094 85.5431 87.2094H57.0825C56.6794 87.2094 56.2763 87.0479 55.9538 86.7249C55.6312 86.4019 55.47 85.9981 55.47 85.5944V83.9794C55.47 83.5756 55.6312 83.1719 55.9538 82.8489C56.2763 82.5259 56.6794 82.3644 57.0825 82.3644H68.2087C68.7731 82.3644 69.015 82.1221 69.015 81.5569V51.8411C69.015 51.2759 68.7731 51.0336 68.2087 51.0336H57.8888ZM74.4169 34.7223C74.4169 35.6105 74.0137 36.0143 73.1269 36.0143H68.8538C67.9669 36.0143 67.5638 35.6105 67.5638 34.7223V30.3618C67.5638 30.0388 67.725 29.7158 67.9669 29.4736C68.2088 29.2313 68.5312 29.0698 68.9344 29.0698H73.2075C73.6106 29.0698 73.9331 29.2313 74.175 29.4736C74.4169 29.7158 74.5781 30.0388 74.5781 30.3618V34.7223H74.4169Z" fill="#EEFF12"/>
<path d="M105.78 47.9652C106.344 47.9652 106.909 47.8037 107.473 47.5615C107.957 47.3192 108.602 46.9962 109.247 46.5925C109.892 46.2695 110.779 45.9465 111.746 45.6235C112.714 45.3812 114.004 45.2197 115.536 45.2197C117.712 45.2197 119.647 45.5427 121.421 46.108C123.195 46.6732 124.807 47.6422 126.097 48.8534C127.387 50.0647 128.436 51.5989 129.161 53.3754C129.887 55.1519 130.209 57.2514 130.209 59.5931V85.5944C130.209 85.9981 130.048 86.4019 129.726 86.7249C129.403 87.0479 129 87.2094 128.597 87.2094H127.065C126.662 87.2094 126.259 87.0479 125.936 86.7249C125.614 86.4019 125.452 85.9981 125.452 85.5944V59.5931C125.452 56.1209 124.485 53.6984 122.469 52.2449C120.454 50.7914 117.954 50.0647 115.052 50.0647C113.601 50.0647 112.23 50.3069 110.94 50.7914C109.65 51.2759 108.602 51.9219 107.634 52.7294C106.667 53.5369 105.941 54.5059 105.377 55.6364C104.893 56.7669 104.571 57.8974 104.571 59.1894V85.6752C104.571 86.0789 104.409 86.4826 104.087 86.8056C103.764 87.1286 103.361 87.2901 102.958 87.2901H101.426C101.023 87.2901 100.62 87.1286 100.297 86.8056C99.975 86.4826 99.8137 86.0789 99.8137 85.6752V47.723C99.8137 47.3192 99.975 46.9155 100.297 46.5925C100.62 46.2695 101.023 46.108 101.426 46.108H102.716C103.119 46.108 103.522 46.2695 103.845 46.6732C104.087 46.9155 104.409 47.2385 104.651 47.5615C104.893 47.8845 105.216 47.9652 105.78 47.9652Z" fill="#EEFF12"/>
<path d="M160.847 49.8224C159.557 49.8224 158.347 49.9839 157.219 50.3877C156.09 50.7107 155.042 51.2759 154.155 51.8412C153.268 52.4872 152.542 53.2139 151.978 54.1022C151.414 54.9904 151.172 55.9594 151.172 57.0899C151.172 57.8166 150.93 58.2204 150.527 58.3011C150.124 58.3819 149.64 58.4626 149.317 58.4626H148.189C147.06 58.4626 146.576 57.8974 146.576 56.8476C146.576 54.9096 146.979 53.2139 147.786 51.8412C148.592 50.3877 149.721 49.2572 151.091 48.2882C152.462 47.3192 153.994 46.5925 155.687 46.108C157.38 45.6235 159.073 45.3812 160.847 45.3812C162.862 45.3812 164.797 45.6235 166.571 46.1887C168.345 46.754 169.877 47.5615 171.247 48.6919C172.618 49.8224 173.666 51.1952 174.472 52.9717C175.279 54.6674 175.682 56.6861 175.682 59.0279V85.7559C175.682 86.1596 175.521 86.5634 175.198 86.8864C174.876 87.2094 174.472 87.3709 174.069 87.3709H173.344C172.779 87.3709 172.376 87.2094 172.215 86.8056C171.973 86.4826 171.812 86.0789 171.651 85.6751C171.489 85.2714 171.167 85.0292 170.602 85.0292C170.199 85.0292 169.716 85.1907 169.151 85.5137C168.587 85.8367 167.781 86.2404 166.894 86.5634C166.007 86.9671 164.959 87.2901 163.83 87.6131C162.621 87.9361 161.331 88.0976 159.718 88.0976C157.219 88.0976 154.961 87.7746 153.107 87.0479C151.252 86.3211 149.64 85.3521 148.431 84.1409C147.221 82.9297 146.254 81.5569 145.689 79.9419C145.125 78.327 144.802 76.712 144.802 74.9355C144.802 73.2398 145.125 71.6248 145.689 70.1713C146.254 68.7178 147.141 67.4258 148.35 66.3761C149.559 65.3263 150.93 64.4381 152.623 63.8728C154.316 63.3076 156.251 62.9846 158.347 62.9846H170.119C170.683 62.9846 170.925 62.7423 170.925 62.1771V58.9471C170.925 56.2824 169.957 54.1022 168.103 52.4064C166.168 50.6299 163.749 49.8224 160.847 49.8224ZM158.186 67.4258C155.848 67.4258 153.832 68.0718 152.139 69.283C150.366 70.575 149.479 72.3515 149.479 74.774C149.479 76.2275 149.721 77.5195 150.285 78.5692C150.769 79.619 151.494 80.5072 152.462 81.2339C153.349 81.9607 154.397 82.4452 155.526 82.8489C156.654 83.1719 157.944 83.4142 159.234 83.4142C163.024 83.4142 165.926 82.5259 168.022 80.7494C170.119 78.973 171.086 76.4697 171.086 73.0783V68.1525C171.086 67.5873 170.844 67.345 170.28 67.345H158.186V67.4258Z" fill="#EEFF12"/>
<path d="M196.241 47.9652C196.806 47.9652 197.37 47.8037 197.934 47.5615C198.418 47.3192 199.063 46.9962 199.708 46.5925C200.353 46.2695 201.24 45.9465 202.208 45.6235C203.175 45.3812 204.465 45.2197 205.997 45.2197C208.174 45.2197 210.109 45.5427 211.883 46.108C213.656 46.6732 215.269 47.6422 216.559 48.8534C217.849 50.0647 218.897 51.5989 219.623 53.3754C220.348 55.1519 220.671 57.2514 220.671 59.5931V85.5944C220.671 85.9981 220.509 86.4019 220.187 86.7249C219.864 87.0479 219.461 87.2094 219.058 87.2094H217.526C217.123 87.2094 216.72 87.0479 216.398 86.7249C216.075 86.4019 215.914 85.9981 215.914 85.5944V59.5931C215.914 56.1209 214.946 53.6984 212.931 52.2449C210.915 50.7914 208.416 50.0647 205.513 50.0647C204.062 50.0647 202.691 50.3069 201.401 50.7914C200.111 51.2759 199.063 51.9219 198.096 52.7294C197.128 53.5369 196.403 54.5059 195.838 55.6364C195.354 56.7669 195.032 57.8974 195.032 59.1894V85.6752C195.032 86.0789 194.871 86.4826 194.548 86.8056C194.226 87.1286 193.823 87.2901 193.419 87.2901H191.888C191.484 87.2901 191.081 87.1286 190.759 86.8056C190.436 86.4826 190.275 86.0789 190.275 85.6752V47.723C190.275 47.3192 190.436 46.9155 190.759 46.5925C191.081 46.2695 191.484 46.108 191.888 46.108H193.178C193.581 46.108 193.984 46.2695 194.306 46.6732C194.548 46.9155 194.871 47.2385 195.113 47.5615C195.354 47.8845 195.758 47.9652 196.241 47.9652Z" fill="#EEFF12"/>
<path d="M251.308 83.2526C253.082 83.2526 254.694 82.9296 255.984 82.3644C257.274 81.7991 258.403 81.0724 259.29 80.1034C260.177 79.2151 260.822 78.1654 261.225 77.1157C261.628 75.9852 261.87 74.9354 261.87 73.8049C261.87 73.2397 262.031 72.9167 262.354 72.6744C262.676 72.5129 262.999 72.3514 263.402 72.3514H265.095C265.498 72.3514 265.901 72.5129 266.224 72.8359C266.546 73.1589 266.708 73.5627 266.708 73.9664C266.708 75.8237 266.304 77.6002 265.579 79.2959C264.853 80.9916 263.805 82.4451 262.434 83.7371C261.064 85.0291 259.451 86.0788 257.516 86.8056C255.662 87.6131 253.566 87.9361 251.228 87.9361C248.728 87.9361 246.551 87.5323 244.536 86.7248C242.601 85.9173 240.827 84.7869 239.456 83.4141C238.005 82.0414 236.876 80.3456 236.07 78.4076C235.264 76.4697 234.78 74.4509 234.619 72.3514C234.538 70.7365 234.458 68.7985 234.458 66.6182C234.458 64.438 234.538 62.5 234.619 60.885C234.78 58.7048 235.264 56.6861 236.07 54.8288C236.876 52.8909 238.005 51.2759 239.456 49.8224C240.908 48.4496 242.601 47.3191 244.536 46.5117C246.471 45.7042 248.728 45.3004 251.228 45.3004C253.566 45.3004 255.662 45.7042 257.516 46.4309C259.371 47.2384 261.064 48.2074 262.434 49.4994C263.805 50.7914 264.853 52.2449 265.579 53.9406C266.304 55.6363 266.708 57.4128 266.708 59.2701C266.708 59.6738 266.546 60.0776 266.304 60.4005C266.063 60.7235 265.74 60.885 265.256 60.885H263.402C262.999 60.885 262.676 60.8043 262.354 60.562C262.031 60.3198 261.87 59.9968 261.87 59.5931C261.87 58.3818 261.628 57.1706 261.144 56.0401C260.661 54.9096 260.016 53.8598 259.048 52.9716C258.161 52.0834 257.033 51.3566 255.743 50.8721C254.453 50.3876 252.921 50.0646 251.228 50.0646C249.131 50.0646 247.358 50.3876 245.987 51.1144C244.536 51.8411 243.407 52.7294 242.52 53.7791C241.633 54.8288 240.908 56.0401 240.504 57.2513C240.101 58.5433 239.779 59.6738 239.698 60.8043C239.537 62.5 239.456 64.438 239.456 66.5375C239.456 68.637 239.537 70.575 239.698 72.2707C239.779 73.4012 240.101 74.5317 240.504 75.8237C240.908 77.1157 241.633 78.2462 242.52 79.2959C243.407 80.3456 244.616 81.2339 245.987 81.9606C247.519 82.9296 249.212 83.2526 251.308 83.2526Z" fill="#EEFF12"/>
<path d="M284.123 69.5253C284.123 71.4633 284.364 73.3205 284.848 75.0162C285.332 76.712 286.058 78.1655 287.025 79.3767C287.993 80.5879 289.283 81.5569 290.734 82.2837C292.266 83.0104 294.039 83.3334 296.216 83.3334C297.829 83.3334 299.199 83.0912 300.489 82.6874C301.699 82.2837 302.828 81.6377 303.714 80.9109C304.601 80.1842 305.327 79.3767 305.972 78.4077C306.536 77.5195 307.02 76.5505 307.343 75.5815C307.504 75.0162 307.746 74.6932 308.149 74.451C308.471 74.2895 308.874 74.128 309.278 74.128H310.89C311.293 74.128 311.696 74.2895 312.019 74.5317C312.341 74.774 312.422 75.1777 312.341 75.8237C312.099 77.6002 311.454 79.296 310.648 80.8302C309.761 82.3644 308.633 83.6564 307.262 84.7062C305.891 85.8367 304.279 86.6441 302.424 87.2901C300.57 87.8554 298.635 88.1784 296.458 88.1784C293.959 88.1784 291.782 87.7746 289.766 86.9671C287.751 86.1596 286.058 85.0292 284.606 83.6564C283.155 82.2837 282.026 80.5879 281.139 78.65C280.253 76.712 279.769 74.6932 279.608 72.5938C279.527 70.9788 279.446 69.0408 279.446 66.8606C279.446 64.6803 279.527 62.7423 279.608 61.1273C279.769 58.9471 280.253 56.9284 281.139 55.0711C282.026 53.1332 283.155 51.5182 284.606 50.0647C286.058 48.6919 287.751 47.5615 289.766 46.754C291.782 45.9465 294.039 45.5427 296.458 45.5427C298.796 45.5427 300.893 45.9465 302.908 46.8347C304.924 47.723 306.617 48.9342 308.149 50.3877C309.681 51.8412 310.809 53.6177 311.616 55.6364C312.503 57.6551 312.906 59.7546 312.906 62.0156V67.0221C312.906 67.4258 312.744 67.8295 312.422 68.1525C312.099 68.4755 311.696 68.637 311.293 68.637H285.251C284.445 68.7178 284.123 68.96 284.123 69.5253ZM284.284 63.2268C284.284 63.7921 284.526 64.0343 285.09 64.0343H307.262C307.826 64.0343 308.068 63.7921 308.068 63.2268C308.068 61.1274 307.746 59.2701 307.181 57.6551C306.617 56.0401 305.73 54.6674 304.682 53.5369C303.634 52.4064 302.344 51.5989 300.973 50.9529C299.522 50.3877 297.99 50.0647 296.297 50.0647C292.588 50.0647 289.686 51.1952 287.509 53.4562C285.413 55.7979 284.284 59.0279 284.284 63.2268Z" fill="#EEFF12"/>
<path d="M331.772 87.0479C331.369 87.8554 330.804 88.2591 330.079 88.2591H328.386C327.821 88.2591 327.418 88.0169 327.096 87.5324C326.773 87.0479 326.773 86.5634 327.015 85.9174L350.558 29.9581C350.799 29.1506 351.364 28.7468 352.089 28.7468H353.783C354.347 28.7468 354.75 28.9891 355.073 29.4736C355.395 29.9581 355.395 30.4426 355.153 31.0886L331.772 87.0479Z" fill="#EEFF12"/>
<path d="M439.568 78.1654C439.648 78.4076 439.809 78.5691 440.051 78.5691C440.293 78.5691 440.454 78.4076 440.535 78.1654L445.614 30.8463C445.695 30.4425 445.856 30.1195 446.179 29.8773C446.501 29.7158 446.824 29.5543 447.227 29.5543H449.323C449.968 29.5543 450.452 29.7158 450.694 30.0388C450.936 30.3618 451.016 30.7655 451.016 31.1692L444.244 85.9173C444.163 86.3211 444.002 86.6441 443.679 86.8863C443.357 87.0478 443.034 87.2093 442.631 87.2093H437.149C436.746 87.2093 436.423 87.1285 436.101 86.8863C435.778 86.7248 435.617 86.4018 435.536 85.9173L432.069 56.1208C431.989 55.8785 431.908 55.7978 431.827 55.7978C431.747 55.7978 431.666 55.8785 431.586 56.1208L426.99 85.9173C426.829 86.7248 426.264 87.1285 425.458 87.1285H419.976C419.573 87.1285 419.25 87.0478 418.927 86.8055C418.605 86.6441 418.444 86.3211 418.363 85.8366L412.397 31.0885C412.316 30.6848 412.478 30.281 412.719 29.958C412.961 29.635 413.445 29.4735 414.09 29.4735H416.186C416.589 29.4735 416.912 29.5543 417.234 29.7965C417.557 29.958 417.718 30.281 417.799 30.7655L422.556 78.0846C422.636 78.3269 422.798 78.4884 423.039 78.4884C423.281 78.4884 423.443 78.3269 423.523 78.0846L428.441 47.2384C428.603 46.4309 429.086 46.0271 429.973 46.0271H433.763C434.649 46.0271 435.133 46.4309 435.294 47.2384L439.568 78.1654Z" fill="#EEFF12"/>
<path d="M465.126 69.5253C465.126 71.4633 465.367 73.3205 465.851 75.0162C466.335 76.712 467.061 78.1655 468.028 79.3767C468.996 80.5879 470.286 81.5569 471.737 82.2837C473.269 83.0104 475.043 83.3334 477.219 83.3334C478.832 83.3334 480.202 83.0912 481.492 82.6874C482.702 82.2837 483.831 81.6377 484.717 80.9109C485.604 80.1842 486.33 79.3767 486.975 78.4077C487.539 77.5195 488.023 76.5505 488.346 75.5815C488.507 75.0162 488.749 74.6932 489.152 74.451C489.474 74.2895 489.877 74.128 490.281 74.128H491.893C492.296 74.128 492.699 74.2895 493.022 74.5317C493.344 74.774 493.425 75.1777 493.344 75.8237C493.103 77.6002 492.457 79.296 491.651 80.8302C490.764 82.3644 489.636 83.6564 488.265 84.7062C486.894 85.8367 485.282 86.6441 483.427 87.2901C481.573 87.8554 479.638 88.1784 477.461 88.1784C474.962 88.1784 472.785 87.7746 470.769 86.9671C468.754 86.1596 467.061 85.0292 465.609 83.6564C464.158 82.2837 463.029 80.5879 462.142 78.65C461.256 76.712 460.772 74.6932 460.611 72.5938C460.53 70.9788 460.449 69.0408 460.449 66.8606C460.449 64.6803 460.53 62.7423 460.611 61.1273C460.772 58.9471 461.256 56.9284 462.142 55.0711C463.029 53.1332 464.158 51.5182 465.609 50.0647C467.061 48.6919 468.754 47.5615 470.769 46.754C472.785 45.9465 475.042 45.5427 477.461 45.5427C479.799 45.5427 481.896 45.9465 483.911 46.8347C485.927 47.723 487.62 48.9342 489.152 50.3877C490.684 51.8412 491.812 53.6177 492.619 55.6364C493.506 57.6551 493.909 59.7546 493.909 62.0156V67.0221C493.909 67.4258 493.747 67.8295 493.425 68.1525C493.102 68.4755 492.699 68.637 492.296 68.637H466.254C465.367 68.7178 465.126 68.96 465.126 69.5253ZM465.287 63.2268C465.287 63.7921 465.529 64.0343 466.093 64.0343H488.265C488.829 64.0343 489.071 63.7921 489.071 63.2268C489.071 61.1274 488.749 59.2701 488.184 57.6551C487.62 56.0401 486.733 54.6674 485.685 53.5369C484.637 52.4064 483.347 51.5989 481.976 50.9529C480.525 50.3877 478.993 50.0647 477.3 50.0647C473.591 50.0647 470.689 51.1952 468.512 53.4562C466.335 55.7979 465.287 59.0279 465.287 63.2268Z" fill="#EEFF12"/>
<path d="M508.986 33.9955C508.582 33.9955 508.179 33.834 507.857 33.511C507.534 33.188 507.373 32.7842 507.373 32.3805V30.7655C507.373 30.3618 507.534 29.958 507.857 29.635C508.179 29.312 508.582 29.1505 508.986 29.1505H523.014C523.417 29.1505 523.821 29.312 524.143 29.635C524.466 29.958 524.627 30.3618 524.627 30.7655V81.5568C524.627 82.1221 524.869 82.3643 525.433 82.3643H535.914C536.317 82.3643 536.721 82.5258 537.043 82.8488C537.366 83.1718 537.527 83.5756 537.527 83.9793V85.5943C537.527 85.9981 537.366 86.4018 537.043 86.7248C536.721 87.0478 536.317 87.2093 535.914 87.2093H507.292C506.889 87.2093 506.486 87.0478 506.164 86.7248C505.841 86.4018 505.68 85.9981 505.68 85.5943V83.9793C505.68 83.5756 505.841 83.1718 506.164 82.8488C506.486 82.5258 506.889 82.3643 507.292 82.3643H518.741C518.983 82.3643 519.225 82.2836 519.467 82.1221C519.628 81.9606 519.789 81.7991 519.789 81.4761V34.803C519.789 34.2377 519.547 33.9955 518.983 33.9955H508.986Z" fill="#EEFF12"/>
<path d="M554.216 33.9955C553.813 33.9955 553.41 33.834 553.088 33.511C552.765 33.188 552.604 32.7842 552.604 32.3805V30.7655C552.604 30.3618 552.765 29.958 553.088 29.635C553.41 29.312 553.813 29.1505 554.216 29.1505H568.245C568.648 29.1505 569.051 29.312 569.374 29.635C569.696 29.958 569.858 30.3618 569.858 30.7655V81.5568C569.858 82.1221 570.099 82.3643 570.664 82.3643H581.145C581.548 82.3643 581.951 82.5258 582.274 82.8488C582.596 83.1718 582.758 83.5756 582.758 83.9793V85.5943C582.758 85.9981 582.596 86.4018 582.274 86.7248C581.951 87.0478 581.548 87.2093 581.145 87.2093H552.523C552.12 87.2093 551.717 87.0478 551.394 86.7248C551.072 86.4018 550.911 85.9981 550.911 85.5943V83.9793C550.911 83.5756 551.072 83.1718 551.394 82.8488C551.717 82.5258 552.12 82.3643 552.523 82.3643H563.972C564.214 82.3643 564.456 82.2836 564.698 82.1221C564.859 81.9606 565.02 81.7991 565.02 81.4761V34.803C565.02 34.2377 564.778 33.9955 564.214 33.9955H554.216Z" fill="#EEFF12"/>
<path d="M612.427 88.0976C610.896 88.0976 609.686 87.9361 608.719 87.6939C607.751 87.4516 607.026 87.1286 606.3 86.7249C605.655 86.4019 605.091 86.0789 604.607 85.7559C604.123 85.5136 603.639 85.3521 602.994 85.3521C602.591 85.3521 602.188 85.5136 601.866 85.8366C601.543 86.1596 601.221 86.4019 600.979 86.7249C600.576 87.1286 600.172 87.2901 599.85 87.2901H598.56C598.157 87.2901 597.754 87.1286 597.431 86.8056C597.109 86.4826 596.948 86.0789 596.948 85.6751V30.6848C596.948 30.2811 597.109 29.8773 597.431 29.5543C597.754 29.2313 598.157 29.0698 598.56 29.0698H600.092C600.495 29.0698 600.898 29.2313 601.221 29.5543C601.543 29.8773 601.704 30.2811 601.704 30.6848V45.3004C601.704 46.1079 601.866 46.5924 602.269 46.9154C602.672 47.2384 603.156 47.3999 603.72 47.3999C604.123 47.3999 604.526 47.3192 605.01 47.0769C605.494 46.8347 606.058 46.5924 606.703 46.3502C607.348 46.1079 608.154 45.8657 609.041 45.6234C609.928 45.3812 611.057 45.3004 612.347 45.3004C614.524 45.3004 616.459 45.7042 618.313 46.5117C620.168 47.3192 621.78 48.4497 623.151 49.8224C624.521 51.1951 625.65 52.8909 626.456 54.8289C627.343 56.7669 627.827 58.7856 627.988 60.8851C628.069 62.5001 628.149 64.438 628.149 66.6183C628.149 68.7985 628.069 70.7365 627.988 72.3515C627.827 74.5317 627.343 76.5504 626.456 78.4077C625.569 80.3457 624.521 81.9607 623.151 83.4141C621.78 84.7869 620.168 85.9174 618.313 86.7249C616.539 87.6939 614.604 88.0976 612.427 88.0976ZM612.024 83.2526C614.04 83.2526 615.733 82.9296 617.104 82.2029C618.474 81.4762 619.522 80.5879 620.409 79.5382C621.296 78.4884 621.861 77.2772 622.264 76.0659C622.667 74.774 622.909 73.6435 623.07 72.513C623.312 70.8172 623.392 68.8793 623.392 66.7798C623.392 64.6803 623.312 62.7423 623.07 61.0466C622.989 59.9161 622.667 58.7856 622.264 57.4936C621.861 56.2016 621.216 55.0711 620.409 54.0214C619.522 52.9716 618.474 52.0834 617.104 51.3566C615.733 50.6299 614.04 50.3069 612.105 50.3069C610.331 50.3069 608.799 50.6299 607.509 51.3566C606.219 52.0834 605.252 52.9716 604.446 54.0214C603.639 55.0711 603.075 56.2824 602.752 57.4936C602.349 58.7856 602.107 59.9161 602.027 61.0466C601.866 62.7423 601.785 64.6803 601.785 66.7798C601.785 68.8793 601.866 70.8172 602.027 72.513C602.107 73.6435 602.349 74.774 602.752 76.0659C603.156 77.3579 603.72 78.4884 604.446 79.5382C605.252 80.5879 606.219 81.4762 607.509 82.2029C608.638 82.9296 610.17 83.2526 612.024 83.2526Z" fill="#EEFF12"/>
<path d="M646.048 69.5253C646.048 71.4633 646.29 73.3205 646.774 75.0162C647.257 76.712 647.983 78.1655 648.951 79.3767C649.918 80.5879 651.208 81.5569 652.659 82.2837C654.191 83.0104 655.965 83.3334 658.142 83.3334C659.754 83.3334 661.125 83.0912 662.415 82.6874C663.624 82.2837 664.753 81.6377 665.64 80.9109C666.527 80.1842 667.252 79.3767 667.897 78.4077C668.462 77.5195 668.946 76.5505 669.268 75.5815C669.429 75.0162 669.671 74.6932 670.074 74.451C670.397 74.2895 670.8 74.128 671.203 74.128H672.816C673.219 74.128 673.622 74.2895 673.944 74.5317C674.267 74.774 674.347 75.1777 674.267 75.8237C674.025 77.6002 673.38 79.296 672.574 80.8302C671.687 82.3644 670.558 83.6564 669.187 84.7062C667.817 85.8367 666.204 86.6441 664.35 87.2901C662.496 87.8554 660.561 88.1784 658.384 88.1784C655.884 88.1784 653.707 87.7746 651.692 86.9671C649.676 86.1596 647.983 85.0292 646.532 83.6564C645.081 82.2837 643.952 80.5879 643.065 78.65C642.178 76.712 641.694 74.6932 641.533 72.5938C641.452 70.9788 641.372 69.0408 641.372 66.8606C641.372 64.6803 641.452 62.7423 641.533 61.1273C641.694 58.9471 642.178 56.9284 643.065 55.0711C643.952 53.1332 645.081 51.5182 646.532 50.0647C647.983 48.6919 649.676 47.5615 651.692 46.754C653.707 45.9465 655.965 45.5427 658.384 45.5427C660.722 45.5427 662.818 45.9465 664.834 46.8347C666.849 47.723 668.542 48.9342 670.074 50.3877C671.606 51.8412 672.735 53.6177 673.541 55.6364C674.428 57.6551 674.831 59.7546 674.831 62.0156V67.0221C674.831 67.4258 674.67 67.8295 674.347 68.1525C674.025 68.4755 673.622 68.637 673.219 68.637H647.177C646.371 68.7178 646.048 68.96 646.048 69.5253ZM646.209 63.2268C646.209 63.7921 646.451 64.0343 647.016 64.0343H669.187C669.752 64.0343 669.994 63.7921 669.994 63.2268C669.994 61.1274 669.671 59.2701 669.107 57.6551C668.542 56.0401 667.656 54.6674 666.607 53.5369C665.559 52.4064 664.269 51.5989 662.899 50.9529C661.447 50.3877 659.916 50.0647 658.222 50.0647C654.514 50.0647 651.611 51.1952 649.434 53.4562C647.338 55.7979 646.209 59.0279 646.209 63.2268Z" fill="#EEFF12"/>
<path d="M691.198 51.0336C690.795 51.0336 690.392 50.8721 690.069 50.5492C689.747 50.2262 689.586 49.8224 689.586 49.4187V47.8037C689.586 47.3999 689.747 46.9962 690.069 46.6732C690.392 46.3502 690.795 46.1887 691.198 46.1887H705.63C706.033 46.1887 706.436 46.3502 706.759 46.6732C707.081 46.9962 707.242 47.3999 707.242 47.8037V81.5569C707.242 82.1221 707.484 82.3644 708.049 82.3644H718.852C719.256 82.3644 719.659 82.5259 719.981 82.8489C720.304 83.1719 720.465 83.5756 720.465 83.9794V85.5944C720.465 85.9981 720.304 86.4019 719.981 86.7249C719.659 87.0479 719.256 87.2094 718.852 87.2094H690.392C689.989 87.2094 689.586 87.0479 689.263 86.7249C688.941 86.4019 688.779 85.9981 688.779 85.5944V83.9794C688.779 83.5756 688.941 83.1719 689.263 82.8489C689.586 82.5259 689.989 82.3644 690.392 82.3644H701.518C702.082 82.3644 702.324 82.1221 702.324 81.5569V51.8411C702.324 51.2759 702.082 51.0336 701.518 51.0336H691.198ZM707.726 34.7223C707.726 35.6105 707.323 36.0143 706.436 36.0143H702.163C701.276 36.0143 700.873 35.6105 700.873 34.7223V30.3618C700.873 30.0388 701.034 29.7158 701.276 29.4736C701.518 29.2313 701.841 29.0698 702.244 29.0698H706.517C706.92 29.0698 707.242 29.2313 707.484 29.4736C707.726 29.7158 707.887 30.0388 707.887 30.3618V34.7223H707.726Z" fill="#EEFF12"/>
<path d="M739.089 47.9652C739.654 47.9652 740.218 47.8037 740.782 47.5615C741.266 47.3192 741.911 46.9962 742.556 46.5925C743.201 46.2695 744.088 45.9465 745.056 45.6235C746.023 45.3812 747.313 45.2197 748.845 45.2197C751.022 45.2197 752.957 45.5427 754.731 46.108C756.504 46.6732 758.117 47.6422 759.407 48.8534C760.697 50.0647 761.745 51.5989 762.471 53.3754C763.196 55.1519 763.519 57.2514 763.519 59.5931V85.5944C763.519 85.9981 763.357 86.4019 763.035 86.7249C762.712 87.0479 762.309 87.2094 761.906 87.2094H760.374C759.971 87.2094 759.568 87.0479 759.246 86.7249C758.923 86.4019 758.762 85.9981 758.762 85.5944V59.5931C758.762 56.1209 757.794 53.6984 755.779 52.2449C753.763 50.7914 751.264 50.0647 748.361 50.0647C746.91 50.0647 745.539 50.3069 744.249 50.7914C742.959 51.2759 741.911 51.9219 740.944 52.7294C739.976 53.5369 739.251 54.5059 738.686 55.6364C738.202 56.7669 737.88 57.8974 737.88 59.1894V85.6752C737.88 86.0789 737.719 86.4826 737.396 86.8056C737.074 87.1286 736.671 87.2901 736.267 87.2901H734.736C734.332 87.2901 733.929 87.1286 733.607 86.8056C733.284 86.4826 733.123 86.0789 733.123 85.6752V47.723C733.123 47.3192 733.284 46.9155 733.607 46.5925C733.929 46.2695 734.332 46.108 734.736 46.108H736.026C736.429 46.108 736.832 46.2695 737.154 46.6732C737.396 46.9155 737.719 47.2385 737.961 47.5615C738.202 47.8845 738.606 47.9652 739.089 47.9652Z" fill="#EEFF12"/>
<path d="M807.621 46.1079C808.024 46.1079 808.427 46.2694 808.749 46.5924C809.072 46.9154 809.233 47.3191 809.233 47.7229V89.7126C809.233 91.6505 808.911 93.5885 808.185 95.365C807.459 97.1415 806.492 98.7565 805.202 100.129C803.912 101.502 802.38 102.552 800.606 103.359C798.832 104.167 796.817 104.57 794.64 104.57C793.027 104.57 791.415 104.328 789.802 103.844C788.271 103.359 786.819 102.632 785.449 101.663C784.159 100.694 783.03 99.4832 782.062 98.1105C781.095 96.7378 780.45 95.042 780.047 93.1848C779.805 91.8928 780.289 91.3275 781.498 91.3275H782.788C783.514 91.3275 783.997 91.489 784.239 91.812C784.481 92.135 784.723 92.5388 784.884 92.9425C785.126 93.75 785.529 94.4768 786.013 95.2843C786.497 96.0918 787.142 96.8185 787.867 97.4645C788.674 98.1105 789.561 98.595 790.689 98.9987C791.818 99.4025 793.027 99.6447 794.479 99.6447C796.011 99.6447 797.381 99.3217 798.591 98.7565C799.8 98.1912 800.848 97.4645 801.654 96.4955C802.541 95.5265 803.186 94.4768 803.589 93.3463C803.992 92.135 804.234 90.9238 804.234 89.7126V88.0976C804.234 86.7248 803.589 85.9981 802.461 85.9981C802.057 85.9981 801.493 86.0788 800.929 86.3211C800.364 86.5633 799.639 86.8056 798.832 87.0478C798.026 87.2901 797.22 87.5323 796.333 87.7746C795.446 88.0168 794.479 88.0976 793.592 88.0976C791.415 88.0976 789.48 87.6938 787.626 86.8863C785.771 86.0788 784.159 84.9483 782.788 83.5756C781.417 82.2029 780.289 80.5071 779.482 78.5692C778.596 76.6312 778.112 74.6124 777.951 72.5129C777.87 70.898 777.789 68.96 777.789 66.7797C777.789 64.5995 777.87 62.6615 777.951 61.0465C778.112 58.8663 778.596 56.8476 779.482 54.9903C780.369 53.0524 781.417 51.4374 782.788 49.9839C784.159 48.6111 785.771 47.4806 787.626 46.6732C789.48 45.8657 791.415 45.4619 793.592 45.4619C795.124 45.4619 796.333 45.6234 797.301 45.8657C798.268 46.1079 798.994 46.4309 799.719 46.8347C800.364 47.1577 800.929 47.4806 801.412 47.8036C801.896 48.0459 802.38 48.2074 803.025 48.2074C803.428 48.2074 803.831 48.0459 804.154 47.7229C804.476 47.3999 804.799 47.1577 805.041 46.8347C805.444 46.4309 805.847 46.2694 806.169 46.2694H807.621V46.1079ZM794.156 50.1454C792.141 50.1454 790.447 50.4684 789.077 51.1951C787.706 51.9219 786.658 52.8101 785.771 53.8598C784.884 54.9096 784.32 56.1208 783.917 57.3321C783.514 58.6241 783.272 59.7546 783.111 60.885C782.869 62.5808 782.788 64.5188 782.788 66.6182C782.788 68.7177 782.869 70.6557 783.111 72.3514C783.191 73.4819 783.514 74.6124 783.917 75.9044C784.32 77.1964 784.965 78.3269 785.771 79.3766C786.658 80.4264 787.706 81.3146 789.077 82.0414C790.447 82.7681 792.141 83.0911 794.076 83.0911C795.849 83.0911 797.381 82.7681 798.671 82.0414C799.961 81.3146 800.929 80.4264 801.735 79.3766C802.541 78.3269 803.106 77.1157 803.428 75.9044C803.831 74.6124 804.073 73.4819 804.154 72.3514C804.315 70.6557 804.396 68.7177 804.396 66.6182C804.396 64.5188 804.315 62.5808 804.154 60.885C804.073 59.7546 803.831 58.6241 803.428 57.3321C803.025 56.0401 802.461 54.9096 801.735 53.8598C801.009 52.8101 799.961 51.9219 798.671 51.1951C797.462 50.4684 795.93 50.1454 794.156 50.1454Z" fill="#EEFF12"/>
<path d="M874.62 87.0479C874.217 87.8554 873.652 88.2591 872.927 88.2591H871.234C870.669 88.2591 870.266 88.0169 869.944 87.5324C869.621 87.0479 869.621 86.5634 869.863 85.9174L893.406 29.9581C893.647 29.1506 894.212 28.7468 894.937 28.7468H896.631C897.195 28.7468 897.598 28.9891 897.921 29.4736C898.243 29.9581 898.243 30.4426 898.001 31.0886L874.62 87.0479Z" fill="#EEFF12"/>
<path d="M965.162 54.4251C965.162 54.9903 965.404 55.2326 965.968 55.2326H987.979C988.382 55.2326 988.785 55.3941 989.107 55.717C989.43 56.04 989.591 56.4438 989.591 56.8475V58.7048C989.591 59.1085 989.43 59.5123 989.107 59.8353C988.785 60.1583 988.382 60.3198 987.979 60.3198H965.968C965.404 60.3198 965.162 60.562 965.162 61.1273V81.0723C965.162 81.6376 965.404 81.8798 965.968 81.8798H989.107C989.511 81.8798 989.914 82.0413 990.236 82.3643C990.559 82.6873 990.72 83.0911 990.72 83.4948V85.4328C990.72 85.8366 990.559 86.2403 990.236 86.5633C989.914 86.8863 989.511 87.0478 989.107 87.0478H961.534C961.131 87.0478 960.727 86.8863 960.405 86.5633C960.082 86.2403 959.921 85.8366 959.921 85.4328V31.25C959.921 30.8463 960.082 30.4425 960.405 30.1195C960.727 29.7965 961.131 29.635 961.534 29.635H988.946C989.349 29.635 989.752 29.7965 990.075 30.1195C990.397 30.4425 990.559 30.8463 990.559 31.25V33.188C990.559 33.5917 990.397 33.9955 990.075 34.3185C989.752 34.6415 989.349 34.803 988.946 34.803H965.968C965.404 34.803 965.162 35.0452 965.162 35.6105V54.4251Z" fill="#EEFF12"/>
<path d="M1010.55 47.9652C1011.12 47.9652 1011.68 47.8037 1012.25 47.5615C1012.73 47.3192 1013.38 46.9962 1014.02 46.5925C1014.67 46.2695 1015.55 45.9465 1016.52 45.6235C1017.49 45.3812 1018.78 45.2197 1020.31 45.2197C1022.49 45.2197 1024.42 45.5427 1026.19 46.108C1027.97 46.6732 1029.58 47.6422 1030.87 48.8534C1032.16 50.0647 1033.21 51.5989 1033.93 53.3754C1034.66 55.1519 1034.98 57.2514 1034.98 59.5931V85.5944C1034.98 85.9981 1034.82 86.4019 1034.5 86.7249C1034.18 87.0479 1033.77 87.2094 1033.37 87.2094H1031.84C1031.44 87.2094 1031.03 87.0479 1030.71 86.7249C1030.39 86.4019 1030.23 85.9981 1030.23 85.5944V59.5931C1030.23 56.1209 1029.26 53.6984 1027.24 52.2449C1025.23 50.7914 1022.73 50.0647 1019.83 50.0647C1018.37 50.0647 1017 50.3069 1015.71 50.7914C1014.42 51.2759 1013.38 51.9219 1012.41 52.7294C1011.44 53.5369 1010.71 54.5059 1010.15 55.6364C1009.67 56.7669 1009.34 57.8974 1009.34 59.1894V85.6752C1009.34 86.0789 1009.18 86.4826 1008.86 86.8056C1008.54 87.1286 1008.13 87.2901 1007.73 87.2901H1006.2C1005.8 87.2901 1005.39 87.1286 1005.07 86.8056C1004.75 86.4826 1004.59 86.0789 1004.59 85.6752V47.723C1004.59 47.3192 1004.75 46.9155 1005.07 46.5925C1005.39 46.2695 1005.8 46.108 1006.2 46.108H1007.49C1007.89 46.108 1008.3 46.2695 1008.62 46.6732C1008.86 46.9155 1009.18 47.2385 1009.42 47.5615C1009.67 47.8845 1010.07 47.9652 1010.55 47.9652Z" fill="#EEFF12"/>
<path d="M1062.07 74.128C1062.07 77.0349 1062.88 79.2959 1064.41 80.8302C1065.94 82.3644 1067.8 83.1719 1069.89 83.1719C1072.23 83.1719 1074.09 82.3644 1075.46 80.7494C1076.83 79.1344 1077.47 77.1964 1077.47 74.9355C1077.47 74.5317 1077.63 74.128 1077.96 73.805C1078.28 73.482 1078.68 73.3205 1079.09 73.3205H1080.78C1081.18 73.3205 1081.58 73.482 1081.91 73.805C1082.23 74.128 1082.39 74.5317 1082.39 74.9355C1082.39 76.7119 1082.07 78.4884 1081.42 80.0227C1080.78 81.6377 1079.89 83.0104 1078.76 84.2216C1077.63 85.4329 1076.34 86.4019 1074.81 87.0479C1073.28 87.6939 1071.59 88.0976 1069.81 88.0976C1068.04 88.0976 1066.35 87.7746 1064.73 87.0479C1063.12 86.3211 1061.83 85.4329 1060.7 84.2216C1059.57 83.0104 1058.69 81.6377 1058.04 80.0227C1057.4 78.4077 1057.07 76.7119 1057.07 74.9355V52.2449C1057.07 51.6796 1056.83 51.4374 1056.27 51.4374H1047.16C1046.75 51.4374 1046.35 51.2759 1046.03 50.9529C1045.71 50.6299 1045.55 50.2262 1045.55 49.8224V48.2882C1045.55 47.8844 1045.71 47.4807 1046.03 47.1577C1046.35 46.8347 1046.75 46.6732 1047.16 46.6732H1056.27C1056.83 46.6732 1057.07 46.4309 1057.07 45.8657V32.9458C1057.07 32.5421 1057.24 32.1383 1057.56 31.8153C1057.88 31.4923 1058.28 31.3308 1058.69 31.3308H1060.3C1060.7 31.3308 1061.11 31.4923 1061.43 31.8153C1061.75 32.1383 1061.91 32.5421 1061.91 32.9458V45.7042C1061.91 46.2694 1062.15 46.5117 1062.72 46.5117H1076.34C1076.75 46.5117 1077.15 46.6732 1077.47 46.9962C1077.8 47.3192 1077.96 47.7229 1077.96 48.1267V49.6609C1077.96 50.0647 1077.8 50.4684 1077.47 50.7914C1077.15 51.1144 1076.75 51.2759 1076.34 51.2759H1062.72C1062.15 51.2759 1061.91 51.5181 1061.91 52.0834V74.128H1062.07Z" fill="#EEFF12"/>
<path d="M1098.43 69.5253C1098.43 71.4633 1098.68 73.3205 1099.16 75.0162C1099.64 76.712 1100.37 78.1655 1101.34 79.3767C1102.3 80.5879 1103.59 81.5569 1105.05 82.2837C1106.58 83.0104 1108.35 83.3334 1110.53 83.3334C1112.14 83.3334 1113.51 83.0912 1114.8 82.6874C1116.01 82.2837 1117.14 81.6377 1118.03 80.9109C1118.91 80.1842 1119.64 79.3767 1120.28 78.4077C1120.85 77.5195 1121.33 76.5505 1121.65 75.5815C1121.82 75.0162 1122.06 74.6932 1122.46 74.451C1122.78 74.2895 1123.19 74.128 1123.59 74.128H1125.2C1125.61 74.128 1126.01 74.2895 1126.33 74.5317C1126.65 74.774 1126.73 75.1777 1126.65 75.8237C1126.41 77.6002 1125.77 79.296 1124.96 80.8302C1124.07 82.3644 1122.94 83.6564 1121.57 84.7062C1120.2 85.8367 1118.59 86.6441 1116.74 87.2901C1114.88 87.8554 1112.95 88.1784 1110.77 88.1784C1108.27 88.1784 1106.09 87.7746 1104.08 86.9671C1102.06 86.1596 1100.37 85.0292 1098.92 83.6564C1097.47 82.2837 1096.34 80.5879 1095.45 78.65C1094.56 76.712 1094.08 74.6932 1093.92 72.5938C1093.84 70.9788 1093.76 69.0408 1093.76 66.8606C1093.76 64.6803 1093.84 62.7423 1093.92 61.1273C1094.08 58.9471 1094.56 56.9284 1095.45 55.0711C1096.34 53.1332 1097.47 51.5182 1098.92 50.0647C1100.37 48.6919 1102.06 47.5615 1104.08 46.754C1106.09 45.9465 1108.35 45.5427 1110.77 45.5427C1113.11 45.5427 1115.2 45.9465 1117.22 46.8347C1119.24 47.723 1120.93 48.9342 1122.46 50.3877C1123.91 51.8412 1125.12 53.6177 1125.93 55.6364C1126.81 57.6551 1127.22 59.7546 1127.22 62.0156V67.0221C1127.22 67.4258 1127.06 67.8295 1126.73 68.1525C1126.41 68.4755 1126.01 68.637 1125.61 68.637H1099.56C1098.76 68.7178 1098.43 68.96 1098.43 69.5253ZM1098.68 63.2268C1098.68 63.7921 1098.92 64.0343 1099.48 64.0343H1121.65C1122.22 64.0343 1122.46 63.7921 1122.46 63.2268C1122.46 61.1274 1122.14 59.2701 1121.57 57.6551C1121.01 56.0401 1120.12 54.6674 1119.07 53.5369C1118.03 52.4064 1116.74 51.5989 1115.37 50.9529C1113.91 50.3877 1112.38 50.0647 1110.69 50.0647C1106.98 50.0647 1104.08 51.1952 1101.9 53.4562C1099.72 55.7979 1098.68 59.0279 1098.68 63.2268Z" fill="#EEFF12"/>
<path d="M1168.9 59.2701C1168.9 56.6053 1167.93 54.4251 1166.08 52.7294C1164.22 51.0336 1161.64 50.1454 1158.34 50.1454C1156.89 50.1454 1155.44 50.3876 1154.15 50.8721C1152.86 51.3566 1151.73 52.0834 1150.84 52.9716C1149.87 53.8598 1149.15 54.9096 1148.58 56.1208C1148.02 57.3321 1147.78 58.7048 1147.78 60.0775V85.5943C1147.78 85.9981 1147.62 86.4018 1147.29 86.7248C1146.97 87.0478 1146.57 87.2093 1146.16 87.2093H1144.63C1144.23 87.2093 1143.83 87.0478 1143.5 86.7248C1143.18 86.4018 1143.02 85.9981 1143.02 85.5943V47.7229C1143.02 47.3191 1143.18 46.9154 1143.5 46.5924C1143.83 46.2694 1144.23 46.1079 1144.63 46.1079H1145.92C1146.33 46.1079 1146.73 46.2694 1147.05 46.6732C1147.29 46.9154 1147.62 47.2384 1147.94 47.5614C1148.26 47.8844 1148.66 48.0459 1149.07 48.0459C1149.63 48.0459 1150.28 47.8844 1150.76 47.6421C1151.32 47.3999 1151.97 47.0769 1152.61 46.6732C1153.34 46.3502 1154.23 46.0272 1155.19 45.7042C1156.24 45.4619 1157.45 45.3004 1158.98 45.3004C1161.08 45.3004 1163.02 45.6234 1164.79 46.2694C1166.56 46.9154 1168.09 47.8844 1169.38 49.0956C1170.67 50.3069 1171.72 51.7604 1172.45 53.5369C1173.17 55.2326 1173.58 57.1706 1173.58 59.3508C1173.58 59.7546 1173.42 60.1583 1173.09 60.4813C1172.77 60.8043 1172.37 60.9658 1171.96 60.9658H1170.43C1170.03 60.9658 1169.63 60.8043 1169.3 60.4813C1168.98 60.1583 1168.9 59.7546 1168.9 59.2701Z" fill="#EEFF12"/>
<path d="M1197.76 74.128C1197.76 77.0349 1198.57 79.2959 1200.1 80.8302C1201.63 82.3644 1203.49 83.1719 1205.59 83.1719C1207.92 83.1719 1209.78 82.3644 1211.15 80.7494C1212.52 79.1344 1213.16 77.1964 1213.16 74.9355C1213.16 74.5317 1213.33 74.128 1213.65 73.805C1213.97 73.482 1214.37 73.3205 1214.78 73.3205H1216.47C1216.87 73.3205 1217.28 73.482 1217.6 73.805C1217.92 74.128 1218.08 74.5317 1218.08 74.9355C1218.08 76.7119 1217.76 78.4884 1217.11 80.0227C1216.47 81.6377 1215.58 83.0104 1214.45 84.2216C1213.33 85.4329 1212.04 86.4019 1210.5 87.0479C1208.97 87.6939 1207.28 88.0976 1205.5 88.0976C1203.73 88.0976 1202.04 87.7746 1200.43 87.0479C1198.81 86.3211 1197.52 85.4329 1196.39 84.2216C1195.27 83.0104 1194.38 81.6377 1193.73 80.0227C1193.09 78.4077 1192.77 76.7119 1192.77 74.9355V52.2449C1192.77 51.6796 1192.52 51.4374 1191.96 51.4374H1182.85C1182.45 51.4374 1182.04 51.2759 1181.72 50.9529C1181.4 50.6299 1181.24 50.2262 1181.24 49.8224V48.2882C1181.24 47.8844 1181.4 47.4807 1181.72 47.1577C1182.04 46.8347 1182.45 46.6732 1182.85 46.6732H1191.96C1192.52 46.6732 1192.77 46.4309 1192.77 45.8657V32.9458C1192.77 32.5421 1192.93 32.1383 1193.25 31.8153C1193.57 31.4923 1193.98 31.3308 1194.38 31.3308H1195.99C1196.39 31.3308 1196.8 31.4923 1197.12 31.8153C1197.44 32.1383 1197.6 32.5421 1197.6 32.9458V45.7042C1197.6 46.2694 1197.85 46.5117 1198.41 46.5117H1212.04C1212.44 46.5117 1212.84 46.6732 1213.16 46.9962C1213.49 47.3192 1213.65 47.7229 1213.65 48.1267V49.6609C1213.65 50.0647 1213.49 50.4684 1213.16 50.7914C1212.84 51.1144 1212.44 51.2759 1212.04 51.2759H1198.41C1197.85 51.2759 1197.6 51.5181 1197.6 52.0834V74.128H1197.76Z" fill="#EEFF12"/>
<path d="M1246.62 49.8224C1245.33 49.8224 1244.12 49.9839 1243 50.3877C1241.87 50.7107 1240.82 51.2759 1239.93 51.8412C1239.04 52.4872 1238.32 53.2139 1237.75 54.1022C1237.19 54.9904 1236.95 55.9594 1236.95 57.0899C1236.95 57.8166 1236.71 58.2204 1236.3 58.3011C1235.9 58.3819 1235.42 58.4626 1235.09 58.4626H1233.97C1232.84 58.4626 1232.35 57.8974 1232.35 56.8476C1232.35 54.9096 1232.76 53.2139 1233.56 51.8412C1234.37 50.3877 1235.5 49.2572 1236.87 48.2882C1238.24 47.3192 1239.77 46.5925 1241.46 46.108C1243.16 45.6235 1244.85 45.3812 1246.62 45.3812C1248.64 45.3812 1250.57 45.6235 1252.35 46.1887C1254.12 46.754 1255.65 47.5615 1257.02 48.6919C1258.39 49.8224 1259.44 51.1952 1260.25 52.9717C1261.06 54.6674 1261.46 56.6861 1261.46 59.0279V85.7559C1261.46 86.1596 1261.3 86.5634 1260.97 86.8864C1260.65 87.2094 1260.25 87.3709 1259.85 87.3709H1259.12C1258.56 87.3709 1258.15 87.2094 1257.99 86.8056C1257.75 86.4826 1257.59 86.0789 1257.43 85.6751C1257.27 85.2714 1256.94 85.0292 1256.38 85.0292C1255.98 85.0292 1255.49 85.1907 1254.93 85.5137C1254.36 85.8367 1253.56 86.2404 1252.67 86.5634C1251.78 86.9671 1250.74 87.2901 1249.61 87.6131C1248.4 87.9361 1247.11 88.0976 1245.58 88.0976C1243.08 88.0976 1240.82 87.7746 1238.96 87.0479C1237.11 86.3211 1235.5 85.3521 1234.29 84.1409C1233.08 82.9297 1232.11 81.5569 1231.55 79.9419C1230.98 78.327 1230.66 76.712 1230.66 74.9355C1230.66 73.2398 1230.98 71.6248 1231.55 70.1713C1232.11 68.7178 1233 67.4258 1234.21 66.3761C1235.42 65.3263 1236.79 64.4381 1238.48 63.8728C1240.17 63.3076 1242.11 62.9846 1244.2 62.9846H1255.98C1256.54 62.9846 1256.78 62.7423 1256.78 62.1771V58.9471C1256.78 56.2824 1255.81 54.1022 1253.96 52.4064C1251.94 50.6299 1249.53 49.8224 1246.62 49.8224ZM1243.96 67.4258C1241.62 67.4258 1239.61 68.0718 1237.92 69.283C1236.14 70.575 1235.26 72.3515 1235.26 74.774C1235.26 76.2275 1235.5 77.5195 1236.06 78.5692C1236.55 79.619 1237.27 80.5072 1238.24 81.2339C1239.13 81.9607 1240.17 82.4452 1241.3 82.8489C1242.43 83.1719 1243.72 83.4142 1245.01 83.4142C1248.8 83.4142 1251.7 82.5259 1253.8 80.7494C1255.9 78.973 1256.86 76.4697 1256.86 73.0783V68.1525C1256.86 67.5873 1256.62 67.345 1256.06 67.345H1243.96V67.4258Z" fill="#EEFF12"/>
<path d="M1279.36 51.0336C1278.95 51.0336 1278.55 50.8721 1278.23 50.5492C1277.91 50.2262 1277.74 49.8224 1277.74 49.4187V47.8037C1277.74 47.3999 1277.91 46.9962 1278.23 46.6732C1278.55 46.3502 1278.95 46.1887 1279.36 46.1887H1293.79C1294.19 46.1887 1294.6 46.3502 1294.92 46.6732C1295.24 46.9962 1295.4 47.3999 1295.4 47.8037V81.5569C1295.4 82.1221 1295.64 82.3644 1296.21 82.3644H1307.01C1307.41 82.3644 1307.82 82.5259 1308.14 82.8489C1308.46 83.1719 1308.62 83.5756 1308.62 83.9794V85.5944C1308.62 85.9981 1308.46 86.4019 1308.14 86.7249C1307.82 87.0479 1307.41 87.2094 1307.01 87.2094H1278.55C1278.15 87.2094 1277.74 87.0479 1277.42 86.7249C1277.1 86.4019 1276.94 85.9981 1276.94 85.5944V83.9794C1276.94 83.5756 1277.1 83.1719 1277.42 82.8489C1277.74 82.5259 1278.15 82.3644 1278.55 82.3644H1289.68C1290.24 82.3644 1290.48 82.1221 1290.48 81.5569V51.8411C1290.48 51.2759 1290.24 51.0336 1289.68 51.0336H1279.36ZM1295.89 34.7223C1295.89 35.6105 1295.48 36.0143 1294.6 36.0143H1290.32C1289.44 36.0143 1289.03 35.6105 1289.03 34.7223V30.3618C1289.03 30.0388 1289.19 29.7158 1289.44 29.4736C1289.68 29.2313 1290 29.0698 1290.4 29.0698H1294.68C1295.08 29.0698 1295.4 29.2313 1295.64 29.4736C1295.89 29.7158 1296.05 30.0388 1296.05 30.3618V34.7223H1295.89Z" fill="#EEFF12"/>
<path d="M1327.25 47.9652C1327.81 47.9652 1328.38 47.8037 1328.94 47.5615C1329.43 47.3192 1330.07 46.9962 1330.72 46.5925C1331.36 46.2695 1332.25 45.9465 1333.21 45.6235C1334.18 45.3812 1335.47 45.2197 1337 45.2197C1339.18 45.2197 1341.12 45.5427 1342.89 46.108C1344.66 46.6732 1346.28 47.6422 1347.57 48.8534C1348.86 50.0647 1349.9 51.5989 1350.63 53.3754C1351.36 55.1519 1351.68 57.2514 1351.68 59.5931V85.5944C1351.68 85.9981 1351.52 86.4019 1351.19 86.7249C1350.87 87.0479 1350.47 87.2094 1350.07 87.2094H1348.53C1348.13 87.2094 1347.73 87.0479 1347.4 86.7249C1347.08 86.4019 1346.92 85.9981 1346.92 85.5944V59.5931C1346.92 56.1209 1345.95 53.6984 1343.94 52.2449C1341.92 50.7914 1339.42 50.0647 1336.52 50.0647C1335.07 50.0647 1333.7 50.3069 1332.41 50.7914C1331.12 51.2759 1330.07 51.9219 1329.1 52.7294C1328.14 53.5369 1327.41 54.5059 1326.85 55.6364C1326.36 56.7669 1326.04 57.8974 1326.04 59.1894V85.6752C1326.04 86.0789 1325.88 86.4826 1325.56 86.8056C1325.23 87.1286 1324.83 87.2901 1324.43 87.2901H1322.89C1322.49 87.2901 1322.09 87.1286 1321.77 86.8056C1321.44 86.4826 1321.28 86.0789 1321.28 85.6752V47.723C1321.28 47.3192 1321.44 46.9155 1321.77 46.5925C1322.09 46.2695 1322.49 46.108 1322.89 46.108H1324.18C1324.59 46.108 1324.99 46.2695 1325.31 46.6732C1325.56 46.9155 1325.88 47.2385 1326.12 47.5615C1326.36 47.8845 1326.76 47.9652 1327.25 47.9652Z" fill="#EEFF12"/>
<path d="M1382.72 48.2882C1383.2 47.723 1384.01 47.077 1385.06 46.3502C1386.1 45.7042 1387.72 45.3005 1389.81 45.3005C1391.26 45.3005 1392.47 45.5427 1393.52 46.108C1394.57 46.6732 1395.38 47.4 1396.1 48.369C1396.75 49.3379 1397.23 50.3877 1397.55 51.5182C1397.88 52.7294 1398.04 53.9407 1398.04 55.1519V85.5944C1398.04 85.9981 1397.88 86.4019 1397.55 86.7249C1397.23 87.0479 1396.83 87.2094 1396.42 87.2094H1394.89C1394.49 87.2094 1394.09 87.0479 1393.76 86.7249C1393.44 86.4019 1393.28 85.9981 1393.28 85.5944V54.1022C1393.28 52.6487 1392.8 51.6797 1391.75 51.0337C1390.7 50.4684 1389.65 50.1454 1388.6 50.1454C1387.48 50.1454 1386.51 50.4684 1385.62 51.1952C1384.73 51.9219 1384.25 52.8909 1384.25 54.1022V85.6752C1384.25 86.0789 1384.09 86.4826 1383.77 86.8056C1383.44 87.1286 1383.04 87.2901 1382.64 87.2901H1381.11C1380.7 87.2901 1380.3 87.1286 1379.98 86.8056C1379.65 86.4826 1379.49 86.0789 1379.49 85.6752V54.1022C1379.49 52.8909 1379.01 51.9219 1378.04 51.1952C1377.07 50.4684 1376.03 50.1454 1374.98 50.1454C1373.85 50.1454 1372.8 50.4684 1371.83 51.1952C1370.87 51.9219 1370.38 52.8909 1370.38 54.1022V85.6752C1370.38 86.0789 1370.22 86.4826 1369.9 86.8056C1369.58 87.1286 1369.17 87.2901 1368.77 87.2901H1367.24C1366.84 87.2901 1366.43 87.1286 1366.11 86.8056C1365.79 86.4826 1365.63 86.0789 1365.63 85.6752V47.723C1365.63 47.3192 1365.79 46.9155 1366.11 46.5925C1366.43 46.2695 1366.84 46.108 1367.24 46.108H1367.72C1368.13 46.108 1368.53 46.2695 1368.85 46.6732C1369.01 46.9155 1369.17 47.077 1369.33 47.1577C1369.5 47.2385 1369.66 47.3192 1369.98 47.3192C1370.22 47.3192 1370.46 47.2385 1370.71 46.9962C1370.95 46.754 1371.35 46.5117 1371.75 46.2695C1372.16 46.0272 1372.72 45.785 1373.29 45.5427C1373.93 45.3005 1374.74 45.2197 1375.7 45.2197C1377.16 45.2197 1378.36 45.5427 1379.25 46.108C1380.14 46.6732 1380.86 47.4 1381.43 48.2075C1381.67 48.5305 1381.91 48.6919 1382.23 48.6919C1382.56 48.6919 1382.48 48.6112 1382.72 48.2882Z" fill="#EEFF12"/>
<path d="M1415.13 69.5253C1415.13 71.4633 1415.37 73.3205 1415.86 75.0162C1416.34 76.712 1417.07 78.1655 1418.03 79.3767C1419 80.5879 1420.29 81.5569 1421.74 82.2837C1423.27 83.0104 1425.05 83.3334 1427.22 83.3334C1428.84 83.3334 1430.21 83.0912 1431.5 82.6874C1432.71 82.2837 1433.83 81.6377 1434.72 80.9109C1435.61 80.1842 1436.33 79.3767 1436.98 78.4077C1437.54 77.5195 1438.03 76.5505 1438.35 75.5815C1438.51 75.0162 1438.75 74.6932 1439.16 74.451C1439.48 74.2895 1439.88 74.128 1440.28 74.128H1441.9C1442.3 74.128 1442.7 74.2895 1443.03 74.5317C1443.35 74.774 1443.43 75.1777 1443.35 75.8237C1443.11 77.6002 1442.46 79.296 1441.66 80.8302C1440.77 82.3644 1439.64 83.6564 1438.27 84.7062C1436.9 85.8367 1435.29 86.6441 1433.43 87.2901C1431.58 87.8554 1429.64 88.1784 1427.47 88.1784C1424.97 88.1784 1422.79 87.7746 1420.77 86.9671C1418.76 86.1596 1417.07 85.0292 1415.61 83.6564C1414.16 82.2837 1413.03 80.5879 1412.15 78.65C1411.26 76.712 1410.78 74.6932 1410.61 72.5938C1410.53 70.9788 1410.45 69.0408 1410.45 66.8606C1410.45 64.6803 1410.53 62.7423 1410.61 61.1273C1410.78 58.9471 1411.26 56.9284 1412.15 55.0711C1413.03 53.1332 1414.16 51.5182 1415.61 50.0647C1417.07 48.6919 1418.76 47.5615 1420.77 46.754C1422.79 45.9465 1425.05 45.5427 1427.47 45.5427C1429.8 45.5427 1431.9 45.9465 1433.92 46.8347C1435.93 47.723 1437.62 48.9342 1439.16 50.3877C1440.61 51.8412 1441.82 53.6177 1442.62 55.6364C1443.51 57.6551 1443.91 59.7546 1443.91 62.0156V67.0221C1443.91 67.4258 1443.75 67.8295 1443.43 68.1525C1443.11 68.4755 1442.7 68.637 1442.3 68.637H1416.26C1415.45 68.7178 1415.13 68.96 1415.13 69.5253ZM1415.29 63.2268C1415.29 63.7921 1415.53 64.0343 1416.1 64.0343H1438.27C1438.83 64.0343 1439.08 63.7921 1439.08 63.2268C1439.08 61.1274 1438.75 59.2701 1438.19 57.6551C1437.62 56.0401 1436.74 54.6674 1435.69 53.5369C1434.64 52.4064 1433.35 51.5989 1431.98 50.9529C1430.53 50.3877 1429 50.0647 1427.3 50.0647C1423.6 50.0647 1420.69 51.1952 1418.52 53.4562C1416.42 55.7979 1415.29 59.0279 1415.29 63.2268Z" fill="#EEFF12"/>
<path d="M1462.94 47.9652C1463.51 47.9652 1464.07 47.8037 1464.63 47.5615C1465.12 47.3192 1465.76 46.9962 1466.41 46.5925C1467.05 46.2695 1467.94 45.9465 1468.91 45.6235C1469.87 45.3812 1471.16 45.2197 1472.7 45.2197C1474.87 45.2197 1476.81 45.5427 1478.58 46.108C1480.36 46.6732 1481.97 47.6422 1483.26 48.8534C1484.55 50.0647 1485.6 51.5989 1486.32 53.3754C1487.05 55.1519 1487.37 57.2514 1487.37 59.5931V85.5944C1487.37 85.9981 1487.21 86.4019 1486.89 86.7249C1486.56 87.0479 1486.16 87.2094 1485.76 87.2094H1484.23C1483.82 87.2094 1483.42 87.0479 1483.1 86.7249C1482.77 86.4019 1482.61 85.9981 1482.61 85.5944V59.5931C1482.61 56.1209 1481.65 53.6984 1479.63 52.2449C1477.61 50.7914 1475.12 50.0647 1472.21 50.0647C1470.76 50.0647 1469.39 50.3069 1468.1 50.7914C1466.81 51.2759 1465.76 51.9219 1464.8 52.7294C1463.83 53.5369 1463.1 54.5059 1462.54 55.6364C1462.05 56.7669 1461.73 57.8974 1461.73 59.1894V85.6752C1461.73 86.0789 1461.57 86.4826 1461.25 86.8056C1460.93 87.1286 1460.52 87.2901 1460.12 87.2901H1458.59C1458.18 87.2901 1457.78 87.1286 1457.46 86.8056C1457.14 86.4826 1456.97 86.0789 1456.97 85.6752V47.723C1456.97 47.3192 1457.14 46.9155 1457.46 46.5925C1457.78 46.2695 1458.18 46.108 1458.59 46.108H1459.88C1460.28 46.108 1460.68 46.2695 1461.01 46.6732C1461.25 46.9155 1461.57 47.2385 1461.81 47.5615C1462.05 47.8845 1462.46 47.9652 1462.94 47.9652Z" fill="#EEFF12"/>
<path d="M1514.46 74.128C1514.46 77.0349 1515.27 79.2959 1516.8 80.8302C1518.33 82.3644 1520.18 83.1719 1522.28 83.1719C1524.62 83.1719 1526.47 82.3644 1527.84 80.7494C1529.21 79.1344 1529.86 77.1964 1529.86 74.9355C1529.86 74.5317 1530.02 74.128 1530.34 73.805C1530.67 73.482 1531.07 73.3205 1531.47 73.3205H1533.16C1533.57 73.3205 1533.97 73.482 1534.29 73.805C1534.62 74.128 1534.78 74.5317 1534.78 74.9355C1534.78 76.7119 1534.46 78.4884 1533.81 80.0227C1533.17 81.6377 1532.28 83.0104 1531.15 84.2216C1530.02 85.4329 1528.73 86.4019 1527.2 87.0479C1525.67 87.6939 1523.97 88.0976 1522.2 88.0976C1520.43 88.0976 1518.73 87.7746 1517.12 87.0479C1515.51 86.3211 1514.22 85.4329 1513.09 84.2216C1511.96 83.0104 1511.07 81.6377 1510.43 80.0227C1509.78 78.4077 1509.46 76.7119 1509.46 74.9355V52.2449C1509.46 51.6796 1509.22 51.4374 1508.65 51.4374H1499.54C1499.14 51.4374 1498.74 51.2759 1498.42 50.9529C1498.09 50.6299 1497.93 50.2262 1497.93 49.8224V48.2882C1497.93 47.8844 1498.09 47.4807 1498.42 47.1577C1498.74 46.8347 1499.14 46.6732 1499.54 46.6732H1508.65C1509.22 46.6732 1509.46 46.4309 1509.46 45.8657V32.9458C1509.46 32.5421 1509.62 32.1383 1509.95 31.8153C1510.27 31.4923 1510.67 31.3308 1511.07 31.3308H1512.69C1513.09 31.3308 1513.49 31.4923 1513.81 31.8153C1514.14 32.1383 1514.3 32.5421 1514.3 32.9458V45.7042C1514.3 46.2694 1514.54 46.5117 1515.1 46.5117H1528.73C1529.13 46.5117 1529.54 46.6732 1529.86 46.9962C1530.18 47.3192 1530.34 47.7229 1530.34 48.1267V49.6609C1530.34 50.0647 1530.18 50.4684 1529.86 50.7914C1529.54 51.1144 1529.13 51.2759 1528.73 51.2759H1515.1C1514.54 51.2759 1514.3 51.5181 1514.3 52.0834V74.128H1514.46Z" fill="#EEFF12"/>
</svg>
