
<svg width="1316" height="57" viewBox="0 0 1316 57" fill="none" xmlns="http://www.w3.org/2000/svg">
<path d="M5.84413 54.44C5.84413 54.856 5.68813 55.22 5.37613 55.532C5.06413 55.844 4.70013 56 4.28413 56H2.41213C1.99613 56 1.63213 55.844 1.32013 55.532C1.00813 55.22 0.852133 54.856 0.852133 54.44V2.96C0.852133 2.544 1.00813 2.18 1.32013 1.868C1.63213 1.556 1.99613 1.4 2.41213 1.4H28.3861C28.8021 1.4 29.1661 1.556 29.4781 1.868C29.7901 2.18 29.9461 2.544 29.9461 2.96V4.832C29.9461 5.248 29.7901 5.612 29.4781 5.924C29.1661 6.236 28.8021 6.392 28.3861 6.392H6.62413C6.10413 6.392 5.84413 6.652 5.84413 7.172V24.8C5.84413 25.32 6.10413 25.58 6.62413 25.58H27.5281C27.9441 25.58 28.3081 25.736 28.6201 26.048C28.9321 26.36 29.0881 26.724 29.0881 27.14V29.012C29.0881 29.428 28.9321 29.792 28.6201 30.104C28.3081 30.416 27.9441 30.572 27.5281 30.572H6.62413C6.10413 30.572 5.84413 30.832 5.84413 31.352V54.44ZM62.0669 6.236C62.0669 7.068 61.6509 7.484 60.8189 7.484H56.7629C55.9309 7.484 55.5149 7.068 55.5149 6.236V2.102C55.5149 1.79 55.6189 1.504 55.8269 1.244C56.0869 0.983999 56.3989 0.853999 56.7629 0.853999H60.8189C61.1829 0.853999 61.4689 0.983999 61.6769 1.244C61.9369 1.504 62.0669 1.79 62.0669 2.102V6.236ZM46.3889 21.68C45.9729 21.68 45.6089 21.524 45.2969 21.212C44.9849 20.9 44.8289 20.536 44.8289 20.12V18.56C44.8289 18.144 44.9849 17.78 45.2969 17.468C45.6089 17.156 45.9729 17 46.3889 17H60.0389C60.4549 17 60.8189 17.156 61.1309 17.468C61.4429 17.78 61.5989 18.144 61.5989 18.56V50.54C61.5989 51.06 61.8589 51.32 62.3789 51.32H72.5969C73.0129 51.32 73.3769 51.476 73.6889 51.788C74.0009 52.1 74.1569 52.464 74.1569 52.88V54.44C74.1569 54.856 74.0009 55.22 73.6889 55.532C73.3769 55.844 73.0129 56 72.5969 56H45.6089C45.1929 56 44.8289 55.844 44.5169 55.532C44.2049 55.22 44.0489 54.856 44.0489 54.44V52.88C44.0489 52.464 44.2049 52.1 44.5169 51.788C44.8289 51.476 45.1929 51.32 45.6089 51.32H56.1389C56.6589 51.32 56.9189 51.06 56.9189 50.54V22.46C56.9189 21.94 56.6589 21.68 56.1389 21.68H46.3889ZM91.7697 18.794C92.3417 18.794 92.8617 18.664 93.3297 18.404C93.8497 18.144 94.4217 17.858 95.0457 17.546C95.7217 17.182 96.5277 16.87 97.4637 16.61C98.3997 16.35 99.5957 16.22 101.052 16.22C103.08 16.22 104.952 16.506 106.668 17.078C108.384 17.65 109.866 18.508 111.114 19.652C112.362 20.796 113.324 22.226 114 23.942C114.676 25.606 115.014 27.556 115.014 29.792V54.44C115.014 54.856 114.858 55.22 114.546 55.532C114.234 55.844 113.87 56 113.454 56H111.972C111.556 56 111.192 55.844 110.88 55.532C110.568 55.22 110.412 54.856 110.412 54.44V29.792C110.412 26.516 109.45 24.202 107.526 22.85C105.654 21.498 103.314 20.822 100.506 20.822C99.1017 20.822 97.8017 21.056 96.6057 21.524C95.4097 21.94 94.3437 22.538 93.4077 23.318C92.5237 24.098 91.8217 25.008 91.3017 26.048C90.8337 27.088 90.5997 28.206 90.5997 29.402V54.44C90.5997 54.856 90.4437 55.22 90.1317 55.532C89.8197 55.844 89.4557 56 89.0397 56H87.5577C87.1417 56 86.7777 55.844 86.4657 55.532C86.1537 55.22 85.9977 54.856 85.9977 54.44V18.56C85.9977 18.144 86.1537 17.78 86.4657 17.468C86.7777 17.156 87.1417 17 87.5577 17H88.8057C89.1697 17 89.5337 17.182 89.8977 17.546C90.1577 17.806 90.4177 18.092 90.6777 18.404C90.9377 18.664 91.3017 18.794 91.7697 18.794ZM127.088 6.392C126.672 6.392 126.308 6.236 125.996 5.924C125.684 5.612 125.528 5.248 125.528 4.832V2.96C125.528 2.544 125.684 2.18 125.996 1.868C126.308 1.556 126.672 1.4 127.088 1.4H159.848C160.264 1.4 160.628 1.556 160.94 1.868C161.252 2.18 161.408 2.544 161.408 2.96V4.832C161.408 5.248 161.252 5.612 160.94 5.924C160.628 6.236 160.264 6.392 159.848 6.392H146.822C146.302 6.392 146.042 6.652 146.042 7.172V54.44C146.042 54.856 145.886 55.22 145.574 55.532C145.262 55.844 144.898 56 144.482 56H142.532C142.116 56 141.752 55.844 141.44 55.532C141.128 55.22 140.972 54.856 140.972 54.44V7.172C140.972 6.652 140.712 6.392 140.192 6.392H127.088ZM175.121 39.152C175.121 41.024 175.329 42.766 175.745 44.378C176.213 45.938 176.915 47.316 177.851 48.512C178.787 49.656 179.957 50.566 181.361 51.242C182.817 51.866 184.559 52.178 186.587 52.178C188.095 52.178 189.421 51.97 190.565 51.554C191.761 51.138 192.775 50.592 193.607 49.916C194.491 49.188 195.193 48.408 195.713 47.576C196.285 46.692 196.727 45.782 197.039 44.846C197.195 44.326 197.429 43.988 197.741 43.832C198.105 43.624 198.469 43.52 198.833 43.52H200.393C200.809 43.52 201.147 43.65 201.407 43.91C201.719 44.118 201.823 44.508 201.719 45.08C201.459 46.796 200.913 48.382 200.081 49.838C199.249 51.242 198.157 52.464 196.805 53.504C195.505 54.544 193.971 55.35 192.203 55.922C190.487 56.494 188.615 56.78 186.587 56.78C184.247 56.78 182.115 56.39 180.191 55.61C178.319 54.83 176.681 53.79 175.277 52.49C173.925 51.138 172.833 49.552 172.001 47.732C171.221 45.912 170.753 43.988 170.597 41.96C170.493 40.4 170.441 38.58 170.441 36.5C170.441 34.42 170.493 32.6 170.597 31.04C170.753 29.012 171.221 27.088 172.001 25.268C172.833 23.448 173.925 21.888 175.277 20.588C176.681 19.236 178.319 18.17 180.191 17.39C182.115 16.61 184.247 16.22 186.587 16.22C188.771 16.22 190.799 16.636 192.671 17.468C194.595 18.3 196.259 19.418 197.663 20.822C199.067 22.226 200.159 23.89 200.939 25.814C201.771 27.686 202.187 29.688 202.187 31.82V36.812C202.187 37.228 202.031 37.592 201.719 37.904C201.407 38.216 201.043 38.372 200.627 38.372H175.901C175.381 38.372 175.121 38.632 175.121 39.152ZM175.277 33.224C175.277 33.744 175.537 34.004 176.057 34.004H197.117C197.637 34.004 197.897 33.744 197.897 33.224C197.897 31.248 197.611 29.506 197.039 27.998C196.467 26.438 195.661 25.138 194.621 24.098C193.633 23.006 192.463 22.2 191.111 21.68C189.759 21.108 188.277 20.822 186.665 20.822C183.181 20.822 180.399 21.888 178.319 24.02C176.291 26.152 175.277 29.22 175.277 33.224ZM229.784 52.178C231.5 52.178 232.982 51.918 234.23 51.398C235.478 50.826 236.518 50.124 237.35 49.292C238.182 48.408 238.78 47.446 239.144 46.406C239.56 45.366 239.768 44.326 239.768 43.286C239.768 42.766 239.924 42.428 240.236 42.272C240.548 42.064 240.886 41.96 241.25 41.96H242.888C243.304 41.96 243.668 42.116 243.98 42.428C244.292 42.74 244.448 43.104 244.448 43.52C244.448 45.288 244.084 46.978 243.356 48.59C242.68 50.15 241.692 51.554 240.392 52.802C239.092 53.998 237.532 54.96 235.712 55.688C233.944 56.416 231.968 56.78 229.784 56.78C227.444 56.78 225.338 56.39 223.466 55.61C221.594 54.83 219.982 53.79 218.63 52.49C217.278 51.138 216.212 49.552 215.432 47.732C214.652 45.912 214.184 43.988 214.028 41.96C213.924 40.4 213.872 38.58 213.872 36.5C213.872 34.42 213.924 32.6 214.028 31.04C214.184 29.012 214.652 27.088 215.432 25.268C216.212 23.448 217.278 21.888 218.63 20.588C219.982 19.236 221.594 18.17 223.466 17.39C225.338 16.61 227.444 16.22 229.784 16.22C231.968 16.22 233.944 16.584 235.712 17.312C237.532 18.04 239.092 19.028 240.392 20.276C241.692 21.472 242.68 22.876 243.356 24.488C244.084 26.048 244.448 27.712 244.448 29.48C244.448 29.896 244.318 30.26 244.058 30.572C243.85 30.884 243.538 31.04 243.122 31.04H241.328C240.964 31.04 240.626 30.936 240.314 30.728C240.002 30.52 239.846 30.208 239.846 29.792C239.846 28.648 239.612 27.53 239.144 26.438C238.728 25.346 238.078 24.384 237.194 23.552C236.362 22.72 235.322 22.07 234.074 21.602C232.826 21.082 231.396 20.822 229.784 20.822C227.808 20.822 226.144 21.16 224.792 21.836C223.44 22.512 222.322 23.37 221.438 24.41C220.606 25.398 219.982 26.49 219.566 27.686C219.15 28.882 218.89 30 218.786 31.04C218.63 32.652 218.552 34.472 218.552 36.5C218.552 38.528 218.63 40.348 218.786 41.96C218.89 43 219.15 44.118 219.566 45.314C219.982 46.51 220.606 47.628 221.438 48.668C222.322 49.656 223.44 50.488 224.792 51.164C226.144 51.84 227.808 52.178 229.784 52.178ZM259.487 56C259.071 56 258.707 55.844 258.395 55.532C258.083 55.22 257.927 54.856 257.927 54.44V2.414C257.927 1.998 258.083 1.634 258.395 1.322C258.707 1.01 259.071 0.853999 259.487 0.853999H260.969C261.385 0.853999 261.749 1.01 262.061 1.322C262.373 1.634 262.529 1.998 262.529 2.414V16.532C262.529 16.896 262.659 17.26 262.919 17.624C263.231 17.988 263.673 18.17 264.245 18.17C264.609 18.17 265.025 18.066 265.493 17.858C266.013 17.65 266.611 17.442 267.287 17.234C267.963 16.974 268.717 16.74 269.549 16.532C270.433 16.324 271.447 16.22 272.591 16.22C274.619 16.22 276.465 16.584 278.129 17.312C279.845 18.04 281.275 19.028 282.419 20.276C283.615 21.524 284.525 22.98 285.149 24.644C285.825 26.256 286.163 27.972 286.163 29.792V54.44C286.163 54.856 286.007 55.22 285.695 55.532C285.383 55.844 285.019 56 284.603 56H283.121C282.705 56 282.341 55.844 282.029 55.532C281.717 55.22 281.561 54.856 281.561 54.44V29.792C281.561 27.14 280.677 24.982 278.909 23.318C277.141 21.654 274.853 20.822 272.045 20.822C270.641 20.822 269.341 21.056 268.145 21.524C267.001 21.94 266.013 22.538 265.181 23.318C264.349 24.098 263.699 25.008 263.231 26.048C262.763 27.088 262.529 28.206 262.529 29.402V54.44C262.529 54.856 262.373 55.22 262.061 55.532C261.749 55.844 261.385 56 260.969 56H259.487ZM391.807 55.766C391.443 56.546 390.897 56.936 390.169 56.936H388.531C388.011 56.936 387.595 56.702 387.283 56.234C387.023 55.818 387.023 55.324 387.283 54.752L409.591 1.79C409.851 1.01 410.345 0.619997 411.073 0.619997H412.711C413.231 0.619997 413.621 0.853997 413.881 1.322C414.193 1.738 414.219 2.232 413.959 2.804L391.807 55.766ZM475.471 24.8C475.471 25.32 475.731 25.58 476.251 25.58H496.687C497.207 25.58 497.467 25.32 497.467 24.8V2.96C497.467 2.544 497.623 2.18 497.935 1.868C498.247 1.556 498.611 1.4 499.027 1.4H500.899C501.315 1.4 501.679 1.556 501.991 1.868C502.303 2.18 502.459 2.544 502.459 2.96V54.44C502.459 54.856 502.303 55.22 501.991 55.532C501.679 55.844 501.315 56 500.899 56H499.027C498.611 56 498.247 55.844 497.935 55.532C497.623 55.22 497.467 54.856 497.467 54.44V31.352C497.467 30.832 497.207 30.572 496.687 30.572H476.251C475.731 30.572 475.471 30.832 475.471 31.352V54.44C475.471 54.856 475.315 55.22 475.003 55.532C474.691 55.844 474.327 56 473.911 56H472.039C471.623 56 471.259 55.844 470.947 55.532C470.635 55.22 470.479 54.856 470.479 54.44V2.96C470.479 2.544 470.635 2.18 470.947 1.868C471.259 1.556 471.623 1.4 472.039 1.4H473.911C474.327 1.4 474.691 1.556 475.003 1.868C475.315 2.18 475.471 2.544 475.471 2.96V24.8ZM518.199 39.152C518.199 41.024 518.407 42.766 518.823 44.378C519.291 45.938 519.993 47.316 520.929 48.512C521.865 49.656 523.035 50.566 524.439 51.242C525.895 51.866 527.637 52.178 529.665 52.178C531.173 52.178 532.499 51.97 533.643 51.554C534.839 51.138 535.853 50.592 536.685 49.916C537.569 49.188 538.271 48.408 538.791 47.576C539.363 46.692 539.805 45.782 540.117 44.846C540.273 44.326 540.507 43.988 540.819 43.832C541.183 43.624 541.547 43.52 541.911 43.52H543.471C543.887 43.52 544.225 43.65 544.485 43.91C544.797 44.118 544.901 44.508 544.797 45.08C544.537 46.796 543.991 48.382 543.159 49.838C542.327 51.242 541.235 52.464 539.883 53.504C538.583 54.544 537.049 55.35 535.281 55.922C533.565 56.494 531.693 56.78 529.665 56.78C527.325 56.78 525.193 56.39 523.269 55.61C521.397 54.83 519.759 53.79 518.355 52.49C517.003 51.138 515.911 49.552 515.079 47.732C514.299 45.912 513.831 43.988 513.675 41.96C513.571 40.4 513.519 38.58 513.519 36.5C513.519 34.42 513.571 32.6 513.675 31.04C513.831 29.012 514.299 27.088 515.079 25.268C515.911 23.448 517.003 21.888 518.355 20.588C519.759 19.236 521.397 18.17 523.269 17.39C525.193 16.61 527.325 16.22 529.665 16.22C531.849 16.22 533.877 16.636 535.749 17.468C537.673 18.3 539.337 19.418 540.741 20.822C542.145 22.226 543.237 23.89 544.017 25.814C544.849 27.686 545.265 29.688 545.265 31.82V36.812C545.265 37.228 545.109 37.592 544.797 37.904C544.485 38.216 544.121 38.372 543.705 38.372H518.979C518.459 38.372 518.199 38.632 518.199 39.152ZM518.355 33.224C518.355 33.744 518.615 34.004 519.135 34.004H540.195C540.715 34.004 540.975 33.744 540.975 33.224C540.975 31.248 540.689 29.506 540.117 27.998C539.545 26.438 538.739 25.138 537.699 24.098C536.711 23.006 535.541 22.2 534.189 21.68C532.837 21.108 531.355 20.822 529.743 20.822C526.259 20.822 523.477 21.888 521.397 24.02C519.369 26.152 518.355 29.22 518.355 33.224ZM570.366 37.202C568.182 37.202 566.258 37.8 564.594 38.996C562.93 40.192 562.098 41.934 562.098 44.222C562.098 45.626 562.332 46.848 562.8 47.888C563.32 48.876 563.996 49.708 564.828 50.384C565.712 51.06 566.7 51.58 567.792 51.944C568.884 52.256 570.054 52.412 571.302 52.412C574.89 52.412 577.646 51.58 579.57 49.916C581.546 48.252 582.534 45.834 582.534 42.662V37.982C582.534 37.462 582.274 37.202 581.754 37.202H570.366ZM572.862 20.51C571.666 20.51 570.522 20.692 569.43 21.056C568.338 21.368 567.376 21.836 566.544 22.46C565.712 23.032 565.036 23.734 564.516 24.566C563.996 25.398 563.736 26.334 563.736 27.374C563.736 28.05 563.528 28.44 563.112 28.544C562.696 28.648 562.306 28.7 561.942 28.7H560.85C559.81 28.7 559.29 28.18 559.29 27.14C559.29 25.32 559.68 23.734 560.46 22.382C561.24 21.03 562.28 19.912 563.58 19.028C564.88 18.092 566.336 17.39 567.948 16.922C569.56 16.454 571.198 16.22 572.862 16.22C574.786 16.22 576.58 16.48 578.244 17C579.96 17.52 581.442 18.326 582.69 19.418C583.99 20.458 585.004 21.784 585.732 23.396C586.512 25.008 586.902 26.932 586.902 29.168V54.44C586.902 54.856 586.746 55.22 586.434 55.532C586.122 55.844 585.758 56 585.342 56H584.64C584.12 56 583.756 55.818 583.548 55.454C583.34 55.142 583.158 54.804 583.002 54.44C582.846 54.024 582.508 53.816 581.988 53.816C581.624 53.816 581.156 53.972 580.584 54.284C580.012 54.596 579.31 54.934 578.478 55.298C577.646 55.662 576.658 56 575.514 56.312C574.422 56.624 573.148 56.78 571.692 56.78C569.3 56.78 567.194 56.442 565.374 55.766C563.606 55.09 562.124 54.18 560.928 53.036C559.784 51.892 558.926 50.566 558.354 49.058C557.782 47.55 557.496 45.964 557.496 44.3C557.496 42.688 557.782 41.18 558.354 39.776C558.926 38.372 559.758 37.176 560.85 36.188C561.942 35.148 563.294 34.342 564.906 33.77C566.518 33.198 568.338 32.912 570.366 32.912H581.52C582.04 32.912 582.3 32.652 582.3 32.132V29.09C582.3 26.542 581.416 24.488 579.648 22.928C577.88 21.316 575.618 20.51 572.862 20.51ZM602.643 5.534C602.227 5.534 601.863 5.378 601.551 5.066C601.239 4.754 601.083 4.39 601.083 3.974V2.414C601.083 1.998 601.239 1.634 601.551 1.322C601.863 1.01 602.227 0.853999 602.643 0.853999H615.981C616.397 0.853999 616.761 1.01 617.073 1.322C617.385 1.634 617.541 1.998 617.541 2.414V50.54C617.541 51.06 617.801 51.32 618.321 51.32H628.227C628.643 51.32 629.007 51.476 629.319 51.788C629.631 52.1 629.787 52.464 629.787 52.88V54.44C629.787 54.856 629.631 55.22 629.319 55.532C629.007 55.844 628.643 56 628.227 56H601.083C600.667 56 600.303 55.844 599.991 55.532C599.679 55.22 599.523 54.856 599.523 54.44V52.88C599.523 52.464 599.679 52.1 599.991 51.788C600.303 51.476 600.667 51.32 601.083 51.32H611.925C612.185 51.32 612.393 51.268 612.549 51.164C612.757 51.008 612.861 50.8 612.861 50.54V6.314C612.861 5.794 612.601 5.534 612.081 5.534H602.643ZM655.2 43.52C655.2 46.276 655.928 48.408 657.384 49.916C658.892 51.372 660.634 52.1 662.61 52.1C664.846 52.1 666.588 51.346 667.836 49.838C669.136 48.33 669.786 46.484 669.786 44.3C669.786 43.884 669.942 43.52 670.254 43.208C670.566 42.896 670.93 42.74 671.346 42.74H672.984C673.4 42.74 673.764 42.896 674.076 43.208C674.388 43.52 674.544 43.884 674.544 44.3C674.544 46.016 674.232 47.628 673.608 49.136C673.036 50.644 672.204 51.97 671.112 53.114C670.072 54.258 668.824 55.168 667.368 55.844C665.912 56.468 664.326 56.78 662.61 56.78C660.894 56.78 659.282 56.468 657.774 55.844C656.318 55.168 655.044 54.258 653.952 53.114C652.912 51.97 652.08 50.644 651.456 49.136C650.832 47.628 650.52 46.016 650.52 44.3V22.772C650.52 22.252 650.26 21.992 649.74 21.992H641.082C640.666 21.992 640.302 21.836 639.99 21.524C639.678 21.212 639.522 20.848 639.522 20.432V18.95C639.522 18.534 639.678 18.17 639.99 17.858C640.302 17.546 640.666 17.39 641.082 17.39H649.74C650.26 17.39 650.52 17.13 650.52 16.61V4.52C650.52 4.104 650.676 3.74 650.988 3.428C651.3 3.116 651.664 2.96 652.08 2.96H653.64C654.056 2.96 654.42 3.116 654.732 3.428C655.044 3.74 655.2 4.104 655.2 4.52V16.61C655.2 17.13 655.46 17.39 655.98 17.39H668.928C669.344 17.39 669.708 17.546 670.02 17.858C670.332 18.17 670.488 18.534 670.488 18.95V20.432C670.488 20.848 670.332 21.212 670.02 21.524C669.708 21.836 669.344 21.992 668.928 21.992H655.98C655.46 21.992 655.2 22.252 655.2 22.772V43.52ZM688.334 56C687.918 56 687.554 55.844 687.242 55.532C686.93 55.22 686.774 54.856 686.774 54.44V2.414C686.774 1.998 686.93 1.634 687.242 1.322C687.554 1.01 687.918 0.853999 688.334 0.853999H689.816C690.232 0.853999 690.596 1.01 690.908 1.322C691.22 1.634 691.376 1.998 691.376 2.414V16.532C691.376 16.896 691.506 17.26 691.766 17.624C692.078 17.988 692.52 18.17 693.092 18.17C693.456 18.17 693.872 18.066 694.34 17.858C694.86 17.65 695.458 17.442 696.134 17.234C696.81 16.974 697.564 16.74 698.396 16.532C699.28 16.324 700.294 16.22 701.438 16.22C703.466 16.22 705.312 16.584 706.976 17.312C708.692 18.04 710.122 19.028 711.266 20.276C712.462 21.524 713.372 22.98 713.996 24.644C714.672 26.256 715.01 27.972 715.01 29.792V54.44C715.01 54.856 714.854 55.22 714.542 55.532C714.23 55.844 713.866 56 713.45 56H711.968C711.552 56 711.188 55.844 710.876 55.532C710.564 55.22 710.408 54.856 710.408 54.44V29.792C710.408 27.14 709.524 24.982 707.756 23.318C705.988 21.654 703.7 20.822 700.892 20.822C699.488 20.822 698.188 21.056 696.992 21.524C695.848 21.94 694.86 22.538 694.028 23.318C693.196 24.098 692.546 25.008 692.078 26.048C691.61 27.088 691.376 28.206 691.376 29.402V54.44C691.376 54.856 691.22 55.22 690.908 55.532C690.596 55.844 690.232 56 689.816 56H688.334ZM727.475 6.392C727.059 6.392 726.695 6.236 726.383 5.924C726.071 5.612 725.915 5.248 725.915 4.832V2.96C725.915 2.544 726.071 2.18 726.383 1.868C726.695 1.556 727.059 1.4 727.475 1.4H760.235C760.651 1.4 761.015 1.556 761.327 1.868C761.639 2.18 761.795 2.544 761.795 2.96V4.832C761.795 5.248 761.639 5.612 761.327 5.924C761.015 6.236 760.651 6.392 760.235 6.392H747.209C746.689 6.392 746.429 6.652 746.429 7.172V54.44C746.429 54.856 746.273 55.22 745.961 55.532C745.649 55.844 745.285 56 744.869 56H742.919C742.503 56 742.139 55.844 741.827 55.532C741.515 55.22 741.359 54.856 741.359 54.44V7.172C741.359 6.652 741.099 6.392 740.579 6.392H727.475ZM775.508 39.152C775.508 41.024 775.716 42.766 776.132 44.378C776.6 45.938 777.302 47.316 778.238 48.512C779.174 49.656 780.344 50.566 781.748 51.242C783.204 51.866 784.946 52.178 786.974 52.178C788.482 52.178 789.808 51.97 790.952 51.554C792.148 51.138 793.162 50.592 793.994 49.916C794.878 49.188 795.58 48.408 796.1 47.576C796.672 46.692 797.114 45.782 797.426 44.846C797.582 44.326 797.816 43.988 798.128 43.832C798.492 43.624 798.856 43.52 799.22 43.52H800.78C801.196 43.52 801.534 43.65 801.794 43.91C802.106 44.118 802.21 44.508 802.106 45.08C801.846 46.796 801.3 48.382 800.468 49.838C799.636 51.242 798.544 52.464 797.192 53.504C795.892 54.544 794.358 55.35 792.59 55.922C790.874 56.494 789.002 56.78 786.974 56.78C784.634 56.78 782.502 56.39 780.578 55.61C778.706 54.83 777.068 53.79 775.664 52.49C774.312 51.138 773.22 49.552 772.388 47.732C771.608 45.912 771.14 43.988 770.984 41.96C770.88 40.4 770.828 38.58 770.828 36.5C770.828 34.42 770.88 32.6 770.984 31.04C771.14 29.012 771.608 27.088 772.388 25.268C773.22 23.448 774.312 21.888 775.664 20.588C777.068 19.236 778.706 18.17 780.578 17.39C782.502 16.61 784.634 16.22 786.974 16.22C789.158 16.22 791.186 16.636 793.058 17.468C794.982 18.3 796.646 19.418 798.05 20.822C799.454 22.226 800.546 23.89 801.326 25.814C802.158 27.686 802.574 29.688 802.574 31.82V36.812C802.574 37.228 802.418 37.592 802.106 37.904C801.794 38.216 801.43 38.372 801.014 38.372H776.288C775.768 38.372 775.508 38.632 775.508 39.152ZM775.664 33.224C775.664 33.744 775.924 34.004 776.444 34.004H797.504C798.024 34.004 798.284 33.744 798.284 33.224C798.284 31.248 797.998 29.506 797.426 27.998C796.854 26.438 796.048 25.138 795.008 24.098C794.02 23.006 792.85 22.2 791.498 21.68C790.146 21.108 788.664 20.822 787.052 20.822C783.568 20.822 780.786 21.888 778.706 24.02C776.678 26.152 775.664 29.22 775.664 33.224ZM830.171 52.178C831.887 52.178 833.369 51.918 834.617 51.398C835.865 50.826 836.905 50.124 837.737 49.292C838.569 48.408 839.167 47.446 839.531 46.406C839.947 45.366 840.155 44.326 840.155 43.286C840.155 42.766 840.311 42.428 840.623 42.272C840.935 42.064 841.273 41.96 841.637 41.96H843.275C843.691 41.96 844.055 42.116 844.367 42.428C844.679 42.74 844.835 43.104 844.835 43.52C844.835 45.288 844.471 46.978 843.743 48.59C843.067 50.15 842.079 51.554 840.779 52.802C839.479 53.998 837.919 54.96 836.099 55.688C834.331 56.416 832.355 56.78 830.171 56.78C827.831 56.78 825.725 56.39 823.853 55.61C821.981 54.83 820.369 53.79 819.017 52.49C817.665 51.138 816.599 49.552 815.819 47.732C815.039 45.912 814.571 43.988 814.415 41.96C814.311 40.4 814.259 38.58 814.259 36.5C814.259 34.42 814.311 32.6 814.415 31.04C814.571 29.012 815.039 27.088 815.819 25.268C816.599 23.448 817.665 21.888 819.017 20.588C820.369 19.236 821.981 18.17 823.853 17.39C825.725 16.61 827.831 16.22 830.171 16.22C832.355 16.22 834.331 16.584 836.099 17.312C837.919 18.04 839.479 19.028 840.779 20.276C842.079 21.472 843.067 22.876 843.743 24.488C844.471 26.048 844.835 27.712 844.835 29.48C844.835 29.896 844.705 30.26 844.445 30.572C844.237 30.884 843.925 31.04 843.509 31.04H841.715C841.351 31.04 841.013 30.936 840.701 30.728C840.389 30.52 840.233 30.208 840.233 29.792C840.233 28.648 839.999 27.53 839.531 26.438C839.115 25.346 838.465 24.384 837.581 23.552C836.749 22.72 835.709 22.07 834.461 21.602C833.213 21.082 831.783 20.822 830.171 20.822C828.195 20.822 826.531 21.16 825.179 21.836C823.827 22.512 822.709 23.37 821.825 24.41C820.993 25.398 820.369 26.49 819.953 27.686C819.537 28.882 819.277 30 819.173 31.04C819.017 32.652 818.939 34.472 818.939 36.5C818.939 38.528 819.017 40.348 819.173 41.96C819.277 43 819.537 44.118 819.953 45.314C820.369 46.51 820.993 47.628 821.825 48.668C822.709 49.656 823.827 50.488 825.179 51.164C826.531 51.84 828.195 52.178 830.171 52.178ZM859.873 56C859.457 56 859.093 55.844 858.781 55.532C858.469 55.22 858.313 54.856 858.313 54.44V2.414C858.313 1.998 858.469 1.634 858.781 1.322C859.093 1.01 859.457 0.853999 859.873 0.853999H861.355C861.771 0.853999 862.135 1.01 862.447 1.322C862.759 1.634 862.915 1.998 862.915 2.414V16.532C862.915 16.896 863.045 17.26 863.305 17.624C863.617 17.988 864.059 18.17 864.631 18.17C864.995 18.17 865.411 18.066 865.879 17.858C866.399 17.65 866.997 17.442 867.673 17.234C868.349 16.974 869.103 16.74 869.935 16.532C870.819 16.324 871.833 16.22 872.977 16.22C875.005 16.22 876.851 16.584 878.515 17.312C880.231 18.04 881.661 19.028 882.805 20.276C884.001 21.524 884.911 22.98 885.535 24.644C886.211 26.256 886.549 27.972 886.549 29.792V54.44C886.549 54.856 886.393 55.22 886.081 55.532C885.769 55.844 885.405 56 884.989 56H883.507C883.091 56 882.727 55.844 882.415 55.532C882.103 55.22 881.947 54.856 881.947 54.44V29.792C881.947 27.14 881.063 24.982 879.295 23.318C877.527 21.654 875.239 20.822 872.431 20.822C871.027 20.822 869.727 21.056 868.531 21.524C867.387 21.94 866.399 22.538 865.567 23.318C864.735 24.098 864.085 25.008 863.617 26.048C863.149 27.088 862.915 28.206 862.915 29.402V54.44C862.915 54.856 862.759 55.22 862.447 55.532C862.135 55.844 861.771 56 861.355 56H859.873ZM949.309 55.766C948.945 56.546 948.399 56.936 947.671 56.936H946.033C945.513 56.936 945.097 56.702 944.785 56.234C944.525 55.818 944.525 55.324 944.785 54.752L967.093 1.79C967.353 1.01 967.847 0.619997 968.575 0.619997H970.213C970.733 0.619997 971.123 0.853997 971.383 1.322C971.695 1.738 971.721 2.232 971.461 2.804L949.309 55.766ZM1035.08 24.878C1035.08 25.398 1035.34 25.658 1035.86 25.658H1056.76C1057.18 25.658 1057.54 25.814 1057.85 26.126C1058.17 26.438 1058.32 26.802 1058.32 27.218V29.012C1058.32 29.428 1058.17 29.792 1057.85 30.104C1057.54 30.416 1057.18 30.572 1056.76 30.572H1035.86C1035.34 30.572 1035.08 30.832 1035.08 31.352V50.228C1035.08 50.748 1035.34 51.008 1035.86 51.008H1057.78C1058.19 51.008 1058.56 51.164 1058.87 51.476C1059.18 51.788 1059.34 52.152 1059.34 52.568V54.44C1059.34 54.856 1059.18 55.22 1058.87 55.532C1058.56 55.844 1058.19 56 1057.78 56H1031.65C1031.23 56 1030.87 55.844 1030.55 55.532C1030.24 55.22 1030.09 54.856 1030.09 54.44V2.96C1030.09 2.544 1030.24 2.18 1030.55 1.868C1030.87 1.556 1031.23 1.4 1031.65 1.4H1057.62C1058.04 1.4 1058.4 1.556 1058.71 1.868C1059.02 2.18 1059.18 2.544 1059.18 2.96V4.832C1059.18 5.248 1059.02 5.612 1058.71 5.924C1058.4 6.236 1058.04 6.392 1057.62 6.392H1035.86C1035.34 6.392 1035.08 6.652 1035.08 7.172V24.878ZM1078.12 18.794C1078.69 18.794 1079.21 18.664 1079.68 18.404C1080.2 18.144 1080.77 17.858 1081.4 17.546C1082.07 17.182 1082.88 16.87 1083.81 16.61C1084.75 16.35 1085.95 16.22 1087.4 16.22C1089.43 16.22 1091.3 16.506 1093.02 17.078C1094.73 17.65 1096.22 18.508 1097.46 19.652C1098.71 20.796 1099.67 22.226 1100.35 23.942C1101.03 25.606 1101.36 27.556 1101.36 29.792V54.44C1101.36 54.856 1101.21 55.22 1100.9 55.532C1100.58 55.844 1100.22 56 1099.8 56H1098.32C1097.91 56 1097.54 55.844 1097.23 55.532C1096.92 55.22 1096.76 54.856 1096.76 54.44V29.792C1096.76 26.516 1095.8 24.202 1093.88 22.85C1092 21.498 1089.66 20.822 1086.86 20.822C1085.45 20.822 1084.15 21.056 1082.96 21.524C1081.76 21.94 1080.69 22.538 1079.76 23.318C1078.87 24.098 1078.17 25.008 1077.65 26.048C1077.18 27.088 1076.95 28.206 1076.95 29.402V54.44C1076.95 54.856 1076.79 55.22 1076.48 55.532C1076.17 55.844 1075.81 56 1075.39 56H1073.91C1073.49 56 1073.13 55.844 1072.82 55.532C1072.5 55.22 1072.35 54.856 1072.35 54.44V18.56C1072.35 18.144 1072.5 17.78 1072.82 17.468C1073.13 17.156 1073.49 17 1073.91 17H1075.16C1075.52 17 1075.88 17.182 1076.25 17.546C1076.51 17.806 1076.77 18.092 1077.03 18.404C1077.29 18.664 1077.65 18.794 1078.12 18.794ZM1126.93 43.52C1126.93 46.276 1127.66 48.408 1129.12 49.916C1130.62 51.372 1132.37 52.1 1134.34 52.1C1136.58 52.1 1138.32 51.346 1139.57 49.838C1140.87 48.33 1141.52 46.484 1141.52 44.3C1141.52 43.884 1141.67 43.52 1141.99 43.208C1142.3 42.896 1142.66 42.74 1143.08 42.74H1144.72C1145.13 42.74 1145.5 42.896 1145.81 43.208C1146.12 43.52 1146.28 43.884 1146.28 44.3C1146.28 46.016 1145.96 47.628 1145.34 49.136C1144.77 50.644 1143.94 51.97 1142.84 53.114C1141.8 54.258 1140.56 55.168 1139.1 55.844C1137.64 56.468 1136.06 56.78 1134.34 56.78C1132.63 56.78 1131.01 56.468 1129.51 55.844C1128.05 55.168 1126.78 54.258 1125.68 53.114C1124.64 51.97 1123.81 50.644 1123.19 49.136C1122.56 47.628 1122.25 46.016 1122.25 44.3V22.772C1122.25 22.252 1121.99 21.992 1121.47 21.992H1112.81C1112.4 21.992 1112.03 21.836 1111.72 21.524C1111.41 21.212 1111.25 20.848 1111.25 20.432V18.95C1111.25 18.534 1111.41 18.17 1111.72 17.858C1112.03 17.546 1112.4 17.39 1112.81 17.39H1121.47C1121.99 17.39 1122.25 17.13 1122.25 16.61V4.52C1122.25 4.104 1122.41 3.74 1122.72 3.428C1123.03 3.116 1123.4 2.96 1123.81 2.96H1125.37C1125.79 2.96 1126.15 3.116 1126.46 3.428C1126.78 3.74 1126.93 4.104 1126.93 4.52V16.61C1126.93 17.13 1127.19 17.39 1127.71 17.39H1140.66C1141.08 17.39 1141.44 17.546 1141.75 17.858C1142.06 18.17 1142.22 18.534 1142.22 18.95V20.432C1142.22 20.848 1142.06 21.212 1141.75 21.524C1141.44 21.836 1141.08 21.992 1140.66 21.992H1127.71C1127.19 21.992 1126.93 22.252 1126.93 22.772V43.52ZM1156.32 6.392C1155.91 6.392 1155.54 6.236 1155.23 5.924C1154.92 5.612 1154.76 5.248 1154.76 4.832V2.96C1154.76 2.544 1154.92 2.18 1155.23 1.868C1155.54 1.556 1155.91 1.4 1156.32 1.4H1189.08C1189.5 1.4 1189.86 1.556 1190.17 1.868C1190.49 2.18 1190.64 2.544 1190.64 2.96V4.832C1190.64 5.248 1190.49 5.612 1190.17 5.924C1189.86 6.236 1189.5 6.392 1189.08 6.392H1176.06C1175.54 6.392 1175.28 6.652 1175.28 7.172V54.44C1175.28 54.856 1175.12 55.22 1174.81 55.532C1174.5 55.844 1174.13 56 1173.72 56H1171.77C1171.35 56 1170.99 55.844 1170.67 55.532C1170.36 55.22 1170.21 54.856 1170.21 54.44V7.172C1170.21 6.652 1169.95 6.392 1169.43 6.392H1156.32ZM1204.36 39.152C1204.36 41.024 1204.56 42.766 1204.98 44.378C1205.45 45.938 1206.15 47.316 1207.09 48.512C1208.02 49.656 1209.19 50.566 1210.6 51.242C1212.05 51.866 1213.79 52.178 1215.82 52.178C1217.33 52.178 1218.66 51.97 1219.8 51.554C1221 51.138 1222.01 50.592 1222.84 49.916C1223.73 49.188 1224.43 48.408 1224.95 47.576C1225.52 46.692 1225.96 45.782 1226.27 44.846C1226.43 44.326 1226.66 43.988 1226.98 43.832C1227.34 43.624 1227.7 43.52 1228.07 43.52H1229.63C1230.04 43.52 1230.38 43.65 1230.64 43.91C1230.95 44.118 1231.06 44.508 1230.95 45.08C1230.69 46.796 1230.15 48.382 1229.32 49.838C1228.48 51.242 1227.39 52.464 1226.04 53.504C1224.74 54.544 1223.21 55.35 1221.44 55.922C1219.72 56.494 1217.85 56.78 1215.82 56.78C1213.48 56.78 1211.35 56.39 1209.43 55.61C1207.55 54.83 1205.92 53.79 1204.51 52.49C1203.16 51.138 1202.07 49.552 1201.24 47.732C1200.46 45.912 1199.99 43.988 1199.83 41.96C1199.73 40.4 1199.68 38.58 1199.68 36.5C1199.68 34.42 1199.73 32.6 1199.83 31.04C1199.99 29.012 1200.46 27.088 1201.24 25.268C1202.07 23.448 1203.16 21.888 1204.51 20.588C1205.92 19.236 1207.55 18.17 1209.43 17.39C1211.35 16.61 1213.48 16.22 1215.82 16.22C1218.01 16.22 1220.03 16.636 1221.91 17.468C1223.83 18.3 1225.49 19.418 1226.9 20.822C1228.3 22.226 1229.39 23.89 1230.17 25.814C1231.01 27.686 1231.42 29.688 1231.42 31.82V36.812C1231.42 37.228 1231.27 37.592 1230.95 37.904C1230.64 38.216 1230.28 38.372 1229.86 38.372H1205.14C1204.62 38.372 1204.36 38.632 1204.36 39.152ZM1204.51 33.224C1204.51 33.744 1204.77 34.004 1205.29 34.004H1226.35C1226.87 34.004 1227.13 33.744 1227.13 33.224C1227.13 31.248 1226.85 29.506 1226.27 27.998C1225.7 26.438 1224.9 25.138 1223.86 24.098C1222.87 23.006 1221.7 22.2 1220.35 21.68C1218.99 21.108 1217.51 20.822 1215.9 20.822C1212.42 20.822 1209.63 21.888 1207.55 24.02C1205.53 26.152 1204.51 29.22 1204.51 33.224ZM1259.02 52.178C1260.73 52.178 1262.22 51.918 1263.46 51.398C1264.71 50.826 1265.75 50.124 1266.58 49.292C1267.42 48.408 1268.01 47.446 1268.38 46.406C1268.79 45.366 1269 44.326 1269 43.286C1269 42.766 1269.16 42.428 1269.47 42.272C1269.78 42.064 1270.12 41.96 1270.48 41.96H1272.12C1272.54 41.96 1272.9 42.116 1273.21 42.428C1273.53 42.74 1273.68 43.104 1273.68 43.52C1273.68 45.288 1273.32 46.978 1272.59 48.59C1271.91 50.15 1270.93 51.554 1269.63 52.802C1268.33 53.998 1266.77 54.96 1264.95 55.688C1263.18 56.416 1261.2 56.78 1259.02 56.78C1256.68 56.78 1254.57 56.39 1252.7 55.61C1250.83 54.83 1249.22 53.79 1247.86 52.49C1246.51 51.138 1245.45 49.552 1244.67 47.732C1243.89 45.912 1243.42 43.988 1243.26 41.96C1243.16 40.4 1243.11 38.58 1243.11 36.5C1243.11 34.42 1243.16 32.6 1243.26 31.04C1243.42 29.012 1243.89 27.088 1244.67 25.268C1245.45 23.448 1246.51 21.888 1247.86 20.588C1249.22 19.236 1250.83 18.17 1252.7 17.39C1254.57 16.61 1256.68 16.22 1259.02 16.22C1261.2 16.22 1263.18 16.584 1264.95 17.312C1266.77 18.04 1268.33 19.028 1269.63 20.276C1270.93 21.472 1271.91 22.876 1272.59 24.488C1273.32 26.048 1273.68 27.712 1273.68 29.48C1273.68 29.896 1273.55 30.26 1273.29 30.572C1273.08 30.884 1272.77 31.04 1272.36 31.04H1270.56C1270.2 31.04 1269.86 30.936 1269.55 30.728C1269.24 30.52 1269.08 30.208 1269.08 29.792C1269.08 28.648 1268.85 27.53 1268.38 26.438C1267.96 25.346 1267.31 24.384 1266.43 23.552C1265.6 22.72 1264.56 22.07 1263.31 21.602C1262.06 21.082 1260.63 20.822 1259.02 20.822C1257.04 20.822 1255.38 21.16 1254.03 21.836C1252.67 22.512 1251.56 23.37 1250.67 24.41C1249.84 25.398 1249.22 26.49 1248.8 27.686C1248.38 28.882 1248.12 30 1248.02 31.04C1247.86 32.652 1247.79 34.472 1247.79 36.5C1247.79 38.528 1247.86 40.348 1248.02 41.96C1248.12 43 1248.38 44.118 1248.8 45.314C1249.22 46.51 1249.84 47.628 1250.67 48.668C1251.56 49.656 1252.67 50.488 1254.03 51.164C1255.38 51.84 1257.04 52.178 1259.02 52.178ZM1288.72 56C1288.31 56 1287.94 55.844 1287.63 55.532C1287.32 55.22 1287.16 54.856 1287.16 54.44V2.414C1287.16 1.998 1287.32 1.634 1287.63 1.322C1287.94 1.01 1288.31 0.853999 1288.72 0.853999H1290.2C1290.62 0.853999 1290.98 1.01 1291.3 1.322C1291.61 1.634 1291.76 1.998 1291.76 2.414V16.532C1291.76 16.896 1291.89 17.26 1292.15 17.624C1292.47 17.988 1292.91 18.17 1293.48 18.17C1293.84 18.17 1294.26 18.066 1294.73 17.858C1295.25 17.65 1295.85 17.442 1296.52 17.234C1297.2 16.974 1297.95 16.74 1298.78 16.532C1299.67 16.324 1300.68 16.22 1301.83 16.22C1303.85 16.22 1305.7 16.584 1307.36 17.312C1309.08 18.04 1310.51 19.028 1311.65 20.276C1312.85 21.524 1313.76 22.98 1314.38 24.644C1315.06 26.256 1315.4 27.972 1315.4 29.792V54.44C1315.4 54.856 1315.24 55.22 1314.93 55.532C1314.62 55.844 1314.25 56 1313.84 56H1312.36C1311.94 56 1311.58 55.844 1311.26 55.532C1310.95 55.22 1310.8 54.856 1310.8 54.44V29.792C1310.8 27.14 1309.91 24.982 1308.14 23.318C1306.38 21.654 1304.09 20.822 1301.28 20.822C1299.88 20.822 1298.58 21.056 1297.38 21.524C1296.24 21.94 1295.25 22.538 1294.42 23.318C1293.58 24.098 1292.93 25.008 1292.47 26.048C1292 27.088 1291.76 28.206 1291.76 29.402V54.44C1291.76 54.856 1291.61 55.22 1291.3 55.532C1290.98 55.844 1290.62 56 1290.2 56H1288.72Z" fill="#EEFF12"/>
</svg>
