<svg width="179" height="101" viewBox="0 0 179 101" fill="none" xmlns="http://www.w3.org/2000/svg">
<path d="M47.0865 24.9684C47.0865 25.0883 47.0389 25.2081 46.9435 25.3039C46.8481 25.3998 46.7289 25.4477 46.6097 25.4477H46.0137C45.8945 25.4477 45.7753 25.3998 45.6799 25.3039C45.5845 25.2081 45.5369 25.0883 45.5369 24.9684V8.88992C45.5369 8.77011 45.5845 8.6503 45.6799 8.55445C45.7753 8.4586 45.8945 8.41068 46.0137 8.41068H54.0959C54.2151 8.41068 54.3343 8.4586 54.4296 8.55445C54.525 8.6503 54.5727 8.77011 54.5727 8.88992V9.46501C54.5727 9.58482 54.525 9.70463 54.4296 9.80047C54.3343 9.89632 54.2151 9.94425 54.0959 9.94425H47.325C47.1581 9.94425 47.0865 10.0161 47.0865 10.1839V15.6951C47.0865 15.8629 47.1581 15.9348 47.325 15.9348H53.8336C53.9528 15.9348 54.072 15.9827 54.1674 16.0785C54.2628 16.1744 54.3104 16.2942 54.3104 16.414V16.9891C54.3104 17.1089 54.2628 17.2287 54.1674 17.3246C54.072 17.4204 53.9528 17.4683 53.8336 17.4683H47.325C47.1581 17.4683 47.0865 17.5402 47.0865 17.7079V24.9684Z" fill="#EEFF12"/>
<path d="M59.6985 14.7366C59.5793 14.7366 59.4601 14.6887 59.3648 14.5929C59.2694 14.497 59.2217 14.3772 59.2217 14.2574V13.7782C59.2217 13.6584 59.2694 13.5385 59.3648 13.4427C59.4601 13.3468 59.5793 13.2989 59.6985 13.2989H63.9423C64.0615 13.2989 64.1807 13.3468 64.2761 13.4427C64.3714 13.5385 64.4191 13.6584 64.4191 13.7782V23.7703C64.4191 23.9381 64.4906 24.01 64.6575 24.01H67.8284C67.9476 24.01 68.0668 24.0579 68.1622 24.1537C68.2576 24.2496 68.3052 24.3694 68.3052 24.4892V24.9684C68.3052 25.0882 68.2576 25.2081 68.1622 25.3039C68.0668 25.3998 67.9476 25.4477 67.8284 25.4477H59.4363C59.3171 25.4477 59.1979 25.3998 59.1025 25.3039C59.0072 25.2081 58.9595 25.0882 58.9595 24.9684V24.4892C58.9595 24.3694 59.0072 24.2496 59.1025 24.1537C59.1979 24.0579 59.3171 24.01 59.4363 24.01H62.7025C62.8694 24.01 62.941 23.9381 62.941 23.7703V14.9763C62.941 14.8085 62.8694 14.7366 62.7025 14.7366H59.6985ZM64.586 9.92028C64.586 10.1839 64.4668 10.3037 64.2045 10.3037H62.941C62.6787 10.3037 62.5595 10.1839 62.5595 9.92028V8.62633C62.5595 8.53048 62.6072 8.43463 62.6787 8.36275C62.7502 8.29086 62.8456 8.24294 62.9648 8.24294H64.2284C64.3476 8.24294 64.443 8.29086 64.5145 8.36275C64.586 8.43463 64.6337 8.53048 64.6337 8.62633V9.92028H64.586Z" fill="#EEFF12"/>
<path d="M73.8124 13.8261C73.9793 13.8261 74.1462 13.7782 74.3131 13.7063C74.4562 13.6344 74.6469 13.5385 74.8376 13.4187C75.0283 13.3229 75.2906 13.227 75.5767 13.1312C75.8628 13.0593 76.2442 13.0114 76.6972 13.0114C77.3171 13.0114 77.9131 13.1072 78.4376 13.275C78.9621 13.4427 79.439 13.7302 79.8204 14.0897C80.2019 14.4491 80.5118 14.8804 80.7264 15.4076C80.941 15.9348 81.0363 16.5578 81.0363 17.2527V24.9445C81.0363 25.0643 80.9886 25.1841 80.8933 25.2799C80.7979 25.3758 80.6787 25.4237 80.5595 25.4237H80.1065C79.9873 25.4237 79.8681 25.3758 79.7727 25.2799C79.6774 25.1841 79.6297 25.0643 79.6297 24.9445V17.2766C79.6297 16.2463 79.3436 15.5274 78.7476 15.0961C78.1515 14.6648 77.4363 14.4731 76.5542 14.4731C76.125 14.4731 75.7197 14.545 75.3383 14.6887C74.9568 14.8325 74.6469 15.0242 74.3608 15.2638C74.0747 15.5034 73.8601 15.791 73.7171 16.1264C73.574 16.4619 73.4787 16.7974 73.4787 17.1808V25.0164C73.4787 25.1362 73.431 25.256 73.3356 25.3518C73.2402 25.4477 73.121 25.4956 73.0018 25.4956H72.5488C72.4296 25.4956 72.3104 25.4477 72.2151 25.3518C72.1197 25.256 72.072 25.1362 72.072 25.0164V13.7542C72.072 13.6344 72.1197 13.5146 72.2151 13.4187C72.3104 13.3229 72.4296 13.275 72.5488 13.275H72.9303C73.0495 13.275 73.1449 13.3229 73.2641 13.4427C73.3356 13.5146 73.431 13.6104 73.5025 13.7063C73.5502 13.8021 73.6694 13.8261 73.8124 13.8261Z" fill="#EEFF12"/>
<path d="M90.0723 14.3772C89.6908 14.3772 89.3332 14.4251 88.9994 14.545C88.6657 14.6408 88.3557 14.8085 88.0935 14.9763C87.8312 15.168 87.6166 15.3836 87.4736 15.6472C87.3067 15.9108 87.2352 16.1983 87.2352 16.5338C87.2352 16.7495 87.1637 16.8693 87.0445 16.8932C86.9253 16.9172 86.7822 16.9412 86.6868 16.9412H86.3531C86.0193 16.9412 85.8762 16.7734 85.8762 16.4619C85.8762 15.8868 85.9954 15.4076 86.2339 14.9763C86.4723 14.545 86.806 14.2095 87.2113 13.9219C87.6166 13.6344 88.0696 13.4187 88.5703 13.275C89.071 13.1312 89.5716 13.0593 90.0961 13.0593C90.6922 13.0593 91.2644 13.1312 91.7889 13.2989C92.3134 13.4667 92.7664 13.7063 93.1717 14.0418C93.577 14.3772 93.8869 14.7846 94.1253 15.2878C94.3637 15.791 94.4829 16.39 94.4829 17.0849V24.9924C94.4829 25.1122 94.4352 25.232 94.3399 25.3279C94.2445 25.4237 94.1253 25.4716 94.0061 25.4716H93.7915C93.6246 25.4716 93.5054 25.4237 93.4577 25.3039C93.3862 25.2081 93.3385 25.0883 93.2909 24.9684C93.2432 24.8486 93.1478 24.7767 92.9809 24.7767C92.8617 24.7767 92.7187 24.8247 92.5518 24.9205C92.3849 25.0164 92.1465 25.1122 91.9081 25.232C91.6458 25.3518 91.3359 25.4477 91.0021 25.5435C90.6445 25.6394 90.263 25.6873 89.81 25.6873C89.071 25.6873 88.4272 25.5915 87.8551 25.3758C87.3067 25.1601 86.8299 24.8726 86.4723 24.5132C86.1147 24.1537 85.8286 23.7464 85.6617 23.2671C85.4948 22.7879 85.3994 22.3087 85.3994 21.7815C85.3994 21.2783 85.4948 20.799 85.6617 20.3677C85.8286 19.9364 86.0908 19.553 86.4484 19.2415C86.806 18.93 87.2113 18.6664 87.712 18.4987C88.2127 18.331 88.7849 18.2351 89.4047 18.2351H92.7425C92.9094 18.2351 92.9809 18.1632 92.9809 17.9955V17.037C92.9809 16.2463 92.6948 15.5993 92.1465 15.0961C91.622 14.6168 90.9306 14.3772 90.0723 14.3772ZM89.2855 19.577C88.618 19.577 87.9981 19.7687 87.4974 20.1281C86.9729 20.5115 86.7107 21.0387 86.7107 21.7575C86.7107 22.1888 86.7822 22.5722 86.9491 22.8837C87.0921 23.1953 87.3067 23.4588 87.569 23.6745C87.8312 23.8902 88.1412 24.0339 88.4749 24.1537C88.8087 24.2496 89.1663 24.3215 89.5716 24.3215C90.6922 24.3215 91.5505 24.0579 92.1465 23.5307C92.7425 23.0036 93.0524 22.2607 93.0524 21.2543V19.7926C93.0524 19.6249 92.9809 19.553 92.814 19.553H89.2855V19.577Z" fill="#EEFF12"/>
<path d="M100.491 13.8261C100.658 13.8261 100.825 13.7782 100.992 13.7063C101.135 13.6344 101.325 13.5385 101.516 13.4187C101.707 13.3229 101.969 13.227 102.255 13.1312C102.541 13.0593 102.923 13.0114 103.376 13.0114C103.996 13.0114 104.592 13.1072 105.116 13.275C105.641 13.4427 106.118 13.7302 106.499 14.0897C106.88 14.4491 107.19 14.8804 107.405 15.4076C107.62 15.9348 107.715 16.5578 107.715 17.2527V24.9445C107.715 25.0643 107.667 25.1841 107.572 25.2799C107.476 25.3758 107.357 25.4237 107.238 25.4237H106.785C106.666 25.4237 106.547 25.3758 106.451 25.2799C106.356 25.1841 106.308 25.0643 106.308 24.9445V17.2766C106.308 16.2463 106.022 15.5274 105.426 15.0961C104.83 14.6648 104.115 14.4731 103.233 14.4731C102.804 14.4731 102.398 14.545 102.017 14.6887C101.635 14.8325 101.325 15.0242 101.039 15.2638C100.753 15.5034 100.539 15.791 100.396 16.1264C100.253 16.4619 100.157 16.7974 100.157 17.1808V25.0164C100.157 25.1362 100.11 25.256 100.014 25.3518C99.9188 25.4477 99.7996 25.4956 99.6804 25.4956H99.1797C99.0605 25.4956 98.9413 25.4477 98.8459 25.3518C98.7506 25.256 98.7029 25.1362 98.7029 25.0164V13.7542C98.7029 13.6344 98.7506 13.5146 98.8459 13.4187C98.9413 13.3229 99.0605 13.275 99.1797 13.275H99.5612C99.6804 13.275 99.7757 13.3229 99.8949 13.4427C99.9665 13.5146 100.062 13.6104 100.133 13.7063C100.229 13.8021 100.348 13.8261 100.491 13.8261Z" fill="#EEFF12"/>
<path d="M116.727 24.2735C117.251 24.2735 117.728 24.1777 118.11 24.01C118.491 23.8422 118.825 23.6266 119.087 23.363C119.349 23.0994 119.54 22.7879 119.659 22.4764C119.778 22.1409 119.85 21.8294 119.85 21.4939C119.85 21.3262 119.898 21.2304 119.993 21.1585C120.088 21.1105 120.184 21.0626 120.303 21.0626H120.804C120.923 21.0626 121.042 21.1105 121.137 21.2064C121.233 21.3022 121.28 21.4221 121.28 21.5419C121.28 22.093 121.161 22.6202 120.947 23.1234C120.732 23.6266 120.422 24.0579 120.017 24.4413C119.612 24.8247 119.135 25.1362 118.563 25.3518C118.014 25.5675 117.394 25.6873 116.703 25.6873C115.964 25.6873 115.32 25.5675 114.748 25.3279C114.176 25.0882 113.675 24.7528 113.246 24.3454C112.817 23.9381 112.483 23.4349 112.245 22.8598C112.006 22.2847 111.863 21.6856 111.816 21.0626C111.792 20.5834 111.768 20.0083 111.768 19.3613C111.768 18.7143 111.792 18.1393 111.816 17.66C111.863 17.037 112.006 16.414 112.245 15.8629C112.483 15.2878 112.817 14.8085 113.246 14.3772C113.675 13.9699 114.176 13.6344 114.748 13.3948C115.32 13.1551 115.988 13.0353 116.703 13.0353C117.371 13.0353 117.99 13.1551 118.563 13.3708C119.111 13.6104 119.612 13.898 120.017 14.2814C120.422 14.6648 120.732 15.0961 120.947 15.5993C121.161 16.1025 121.28 16.6296 121.28 17.1808C121.28 17.3006 121.233 17.4204 121.161 17.5162C121.09 17.6121 120.994 17.66 120.851 17.66H120.303C120.184 17.66 120.088 17.6361 119.993 17.5642C119.898 17.4923 119.85 17.3964 119.85 17.2766C119.85 16.9172 119.778 16.5817 119.635 16.2223C119.492 15.8868 119.302 15.5753 119.039 15.3117C118.777 15.0482 118.443 14.8565 118.062 14.6887C117.68 14.5449 117.227 14.4491 116.727 14.4491C116.107 14.4491 115.606 14.5449 115.177 14.7606C114.748 14.9763 114.414 15.2398 114.152 15.5514C113.89 15.8629 113.675 16.2223 113.556 16.5817C113.437 16.9651 113.341 17.3006 113.318 17.6361C113.27 18.1393 113.246 18.7143 113.246 19.3374C113.246 19.9604 113.27 20.5355 113.318 21.0387C113.341 21.3741 113.437 21.7096 113.556 22.093C113.675 22.4764 113.89 22.8119 114.152 23.1234C114.414 23.4349 114.772 23.6984 115.177 23.9141C115.606 24.1537 116.131 24.2735 116.727 24.2735Z" fill="#EEFF12"/>
<path d="M126.406 20.2C126.406 20.7751 126.478 21.3262 126.621 21.8294C126.764 22.3326 126.978 22.7639 127.265 23.1234C127.551 23.4828 127.932 23.7703 128.361 23.986C128.814 24.1777 129.339 24.2975 129.982 24.2975C130.459 24.2975 130.865 24.2256 131.222 24.1058C131.58 23.986 131.89 23.7943 132.176 23.5786C132.438 23.363 132.653 23.1234 132.82 22.8358C132.986 22.5722 133.13 22.2847 133.225 21.9971C133.273 21.8294 133.344 21.7336 133.463 21.6617C133.559 21.6138 133.678 21.5658 133.797 21.5658H134.274C134.393 21.5658 134.512 21.6138 134.608 21.6856C134.703 21.7575 134.727 21.8773 134.703 22.069C134.632 22.5962 134.441 23.0994 134.202 23.5547C133.94 24.01 133.606 24.3933 133.201 24.7049C132.796 25.0403 132.319 25.2799 131.771 25.4716C131.222 25.6394 130.65 25.7352 130.006 25.7352C129.267 25.7352 128.624 25.6154 128.028 25.3758C127.431 25.1362 126.931 24.8007 126.502 24.3934C126.073 23.986 125.739 23.4828 125.476 22.9077C125.214 22.3326 125.071 21.7336 125.024 21.1105C125 20.6313 124.976 20.0562 124.976 19.4092C124.976 18.7623 125 18.1872 125.024 17.7079C125.071 17.0849 125.214 16.4619 125.476 15.9108C125.739 15.3357 126.073 14.8565 126.502 14.4251C126.931 14.0178 127.431 13.6823 128.028 13.4427C128.624 13.2031 129.267 13.0833 130.006 13.0833C130.674 13.0833 131.318 13.2031 131.914 13.4667C132.51 13.7302 133.01 14.0657 133.463 14.521C133.892 14.9523 134.25 15.4795 134.488 16.0785C134.751 16.6776 134.87 17.3006 134.87 17.9715V19.5291C134.87 19.6489 134.822 19.7687 134.727 19.8645C134.632 19.9604 134.512 20.0083 134.393 20.0083H126.716C126.502 19.9604 126.406 20.0323 126.406 20.2ZM126.454 18.3549C126.454 18.5227 126.526 18.5945 126.692 18.5945H133.249C133.416 18.5945 133.487 18.5227 133.487 18.3549C133.487 17.7319 133.392 17.1808 133.225 16.7015C133.058 16.2223 132.796 15.8149 132.486 15.4795C132.176 15.144 131.794 14.9044 131.389 14.7127C130.96 14.545 130.507 14.4491 130.006 14.4491C128.933 14.4491 128.051 14.7846 127.431 15.4555C126.788 16.1264 126.454 17.0849 126.454 18.3549Z" fill="#EEFF12"/>
<path d="M38.8376 51.9976C38.8614 52.0695 38.9091 52.1174 38.9806 52.1174C39.0521 52.1174 39.0998 52.0695 39.1237 51.9976L40.6257 38.0038C40.6495 37.884 40.6972 37.7881 40.7926 37.7162C40.8879 37.6683 40.9833 37.6204 41.1025 37.6204H41.6985C41.8893 37.6204 42.0323 37.6683 42.1038 37.7642C42.1753 37.86 42.1992 37.9798 42.1992 38.0996L40.2204 54.298C40.1965 54.4178 40.1488 54.5136 40.0535 54.5855C39.9581 54.6334 39.8627 54.6814 39.7435 54.6814H38.1223C38.0031 54.6814 37.9078 54.6574 37.8124 54.5855C37.717 54.5376 37.6694 54.4418 37.6455 54.298L36.6203 45.4799C36.5965 45.4081 36.5727 45.3841 36.5488 45.3841C36.525 45.3841 36.5011 45.4081 36.4773 45.4799L35.1183 54.298C35.0707 54.5376 34.9276 54.6574 34.6654 54.6574H33.0442C32.9249 54.6574 32.8296 54.6334 32.7342 54.5616C32.6389 54.5136 32.5912 54.4178 32.5673 54.274L30.8031 38.0757C30.7792 37.9559 30.8269 37.8361 30.8984 37.7402C30.97 37.6444 31.113 37.5964 31.3037 37.5964H31.8998C32.019 37.5964 32.1143 37.6204 32.2097 37.6923C32.3051 37.7402 32.3528 37.8361 32.3766 37.9798L33.7832 51.9737C33.8071 52.0455 33.8548 52.0935 33.9263 52.0935C33.9978 52.0935 34.0455 52.0455 34.0693 51.9737L35.5236 42.8681C35.5713 42.6285 35.7144 42.5087 35.9766 42.5087H37.0972C37.3594 42.5087 37.5025 42.6285 37.5501 42.8681L38.8376 51.9976Z" fill="#EEFF12"/>
<path d="M46.3951 49.4576C46.3951 50.0327 46.4666 50.5839 46.6096 51.0871C46.7527 51.5903 46.9673 52.0216 47.2534 52.381C47.5395 52.7404 47.9209 53.028 48.3501 53.2436C48.803 53.4353 49.3275 53.5551 49.9713 53.5551C50.4481 53.5551 50.8534 53.4833 51.211 53.3635C51.5686 53.2436 51.8786 53.0519 52.1647 52.8363C52.4269 52.6206 52.6415 52.381 52.8084 52.0935C52.9753 51.8059 53.1183 51.5423 53.2137 51.2548C53.2613 51.0871 53.3329 50.9912 53.4521 50.9193C53.5474 50.8714 53.6667 50.8235 53.7859 50.8235H54.2627C54.3819 50.8235 54.5011 50.8714 54.5965 50.9433C54.6918 51.0152 54.7157 51.135 54.6918 51.3267C54.6203 51.8538 54.4296 52.357 54.1912 52.8123C53.9289 53.2676 53.5951 53.651 53.1898 53.9625C52.7845 54.298 52.3077 54.5376 51.7594 54.7293C51.211 54.897 50.6388 54.9929 49.9951 54.9929C49.256 54.9929 48.6123 54.8731 48.0163 54.6334C47.4202 54.3938 46.9196 54.0583 46.4904 53.651C46.0613 53.2436 45.7275 52.7404 45.4653 52.1653C45.203 51.5903 45.06 50.9912 45.0123 50.3682C44.9884 49.889 44.9646 49.3139 44.9646 48.6669C44.9646 48.0199 44.9884 47.4448 45.0123 46.9656C45.06 46.3426 45.203 45.7196 45.4653 45.1684C45.7275 44.5933 46.0613 44.1141 46.4904 43.6828C46.9196 43.2754 47.4202 42.94 48.0163 42.7003C48.6123 42.4607 49.256 42.3409 49.9951 42.3409C50.6627 42.3409 51.3064 42.4607 51.9024 42.7243C52.4984 42.9879 52.9991 43.3234 53.4521 43.7786C53.8812 44.21 54.2388 44.7371 54.4773 45.3362C54.7395 45.9352 54.8587 46.5582 54.8587 47.2292V48.7867C54.8587 48.9065 54.811 49.0263 54.7157 49.1222C54.6203 49.218 54.5011 49.2659 54.3819 49.2659H46.705C46.4666 49.1941 46.3951 49.2899 46.3951 49.4576ZM46.4428 47.5886C46.4428 47.7563 46.5143 47.8282 46.6812 47.8282H53.2375C53.4044 47.8282 53.4759 47.7563 53.4759 47.5886C53.4759 46.9656 53.3806 46.4145 53.2137 45.9352C53.0468 45.456 52.7845 45.0486 52.4746 44.7132C52.1647 44.3777 51.7832 44.1381 51.3779 43.9464C50.9487 43.7786 50.4958 43.6828 49.9951 43.6828C48.9222 43.6828 48.0401 44.0183 47.4202 44.6892C46.7527 45.3841 46.4428 46.3426 46.4428 47.5886Z" fill="#EEFF12"/>
<path d="M59.3171 38.9383C59.1979 38.9383 59.0787 38.8904 58.9833 38.7945C58.8879 38.6987 58.8403 38.5789 58.8403 38.4591V37.9798C58.8403 37.86 58.8879 37.7402 58.9833 37.6444C59.0787 37.5485 59.1979 37.5006 59.3171 37.5006H63.4655C63.5847 37.5006 63.7039 37.5485 63.7992 37.6444C63.8946 37.7402 63.9423 37.86 63.9423 37.9798V53.028C63.9423 53.1957 64.0138 53.2676 64.1807 53.2676H67.2562C67.3754 53.2676 67.4946 53.3155 67.59 53.4114C67.6854 53.5072 67.733 53.627 67.733 53.7468V54.2261C67.733 54.3459 67.6854 54.4657 67.59 54.5616C67.4946 54.6574 67.3754 54.7053 67.2562 54.7053H58.8164C58.6972 54.7053 58.578 54.6574 58.4826 54.5616C58.3873 54.4657 58.3396 54.3459 58.3396 54.2261V53.7468C58.3396 53.627 58.3873 53.5072 58.4826 53.4114C58.578 53.3155 58.6972 53.2676 58.8164 53.2676H62.178C62.2496 53.2676 62.3211 53.2436 62.3926 53.1957C62.4403 53.1478 62.488 53.0999 62.488 53.004V39.1779C62.488 39.0102 62.4165 38.9383 62.2496 38.9383H59.3171Z" fill="#EEFF12"/>
<path d="M72.6442 38.9383C72.525 38.9383 72.4058 38.8904 72.3105 38.7945C72.2151 38.6987 72.1674 38.5789 72.1674 38.4591V37.9798C72.1674 37.86 72.2151 37.7402 72.3105 37.6444C72.4058 37.5485 72.525 37.5006 72.6442 37.5006H76.7926C76.9118 37.5006 77.031 37.5485 77.1264 37.6444C77.2218 37.7402 77.2694 37.86 77.2694 37.9798V53.028C77.2694 53.1957 77.341 53.2676 77.5079 53.2676H80.5834C80.7026 53.2676 80.8218 53.3155 80.9171 53.4114C81.0125 53.5072 81.0602 53.627 81.0602 53.7468V54.2261C81.0602 54.3459 81.0125 54.4657 80.9171 54.5616C80.8218 54.6574 80.7026 54.7053 80.5834 54.7053H72.1436C72.0244 54.7053 71.9052 54.6574 71.8098 54.5616C71.7144 54.4657 71.6667 54.3459 71.6667 54.2261V53.7468C71.6667 53.627 71.7144 53.5072 71.8098 53.4114C71.9052 53.3155 72.0244 53.2676 72.1436 53.2676H75.5052C75.5767 53.2676 75.6482 53.2436 75.7198 53.1957C75.7674 53.1478 75.8151 53.0999 75.8151 53.004V39.1779C75.8151 39.0102 75.7436 38.9383 75.5767 38.9383H72.6442Z" fill="#EEFF12"/>
<path d="M89.81 54.9449C89.357 54.9449 88.9994 54.897 88.7133 54.8251C88.4272 54.7533 88.2127 54.6574 88.0219 54.5376C87.8312 54.4417 87.6643 54.3459 87.5213 54.25C87.3782 54.1782 87.2352 54.1302 87.0444 54.1302C86.9252 54.1302 86.806 54.1782 86.7107 54.274C86.6153 54.3699 86.5199 54.4417 86.4484 54.5376C86.3292 54.6574 86.21 54.7053 86.1146 54.7053H85.7332C85.614 54.7053 85.4948 54.6574 85.3994 54.5616C85.304 54.4657 85.2563 54.3459 85.2563 54.2261V37.9798C85.2563 37.86 85.304 37.7402 85.3994 37.6444C85.4948 37.5485 85.614 37.5006 85.7332 37.5006H86.1862C86.3054 37.5006 86.4246 37.5485 86.5199 37.6444C86.6153 37.7402 86.663 37.86 86.663 37.9798V42.293C86.663 42.5326 86.7107 42.6764 86.8299 42.7722C86.9491 42.8681 87.0921 42.916 87.259 42.916C87.3782 42.916 87.4974 42.892 87.6405 42.8202C87.7835 42.7483 87.9504 42.6764 88.1411 42.6045C88.3319 42.5326 88.5703 42.4607 88.8325 42.3888C89.0948 42.3169 89.4286 42.293 89.81 42.293C90.4299 42.293 91.0259 42.4128 91.5743 42.6524C92.1226 42.892 92.5994 43.2275 93.0048 43.6349C93.4101 44.0422 93.7438 44.5454 93.9822 45.1205C94.2207 45.6956 94.3875 46.2946 94.4352 46.9177C94.4591 47.3969 94.4829 47.972 94.4829 48.619C94.4829 49.2659 94.4591 49.841 94.4352 50.3203C94.3875 50.9433 94.2445 51.5663 93.9822 52.1174C93.72 52.6925 93.4101 53.1718 93.0048 53.6031C92.5994 54.0104 92.1226 54.3459 91.5743 54.5855C91.0259 54.8251 90.4537 54.9449 89.81 54.9449ZM89.6908 53.5072C90.2869 53.5072 90.7875 53.4114 91.1928 53.1957C91.5981 52.9801 91.9081 52.7165 92.1703 52.405C92.4326 52.0935 92.5994 51.734 92.7187 51.3746C92.8379 50.9912 92.9094 50.6557 92.9571 50.3203C93.0286 49.8171 93.0524 49.242 93.0524 48.619C93.0524 47.996 93.0286 47.4209 92.9571 46.9177C92.9332 46.5822 92.8379 46.2467 92.7187 45.8633C92.5994 45.4799 92.4087 45.1445 92.1703 44.833C91.9081 44.5215 91.5981 44.2579 91.1928 44.0422C90.7875 43.8266 90.2868 43.7307 89.7147 43.7307C89.1901 43.7307 88.7372 43.8266 88.3557 44.0422C87.9742 44.2579 87.6881 44.5215 87.4497 44.833C87.2113 45.1445 87.0444 45.5039 86.9491 45.8633C86.8299 46.2467 86.7583 46.5822 86.7345 46.9177C86.6868 47.4209 86.663 47.996 86.663 48.619C86.663 49.242 86.6868 49.8171 86.7345 50.3203C86.7583 50.6557 86.8299 50.9912 86.9491 51.3746C87.0683 51.758 87.2352 52.0935 87.4497 52.405C87.6643 52.7165 87.9742 52.9801 88.3557 53.1957C88.7133 53.4114 89.1663 53.5072 89.6908 53.5072Z" fill="#EEFF12"/>
<path d="M99.7281 49.4576C99.7281 50.0327 99.7996 50.5839 99.9427 51.0871C100.086 51.5903 100.3 52.0216 100.586 52.381C100.872 52.7404 101.254 53.028 101.683 53.2436C102.136 53.4353 102.661 53.5551 103.304 53.5551C103.781 53.5551 104.186 53.4833 104.544 53.3635C104.902 53.2436 105.212 53.0519 105.498 52.8363C105.76 52.6206 105.974 52.381 106.141 52.0935C106.308 51.8059 106.451 51.5423 106.547 51.2548C106.594 51.0871 106.666 50.9912 106.785 50.9193C106.88 50.8714 107 50.8235 107.119 50.8235H107.596C107.715 50.8235 107.834 50.8714 107.929 50.9433C108.025 51.0152 108.049 51.135 108.025 51.3267C107.953 51.8538 107.763 52.357 107.524 52.8123C107.262 53.2676 106.928 53.651 106.523 53.9625C106.118 54.298 105.641 54.5376 105.092 54.7293C104.544 54.897 103.972 54.9929 103.328 54.9929C102.589 54.9929 101.945 54.8731 101.349 54.6334C100.753 54.3938 100.253 54.0583 99.8235 53.651C99.3943 53.2436 99.0605 52.7404 98.7983 52.1653C98.536 51.5903 98.393 50.9912 98.3453 50.3682C98.3215 49.889 98.2976 49.3139 98.2976 48.6669C98.2976 48.0199 98.3215 47.4448 98.3453 46.9656C98.393 46.3426 98.536 45.7196 98.7983 45.1684C99.0605 44.5933 99.3943 44.1141 99.8235 43.6828C100.253 43.2754 100.753 42.94 101.349 42.7003C101.945 42.4607 102.589 42.3409 103.328 42.3409C103.996 42.3409 104.639 42.4607 105.235 42.7243C105.831 42.9879 106.332 43.3234 106.785 43.7786C107.214 44.21 107.572 44.7371 107.81 45.3362C108.073 45.9352 108.192 46.5582 108.192 47.2292V48.7867C108.192 48.9065 108.144 49.0263 108.049 49.1222C107.953 49.218 107.834 49.2659 107.715 49.2659H100.038C99.8235 49.1941 99.7281 49.2899 99.7281 49.4576ZM99.7758 47.5886C99.7758 47.7563 99.8473 47.8282 100.014 47.8282H106.571C106.737 47.8282 106.809 47.7563 106.809 47.5886C106.809 46.9656 106.714 46.4145 106.547 45.9352C106.38 45.456 106.118 45.0486 105.808 44.7132C105.498 44.3777 105.116 44.1381 104.711 43.9464C104.282 43.7786 103.829 43.6828 103.328 43.6828C102.255 43.6828 101.373 44.0183 100.753 44.6892C100.11 45.3841 99.7758 46.3426 99.7758 47.5886Z" fill="#EEFF12"/>
<path d="M113.055 43.9943C112.936 43.9943 112.817 43.9464 112.721 43.8505C112.626 43.7547 112.578 43.6349 112.578 43.5151V43.0358C112.578 42.916 112.626 42.7962 112.721 42.7003C112.817 42.6045 112.936 42.5566 113.055 42.5566H117.299C117.418 42.5566 117.537 42.6045 117.633 42.7003C117.728 42.7962 117.776 42.916 117.776 43.0358V53.028C117.776 53.1957 117.847 53.2676 118.014 53.2676H121.185C121.304 53.2676 121.424 53.3155 121.519 53.4114C121.614 53.5072 121.662 53.627 121.662 53.7469V54.2261C121.662 54.3459 121.614 54.4657 121.519 54.5616C121.424 54.6574 121.304 54.7053 121.185 54.7053H112.793C112.674 54.7053 112.555 54.6574 112.459 54.5616C112.364 54.4657 112.316 54.3459 112.316 54.2261V53.7469C112.316 53.627 112.364 53.5072 112.459 53.4114C112.555 53.3155 112.674 53.2676 112.793 53.2676H116.059C116.226 53.2676 116.298 53.1957 116.298 53.028V44.2579C116.298 44.0901 116.226 44.0183 116.059 44.0183H113.055V43.9943ZM117.919 39.154C117.919 39.4175 117.8 39.5374 117.537 39.5374H116.274C116.012 39.5374 115.892 39.4175 115.892 39.154V37.86C115.892 37.7642 115.94 37.6683 116.012 37.5964C116.083 37.5245 116.178 37.4766 116.298 37.4766H117.561C117.68 37.4766 117.776 37.5245 117.847 37.5964C117.919 37.6683 117.967 37.7642 117.967 37.86V39.154H117.919Z" fill="#EEFF12"/>
<path d="M127.169 43.0837C127.336 43.0837 127.503 43.0358 127.67 42.9639C127.813 42.892 128.004 42.7962 128.194 42.6764C128.385 42.5805 128.647 42.4847 128.933 42.3888C129.219 42.317 129.601 42.269 130.054 42.269C130.674 42.269 131.27 42.3649 131.794 42.5326C132.319 42.7003 132.796 42.9879 133.177 43.3473C133.559 43.7068 133.869 44.1381 134.083 44.6652C134.298 45.1924 134.393 45.8154 134.393 46.5103V54.2021C134.393 54.3219 134.345 54.4417 134.25 54.5376C134.155 54.6334 134.035 54.6814 133.916 54.6814H133.463C133.344 54.6814 133.225 54.6334 133.129 54.5376C133.034 54.4417 132.986 54.3219 132.986 54.2021V46.5103C132.986 45.4799 132.7 44.7611 132.104 44.3298C131.508 43.8984 130.793 43.7068 129.911 43.7068C129.482 43.7068 129.076 43.7786 128.695 43.9224C128.314 44.0662 128.004 44.2579 127.717 44.4975C127.431 44.7371 127.217 45.0247 127.074 45.3601C126.931 45.6956 126.835 46.0311 126.835 46.4145V54.25C126.835 54.3699 126.788 54.4897 126.692 54.5855C126.597 54.6814 126.478 54.7293 126.359 54.7293H125.906C125.786 54.7293 125.667 54.6814 125.572 54.5855C125.476 54.4897 125.429 54.3699 125.429 54.25V43.0358C125.429 42.916 125.476 42.7962 125.572 42.7003C125.667 42.6045 125.786 42.5566 125.906 42.5566H126.287C126.406 42.5566 126.502 42.6045 126.621 42.7243C126.692 42.7962 126.788 42.892 126.859 42.9879C126.907 43.0358 127.026 43.0837 127.169 43.0837Z" fill="#EEFF12"/>
<path d="M147.363 42.5326C147.482 42.5326 147.601 42.5805 147.696 42.6764C147.792 42.7722 147.84 42.892 147.84 43.0119V55.4482C147.84 56.0232 147.744 56.5983 147.53 57.1255C147.315 57.6527 147.029 58.1319 146.647 58.5153C146.266 58.9226 145.813 59.2342 145.289 59.4738C144.764 59.7134 144.168 59.8332 143.524 59.8332C143.047 59.8332 142.571 59.7613 142.094 59.6175C141.641 59.4738 141.212 59.2581 140.83 58.9945C140.449 58.707 140.115 58.3715 139.829 57.9402C139.543 57.5329 139.352 57.0536 139.233 56.4785C139.161 56.0951 139.304 55.9274 139.662 55.9274H140.043C140.258 55.9274 140.401 55.9753 140.473 56.0712C140.544 56.167 140.616 56.2868 140.663 56.4066C140.735 56.6223 140.854 56.8619 140.997 57.1015C141.14 57.3412 141.331 57.5568 141.545 57.7245C141.76 57.9162 142.046 58.06 142.38 58.1798C142.714 58.2996 143.071 58.3715 143.5 58.3715C143.953 58.3715 144.359 58.2757 144.716 58.1079C145.074 57.9402 145.384 57.7245 145.622 57.437C145.885 57.1495 146.051 56.838 146.194 56.5025C146.314 56.1431 146.385 55.7836 146.385 55.4242V54.945C146.385 54.5376 146.218 54.3459 145.861 54.3459C145.741 54.3459 145.575 54.3699 145.408 54.4417C145.241 54.5136 145.026 54.5855 144.812 54.6574C144.573 54.7293 144.335 54.8012 144.073 54.8731C143.81 54.9449 143.524 54.9689 143.262 54.9689C142.642 54.9689 142.046 54.8491 141.498 54.6095C140.949 54.3699 140.473 54.0344 140.067 53.627C139.662 53.2197 139.328 52.7165 139.09 52.1414C138.828 51.5663 138.684 50.9673 138.637 50.3442C138.613 49.865 138.589 49.2899 138.589 48.6429C138.589 47.996 138.613 47.4209 138.637 46.9416C138.684 46.3186 138.828 45.6956 139.09 45.1445C139.352 44.5694 139.662 44.0901 140.067 43.6588C140.473 43.2515 140.949 42.916 141.498 42.6764C142.046 42.4368 142.618 42.317 143.262 42.317C143.715 42.317 144.073 42.3649 144.359 42.4368C144.645 42.5087 144.859 42.6045 145.05 42.7243C145.241 42.8202 145.408 42.916 145.551 43.0119C145.694 43.0837 145.837 43.1317 146.028 43.1317C146.147 43.1317 146.266 43.0837 146.361 42.9879C146.457 42.892 146.552 42.8202 146.624 42.7243C146.743 42.6045 146.838 42.5566 146.957 42.5566H147.363V42.5326ZM143.381 43.7068C142.785 43.7068 142.285 43.8026 141.879 44.0183C141.474 44.2339 141.164 44.4975 140.902 44.809C140.639 45.1205 140.473 45.4799 140.353 45.8394C140.234 46.2228 140.163 46.5582 140.115 46.8937C140.043 47.3969 140.02 47.972 140.02 48.595C140.02 49.218 140.043 49.7931 140.115 50.2963C140.139 50.6318 140.234 50.9673 140.353 51.3506C140.473 51.734 140.663 52.0695 140.902 52.381C141.164 52.6925 141.474 52.9561 141.879 53.1718C142.285 53.3874 142.785 53.4833 143.357 53.4833C143.882 53.4833 144.335 53.3874 144.716 53.1718C145.098 52.9561 145.384 52.6925 145.622 52.381C145.837 52.0695 146.028 51.7101 146.123 51.3506C146.242 50.9673 146.314 50.6318 146.338 50.2963C146.385 49.7931 146.409 49.218 146.409 48.595C146.409 47.972 146.385 47.3969 146.338 46.8937C146.314 46.5582 146.242 46.2228 146.123 45.8394C146.004 45.456 145.837 45.1205 145.622 44.809C145.384 44.4975 145.098 44.2339 144.716 44.0183C144.383 43.8266 143.93 43.7068 143.381 43.7068Z" fill="#EEFF12"/>
<path d="M7.08093 74.2344C7.08093 74.4021 7.15245 74.474 7.31934 74.474H13.828C13.9472 74.474 14.0664 74.5219 14.1618 74.6178C14.2571 74.7136 14.3048 74.8335 14.3048 74.9533V75.5044C14.3048 75.6242 14.2571 75.744 14.1618 75.8399C14.0664 75.9357 13.9472 75.9836 13.828 75.9836H7.31934C7.15245 75.9836 7.08093 76.0555 7.08093 76.2233V82.1179C7.08093 82.2857 7.15245 82.3575 7.31934 82.3575H14.1379C14.2571 82.3575 14.3763 82.4055 14.4717 82.5013C14.5671 82.5972 14.6148 82.717 14.6148 82.8368V83.4119C14.6148 83.5317 14.5671 83.6515 14.4717 83.7473C14.3763 83.8432 14.2571 83.8911 14.1379 83.8911H6.00807C5.88887 83.8911 5.76966 83.8432 5.6743 83.7473C5.57893 83.6515 5.53125 83.5317 5.53125 83.4119V67.3333C5.53125 67.2135 5.57893 67.0937 5.6743 66.9979C5.76966 66.902 5.88887 66.8541 6.00807 66.8541H14.0903C14.2095 66.8541 14.3287 66.902 14.424 66.9979C14.5194 67.0937 14.5671 67.2135 14.5671 67.3333V67.9084C14.5671 68.0282 14.5194 68.148 14.424 68.2439C14.3287 68.3397 14.2095 68.3877 14.0903 68.3877H7.31934C7.15245 68.3877 7.08093 68.4596 7.08093 68.6273V74.2344Z" fill="#EEFF12"/>
<path d="M20.4557 72.3414C20.6226 72.3414 20.7895 72.2935 20.9564 72.2216C21.0995 72.1497 21.2902 72.0538 21.4809 71.934C21.6716 71.8382 21.9339 71.7423 22.22 71.6465C22.5061 71.5746 22.8875 71.5267 23.3405 71.5267C23.9604 71.5267 24.5564 71.6225 25.0809 71.7903C25.6054 71.958 26.0823 72.2455 26.4637 72.605C26.8452 72.9644 27.1551 73.3957 27.3697 73.9229C27.5843 74.45 27.6796 75.0731 27.6796 75.768V83.4598C27.6796 83.5796 27.632 83.6994 27.5366 83.7952C27.4412 83.8911 27.322 83.939 27.2028 83.939H26.7498C26.6306 83.939 26.5114 83.8911 26.4161 83.7952C26.3207 83.6994 26.273 83.5796 26.273 83.4598V75.768C26.273 74.7376 25.9869 74.0187 25.3909 73.5874C24.7948 73.1561 24.0796 72.9644 23.1975 72.9644C22.7683 72.9644 22.363 73.0363 21.9816 73.1801C21.6001 73.3238 21.2902 73.5155 21.0041 73.7551C20.718 73.9948 20.5034 74.2823 20.3604 74.6178C20.2173 74.9532 20.122 75.2887 20.122 75.6721V83.5077C20.122 83.6275 20.0743 83.7473 19.9789 83.8432C19.8836 83.939 19.7643 83.9869 19.6451 83.9869H19.1922C19.073 83.9869 18.9537 83.939 18.8584 83.8432C18.763 83.7473 18.7153 83.6275 18.7153 83.5077V72.2935C18.7153 72.1737 18.763 72.0538 18.8584 71.958C18.9537 71.8621 19.073 71.8142 19.1922 71.8142H19.5498C19.669 71.8142 19.7643 71.8621 19.8836 71.9819C19.9551 72.0538 20.0504 72.1497 20.122 72.2455C20.1935 72.2935 20.3127 72.3414 20.4557 72.3414Z" fill="#EEFF12"/>
<path d="M35.6428 80.0572C35.6428 80.9198 35.8812 81.5907 36.3342 82.046C36.7872 82.5013 37.3356 82.7409 37.9554 82.7409C38.6468 82.7409 39.1952 82.5013 39.6005 82.0221C40.0058 81.5428 40.1965 80.9677 40.1965 80.2968C40.1965 80.177 40.2442 80.0572 40.3395 79.9613C40.4349 79.8655 40.5541 79.8176 40.6733 79.8176H41.174C41.2932 79.8176 41.4124 79.8655 41.5078 79.9613C41.6031 80.0572 41.6508 80.177 41.6508 80.2968C41.6508 80.824 41.5555 81.3272 41.3647 81.8064C41.174 82.2856 40.9117 82.693 40.578 83.0524C40.2442 83.4119 39.8627 83.6994 39.4097 83.8911C38.9568 84.0828 38.4561 84.2026 37.9316 84.2026C37.4071 84.2026 36.9064 84.1068 36.4296 83.8911C35.9766 83.6994 35.5713 83.4119 35.2375 83.0524C34.9037 82.693 34.6415 82.2856 34.4508 81.8064C34.26 81.3272 34.1647 80.824 34.1647 80.2968V73.5635C34.1647 73.3957 34.0931 73.3238 33.9263 73.3238H31.2322C31.113 73.3238 30.9938 73.2759 30.8984 73.1801C30.8031 73.0842 30.7554 72.9644 30.7554 72.8446V72.3893C30.7554 72.2695 30.8031 72.1497 30.8984 72.0539C30.9938 71.958 31.113 71.9101 31.2322 71.9101H33.9263C34.0931 71.9101 34.1647 71.8382 34.1647 71.6705V67.8845C34.1647 67.7646 34.2123 67.6448 34.3077 67.549C34.4031 67.4531 34.5223 67.4052 34.6415 67.4052H35.1183C35.2375 67.4052 35.3567 67.4531 35.4521 67.549C35.5475 67.6448 35.5951 67.7646 35.5951 67.8845V71.6465C35.5951 71.8142 35.6667 71.8861 35.8336 71.8861H39.8627C39.9819 71.8861 40.1011 71.934 40.1965 72.0299C40.2919 72.1257 40.3395 72.2455 40.3395 72.3654V72.8206C40.3395 72.9404 40.2919 73.0603 40.1965 73.1561C40.1011 73.252 39.9819 73.2999 39.8627 73.2999H35.8336C35.6667 73.2999 35.5951 73.3718 35.5951 73.5395V80.0572H35.6428Z" fill="#EEFF12"/>
<path d="M46.3951 78.6913C46.3951 79.2664 46.4666 79.8176 46.6096 80.3208C46.7527 80.824 46.9673 81.2553 47.2534 81.6147C47.5395 81.9741 47.9209 82.2617 48.3501 82.4773C48.803 82.669 49.3275 82.7888 49.9713 82.7888C50.4481 82.7888 50.8534 82.717 51.211 82.5972C51.5686 82.4773 51.8786 82.2856 52.1647 82.07C52.4269 81.8543 52.6415 81.6147 52.8084 81.3272C52.9753 81.0396 53.1183 80.776 53.2137 80.4885C53.2613 80.3208 53.3329 80.2249 53.4521 80.153C53.5474 80.1051 53.6667 80.0572 53.7859 80.0572H54.2627C54.3819 80.0572 54.5011 80.1051 54.5965 80.177C54.6918 80.2489 54.7157 80.3687 54.6918 80.5604C54.6203 81.0875 54.4296 81.5907 54.1912 82.046C53.9289 82.5013 53.5951 82.8847 53.1898 83.1962C52.7845 83.5317 52.3077 83.7713 51.7594 83.963C51.211 84.1307 50.6388 84.2266 49.9951 84.2266C49.256 84.2266 48.6123 84.1068 48.0163 83.8671C47.4202 83.6275 46.9196 83.292 46.4904 82.8847C46.0613 82.4773 45.7275 81.9741 45.4653 81.3991C45.203 80.824 45.06 80.2249 45.0123 79.6019C44.9884 79.1227 44.9646 78.5476 44.9646 77.9006C44.9646 77.2536 44.9884 76.6785 45.0123 76.1993C45.06 75.5763 45.203 74.9533 45.4653 74.4021C45.7275 73.827 46.0613 73.3478 46.4904 72.9165C46.9196 72.5091 47.4202 72.1737 48.0163 71.934C48.6123 71.6944 49.256 71.5746 49.9951 71.5746C50.6627 71.5746 51.3064 71.6944 51.9024 71.958C52.4984 72.2216 52.9991 72.5571 53.4521 73.0123C53.9051 73.4676 54.2388 73.9708 54.4773 74.5699C54.7395 75.1689 54.8587 75.7919 54.8587 76.4629V78.0204C54.8587 78.1402 54.811 78.26 54.7157 78.3559C54.6203 78.4517 54.5011 78.4996 54.3819 78.4996H46.705C46.4666 78.4517 46.3951 78.5236 46.3951 78.6913ZM46.4428 76.8463C46.4428 77.014 46.5143 77.0859 46.6812 77.0859H53.2375C53.4044 77.0859 53.4759 77.014 53.4759 76.8463C53.4759 76.2233 53.3806 75.6721 53.2137 75.1929C53.0468 74.7136 52.7845 74.3063 52.4746 73.9708C52.1647 73.6354 51.7832 73.3957 51.3779 73.204C50.9487 73.0363 50.4958 72.9404 49.9951 72.9404C48.9222 72.9404 48.0401 73.2759 47.4202 73.9469C46.7527 74.6418 46.4428 75.6002 46.4428 76.8463Z" fill="#EEFF12"/>
<path d="M67.1371 75.6721C67.1371 74.8814 66.851 74.2344 66.3027 73.7312C65.7543 73.228 64.9914 72.9644 64.0139 72.9644C63.5847 72.9644 63.1794 73.0363 62.798 73.1801C62.4165 73.3238 62.0827 73.5395 61.8205 73.7791C61.5344 74.0427 61.3198 74.3542 61.1768 74.7136C61.0099 75.0731 60.9384 75.4804 60.9384 75.8878V83.4358C60.9384 83.5556 60.8907 83.6754 60.7953 83.7713C60.7 83.8671 60.5808 83.9151 60.4615 83.9151H60.0086C59.8894 83.9151 59.7702 83.8671 59.6748 83.7713C59.5794 83.6754 59.5317 83.5556 59.5317 83.4358V72.2216C59.5317 72.1018 59.5794 71.982 59.6748 71.8861C59.7702 71.7903 59.8894 71.7423 60.0086 71.7423H60.39C60.5092 71.7423 60.6046 71.7903 60.7238 71.9101C60.7953 71.982 60.8907 72.0778 60.9861 72.1737C61.0814 72.2695 61.2006 72.3174 61.3198 72.3174C61.4867 72.3174 61.6774 72.2695 61.8205 72.1976C61.9874 72.1257 62.1781 72.0299 62.3688 71.9101C62.5834 71.8142 62.8218 71.7184 63.1318 71.6225C63.4417 71.5506 63.7993 71.5027 64.2523 71.5027C64.8722 71.5027 65.4444 71.5986 65.9689 71.7903C66.4934 71.982 66.9464 72.2695 67.3278 72.6289C67.7093 72.9884 67.9954 73.4197 68.2338 73.9229C68.4484 74.4261 68.5676 75.0012 68.5676 75.6482C68.5676 75.768 68.5199 75.8878 68.4245 75.9836C68.3292 76.0795 68.21 76.1274 68.0907 76.1274H67.6378C67.5186 76.1274 67.3993 76.0795 67.304 75.9836C67.1848 75.9117 67.1371 75.7919 67.1371 75.6721Z" fill="#EEFF12"/>
<path d="M75.6482 80.0572C75.6482 80.9198 75.8866 81.5907 76.3396 82.046C76.7926 82.5013 77.3409 82.7409 77.9608 82.7409C78.6522 82.7409 79.2005 82.5013 79.6058 82.0221C80.0111 81.5428 80.2019 80.9677 80.2019 80.2968C80.2019 80.177 80.2496 80.0572 80.3449 79.9613C80.4403 79.8655 80.5595 79.8176 80.6787 79.8176H81.1794C81.2986 79.8176 81.4178 79.8655 81.5131 79.9613C81.6085 80.0572 81.6562 80.177 81.6562 80.2968C81.6562 80.824 81.5608 81.3272 81.3701 81.8064C81.1794 82.2856 80.9171 82.693 80.5833 83.0524C80.2496 83.4119 79.8681 83.6994 79.4151 83.8911C78.9621 84.0828 78.4615 84.2026 77.937 84.2026C77.4124 84.2026 76.9118 84.1068 76.435 83.8911C75.982 83.6994 75.5767 83.4119 75.2429 83.0524C74.9091 82.693 74.6469 82.2856 74.4561 81.8064C74.2654 81.3272 74.17 80.824 74.17 80.2968V73.5635C74.17 73.3957 74.0985 73.3238 73.9316 73.3238H71.2376C71.1184 73.3238 70.9992 73.2759 70.9038 73.1801C70.8084 73.0842 70.7607 72.9644 70.7607 72.8446V72.3893C70.7607 72.2695 70.8084 72.1497 70.9038 72.0539C70.9992 71.958 71.1184 71.9101 71.2376 71.9101H73.9316C74.0985 71.9101 74.17 71.8382 74.17 71.6705V67.8845C74.17 67.7646 74.2177 67.6448 74.3131 67.549C74.4085 67.4531 74.5277 67.4052 74.6469 67.4052H75.1237C75.2429 67.4052 75.3621 67.4531 75.4575 67.549C75.5528 67.6448 75.6005 67.7646 75.6005 67.8845V71.6465C75.6005 71.8142 75.672 71.8861 75.8389 71.8861H79.8681C79.9873 71.8861 80.1065 71.934 80.2019 72.0299C80.2972 72.1257 80.3449 72.2455 80.3449 72.3654V72.8206C80.3449 72.9404 80.2972 73.0603 80.2019 73.1561C80.1065 73.252 79.9873 73.2999 79.8681 73.2999H75.8389C75.672 73.2999 75.6005 73.3718 75.6005 73.5395V80.0572H75.6482Z" fill="#EEFF12"/>
<path d="M90.0723 72.8686C89.6908 72.8686 89.3332 72.9165 88.9994 73.0363C88.6657 73.1321 88.3557 73.2999 88.0935 73.4676C87.8312 73.6593 87.6166 73.875 87.4736 74.1386C87.3067 74.4021 87.2352 74.6897 87.2352 75.0252C87.2352 75.2408 87.1637 75.3606 87.0445 75.3846C86.9253 75.4085 86.7822 75.4325 86.6868 75.4325H86.3531C86.0193 75.4325 85.8762 75.2648 85.8762 74.9533C85.8762 74.3782 85.9954 73.8989 86.2339 73.4676C86.4723 73.0363 86.806 72.7008 87.2113 72.4133C87.6166 72.1257 88.0696 71.9101 88.5703 71.7663C89.071 71.6225 89.5716 71.5507 90.0961 71.5507C90.6922 71.5507 91.2644 71.6225 91.7889 71.7903C92.3134 71.958 92.7664 72.1976 93.1717 72.5331C93.577 72.8686 93.8869 73.2759 94.1253 73.7791C94.3637 74.2823 94.4829 74.8814 94.4829 75.5763V83.4838C94.4829 83.6036 94.4352 83.7234 94.3399 83.8192C94.2445 83.9151 94.1253 83.963 94.0061 83.963H93.7915C93.6246 83.963 93.5054 83.9151 93.4577 83.7953C93.3862 83.6994 93.3385 83.5796 93.2909 83.4598C93.2432 83.34 93.1478 83.2681 92.9809 83.2681C92.8617 83.2681 92.7187 83.316 92.5518 83.4119C92.3849 83.5077 92.1465 83.6036 91.9081 83.7234C91.6458 83.8432 91.3359 83.939 91.0021 84.0349C90.6445 84.1307 90.263 84.1786 89.81 84.1786C89.071 84.1786 88.4272 84.0828 87.8551 83.8671C87.3067 83.6515 86.8299 83.3639 86.4723 83.0045C86.1147 82.6451 85.8286 82.2377 85.6617 81.7585C85.4948 81.2792 85.3994 80.8 85.3994 80.2728C85.3994 79.7696 85.4948 79.2904 85.6617 78.8591C85.8286 78.4278 86.0908 78.0444 86.4484 77.7329C86.7822 77.4214 87.2113 77.1578 87.712 76.99C88.2127 76.8223 88.7849 76.7265 89.4047 76.7265H92.7425C92.9094 76.7265 92.9809 76.6546 92.9809 76.4868V75.5284C92.9809 74.7376 92.6948 74.0906 92.1465 73.5874C91.622 73.1082 90.9306 72.8686 90.0723 72.8686ZM89.2855 78.0923C88.618 78.0923 87.9981 78.284 87.4974 78.6434C86.9729 79.0268 86.7107 79.554 86.7107 80.2728C86.7107 80.7042 86.7822 81.0876 86.9491 81.3991C87.0921 81.7106 87.3067 81.9741 87.569 82.1898C87.8312 82.4055 88.1412 82.5492 88.4749 82.669C88.8087 82.7649 89.1663 82.8368 89.5716 82.8368C90.6922 82.8368 91.5505 82.5732 92.1465 82.046C92.7425 81.5189 93.0524 80.776 93.0524 79.7696V78.308C93.0524 78.1402 92.9809 78.0683 92.814 78.0683H89.2855V78.0923Z" fill="#EEFF12"/>
<path d="M99.7042 73.228C99.585 73.228 99.4657 73.1801 99.3704 73.0842C99.275 72.9884 99.2273 72.8686 99.2273 72.7488V72.2695C99.2273 72.1497 99.275 72.0299 99.3704 71.934C99.4657 71.8382 99.585 71.7903 99.7042 71.7903H103.948C104.067 71.7903 104.186 71.8382 104.282 71.934C104.377 72.0299 104.425 72.1497 104.425 72.2695V82.2617C104.425 82.4294 104.496 82.5013 104.663 82.5013H107.834C107.953 82.5013 108.072 82.5492 108.168 82.6451C108.263 82.7409 108.311 82.8607 108.311 82.9805V83.4598C108.311 83.5796 108.263 83.6994 108.168 83.7953C108.072 83.8911 107.953 83.939 107.834 83.939H99.4419C99.3227 83.939 99.2035 83.8911 99.1081 83.7953C99.0128 83.6994 98.9651 83.5796 98.9651 83.4598V82.9805C98.9651 82.8607 99.0128 82.7409 99.1081 82.6451C99.2035 82.5492 99.3227 82.5013 99.4419 82.5013H102.756C102.923 82.5013 102.994 82.4294 102.994 82.2617V73.4916C102.994 73.3238 102.923 73.252 102.756 73.252H99.7042V73.228ZM104.592 68.4116C104.592 68.6752 104.472 68.795 104.21 68.795H102.947C102.684 68.795 102.565 68.6752 102.565 68.4116V67.1177C102.565 67.0218 102.613 66.926 102.684 66.8541C102.756 66.7822 102.851 66.7343 102.97 66.7343H104.234C104.353 66.7343 104.449 66.7822 104.52 66.8541C104.592 66.926 104.639 67.0218 104.639 67.1177V68.4116H104.592Z" fill="#EEFF12"/>
<path d="M113.818 72.3414C113.985 72.3414 114.152 72.2935 114.319 72.2216C114.462 72.1497 114.653 72.0538 114.843 71.934C115.034 71.8382 115.296 71.7423 115.582 71.6465C115.869 71.5746 116.25 71.5267 116.703 71.5267C117.323 71.5267 117.919 71.6225 118.443 71.7903C118.968 71.958 119.445 72.2455 119.826 72.605C120.208 72.9644 120.518 73.3957 120.732 73.9229C120.947 74.45 121.042 75.0731 121.042 75.768V83.4598C121.042 83.5796 120.994 83.6994 120.899 83.7952C120.804 83.8911 120.684 83.939 120.565 83.939H120.112C119.993 83.939 119.874 83.8911 119.779 83.7952C119.683 83.6994 119.635 83.5796 119.635 83.4598V75.768C119.635 74.7376 119.349 74.0187 118.753 73.5874C118.157 73.1561 117.442 72.9644 116.56 72.9644C116.131 72.9644 115.726 73.0363 115.344 73.1801C114.963 73.3238 114.653 73.5155 114.367 73.7551C114.08 73.9948 113.866 74.2823 113.723 74.6178C113.58 74.9532 113.484 75.2887 113.484 75.6721V83.5077C113.484 83.6275 113.437 83.7473 113.341 83.8432C113.246 83.939 113.127 83.9869 113.008 83.9869H112.531C112.412 83.9869 112.292 83.939 112.197 83.8432C112.102 83.7473 112.054 83.6275 112.054 83.5077V72.2935C112.054 72.1737 112.102 72.0538 112.197 71.958C112.292 71.8621 112.412 71.8142 112.531 71.8142H112.912C113.031 71.8142 113.127 71.8621 113.246 71.9819C113.318 72.0538 113.413 72.1497 113.484 72.2455C113.58 72.2935 113.675 72.3414 113.818 72.3414Z" fill="#EEFF12"/>
<path d="M130.197 72.4133C130.34 72.2456 130.578 72.0538 130.888 71.8382C131.198 71.6465 131.675 71.5267 132.271 71.5267C132.7 71.5267 133.058 71.5986 133.368 71.7663C133.678 71.934 133.916 72.1497 134.131 72.4133C134.322 72.7008 134.465 73.0123 134.56 73.3478C134.655 73.7072 134.703 74.0667 134.703 74.4261V83.4358C134.703 83.5556 134.655 83.6754 134.56 83.7713C134.465 83.8671 134.345 83.9151 134.226 83.9151H133.749C133.63 83.9151 133.511 83.8671 133.416 83.7713C133.32 83.6754 133.273 83.5556 133.273 83.4358V74.0906C133.273 73.6593 133.129 73.3718 132.82 73.1801C132.51 73.0123 132.2 72.9165 131.89 72.9165C131.556 72.9165 131.27 73.0123 131.008 73.228C130.745 73.4437 130.602 73.7312 130.602 74.0906V83.4358C130.602 83.5556 130.555 83.6754 130.459 83.7713C130.364 83.8671 130.245 83.9151 130.125 83.9151H129.672C129.553 83.9151 129.434 83.8671 129.339 83.7713C129.243 83.6754 129.196 83.5556 129.196 83.4358V74.0906C129.196 73.7312 129.053 73.4437 128.767 73.228C128.48 73.0123 128.17 72.9165 127.861 72.9165C127.527 72.9165 127.241 73.0123 126.931 73.228C126.645 73.4437 126.502 73.7312 126.502 74.0906V83.4358C126.502 83.5556 126.454 83.6754 126.359 83.7713C126.263 83.8671 126.144 83.9151 126.025 83.9151H125.572C125.453 83.9151 125.333 83.8671 125.238 83.7713C125.143 83.6754 125.095 83.5556 125.095 83.4358V72.2216C125.095 72.1018 125.143 71.982 125.238 71.8861C125.333 71.7903 125.453 71.7423 125.572 71.7423H125.715C125.834 71.7423 125.929 71.7903 126.049 71.9101C126.096 71.982 126.144 72.0299 126.192 72.0539C126.239 72.0778 126.287 72.1018 126.382 72.1018C126.454 72.1018 126.525 72.0778 126.597 72.0059C126.668 71.934 126.788 71.8622 126.907 71.7903C127.026 71.7184 127.193 71.6465 127.36 71.5746C127.551 71.5027 127.789 71.4788 128.075 71.4788C128.504 71.4788 128.862 71.5746 129.124 71.7423C129.386 71.9101 129.601 72.1257 129.744 72.3414C129.816 72.4372 129.887 72.4852 129.982 72.4852C130.03 72.5571 130.125 72.5091 130.197 72.4133Z" fill="#EEFF12"/>
<path d="M139.757 78.6913C139.757 79.2664 139.829 79.8176 139.972 80.3208C140.115 80.824 140.33 81.2553 140.616 81.6147C140.902 81.9741 141.283 82.2617 141.712 82.4773C142.165 82.669 142.69 82.7888 143.334 82.7888C143.81 82.7888 144.216 82.717 144.573 82.5972C144.931 82.4773 145.241 82.2856 145.527 82.07C145.789 81.8543 146.004 81.6147 146.171 81.3272C146.338 81.0396 146.481 80.776 146.576 80.4885C146.624 80.3208 146.695 80.2249 146.814 80.153C146.91 80.1051 147.029 80.0572 147.148 80.0572H147.625C147.744 80.0572 147.863 80.1051 147.959 80.177C148.054 80.2489 148.078 80.3687 148.054 80.5604C147.983 81.0875 147.792 81.5907 147.553 82.046C147.291 82.5013 146.957 82.8847 146.552 83.1962C146.147 83.5317 145.67 83.7713 145.122 83.963C144.573 84.1307 144.001 84.2266 143.357 84.2266C142.618 84.2266 141.975 84.1068 141.379 83.8671C140.783 83.6275 140.282 83.292 139.853 82.8847C139.424 82.4773 139.09 81.9741 138.828 81.3991C138.565 80.824 138.422 80.2249 138.375 79.6019C138.351 79.1227 138.327 78.5476 138.327 77.9006C138.327 77.2536 138.351 76.6785 138.375 76.1993C138.422 75.5763 138.565 74.9533 138.828 74.4021C139.09 73.827 139.424 73.3478 139.853 72.9165C140.282 72.5091 140.783 72.1737 141.379 71.934C141.975 71.6944 142.618 71.5746 143.357 71.5746C144.025 71.5746 144.669 71.6944 145.265 71.958C145.861 72.2216 146.361 72.5571 146.814 73.0123C147.267 73.4676 147.601 73.9708 147.84 74.5699C148.102 75.1689 148.221 75.7919 148.221 76.4629V78.0204C148.221 78.1402 148.173 78.26 148.078 78.3559C147.983 78.4517 147.863 78.4996 147.744 78.4996H140.067C139.829 78.4517 139.757 78.5236 139.757 78.6913ZM139.805 76.8463C139.805 77.014 139.877 77.0859 140.043 77.0859H146.6C146.767 77.0859 146.838 77.014 146.838 76.8463C146.838 76.2233 146.743 75.6721 146.576 75.1929C146.409 74.7136 146.147 74.3063 145.837 73.9708C145.527 73.6354 145.145 73.3957 144.74 73.204C144.311 73.0363 143.858 72.9404 143.357 72.9404C142.285 72.9404 141.402 73.2759 140.783 73.9469C140.115 74.6418 139.805 75.6002 139.805 76.8463Z" fill="#EEFF12"/>
<path d="M153.848 72.3414C154.014 72.3414 154.181 72.2935 154.348 72.2216C154.491 72.1497 154.682 72.0538 154.873 71.934C155.063 71.8382 155.326 71.7423 155.612 71.6465C155.898 71.5746 156.279 71.5267 156.732 71.5267C157.352 71.5267 157.948 71.6225 158.473 71.7903C158.997 71.958 159.474 72.2455 159.856 72.605C160.237 72.9644 160.547 73.3957 160.762 73.9229C160.976 74.45 161.071 75.0731 161.071 75.768V83.4598C161.071 83.5796 161.024 83.6994 160.928 83.7952C160.833 83.8911 160.714 83.939 160.595 83.939H160.142C160.022 83.939 159.903 83.8911 159.808 83.7952C159.713 83.6994 159.665 83.5796 159.665 83.4598V75.768C159.665 74.7376 159.379 74.0187 158.783 73.5874C158.187 73.1561 157.471 72.9644 156.589 72.9644C156.16 72.9644 155.755 73.0363 155.373 73.1801C154.992 73.3238 154.682 73.5155 154.396 73.7551C154.11 73.9948 153.895 74.2823 153.752 74.6178C153.609 74.9532 153.514 75.2887 153.514 75.6721V83.5077C153.514 83.6275 153.466 83.7473 153.371 83.8432C153.275 83.939 153.156 83.9869 153.037 83.9869H152.584C152.465 83.9869 152.346 83.939 152.25 83.8432C152.155 83.7473 152.107 83.6275 152.107 83.5077V72.2935C152.107 72.1737 152.155 72.0538 152.25 71.958C152.346 71.8621 152.465 71.8142 152.584 71.8142H152.965C153.085 71.8142 153.18 71.8621 153.299 71.9819C153.371 72.0538 153.466 72.1497 153.538 72.2455C153.585 72.2935 153.705 72.3414 153.848 72.3414Z" fill="#EEFF12"/>
<path d="M169.034 80.0572C169.034 80.9198 169.273 81.5907 169.726 82.046C170.179 82.5013 170.727 82.7409 171.347 82.7409C172.038 82.7409 172.587 82.5013 172.992 82.0221C173.397 81.5428 173.588 80.9677 173.588 80.2968C173.588 80.177 173.636 80.0572 173.731 79.9613C173.827 79.8655 173.946 79.8176 174.065 79.8176H174.566C174.685 79.8176 174.804 79.8655 174.899 79.9613C174.995 80.0572 175.042 80.177 175.042 80.2968C175.042 80.824 174.947 81.3272 174.756 81.8064C174.566 82.2856 174.303 82.693 173.97 83.0524C173.636 83.4119 173.254 83.6994 172.801 83.8911C172.348 84.0828 171.848 84.2026 171.323 84.2026C170.799 84.2026 170.298 84.1068 169.821 83.8911C169.368 83.6994 168.963 83.4119 168.629 83.0524C168.295 82.693 168.033 82.2856 167.842 81.8064C167.652 81.3272 167.556 80.824 167.556 80.2968V73.5635C167.556 73.3957 167.485 73.3238 167.318 73.3238H164.624C164.505 73.3238 164.385 73.2759 164.29 73.1801C164.195 73.0842 164.147 72.9644 164.147 72.8446V72.3893C164.147 72.2695 164.195 72.1497 164.29 72.0539C164.385 71.958 164.505 71.9101 164.624 71.9101H167.318C167.485 71.9101 167.556 71.8382 167.556 71.6705V67.8845C167.556 67.7646 167.604 67.6448 167.699 67.549C167.795 67.4531 167.914 67.4052 168.033 67.4052H168.51C168.629 67.4052 168.748 67.4531 168.844 67.549C168.939 67.6448 168.987 67.7646 168.987 67.8845V71.6465C168.987 71.8142 169.058 71.8861 169.225 71.8861H173.254C173.374 71.8861 173.493 71.934 173.588 72.0299C173.683 72.1257 173.731 72.2455 173.731 72.3654V72.8206C173.731 72.9404 173.683 73.0603 173.588 73.1561C173.493 73.252 173.374 73.2999 173.254 73.2999H169.273C169.106 73.2999 169.034 73.3718 169.034 73.5395V80.0572Z" fill="#EEFF12"/>
</svg>
