<svg width="413" height="65" viewBox="0 0 413 65" fill="none" xmlns="http://www.w3.org/2000/svg">
<path d="M14.81 46.57C16.35 46.57 17.68 46.3367 18.8 45.87C19.92 45.3567 20.8533 44.7267 21.6 43.98C22.3467 43.1867 22.8833 42.3233 23.21 41.39C23.5833 40.4567 23.77 39.5233 23.77 38.59C23.77 38.1233 23.91 37.82 24.19 37.68C24.47 37.4933 24.7733 37.4 25.1 37.4H26.57C26.9433 37.4 27.27 37.54 27.55 37.82C27.83 38.1 27.97 38.4267 27.97 38.8C27.97 40.3867 27.6433 41.9033 26.99 43.35C26.3833 44.75 25.4967 46.01 24.33 47.13C23.1633 48.2033 21.7633 49.0667 20.13 49.72C18.5433 50.3733 16.77 50.7 14.81 50.7C12.71 50.7 10.82 50.35 9.14 49.65C7.46 48.95 6.01333 48.0167 4.8 46.85C3.58667 45.6367 2.63 44.2133 1.93 42.58C1.23 40.9467 0.81 39.22 0.67 37.4C0.576667 36 0.53 34.3667 0.53 32.5C0.53 30.6333 0.576667 29 0.67 27.6C0.81 25.78 1.23 24.0533 1.93 22.42C2.63 20.7867 3.58667 19.3867 4.8 18.22C6.01333 17.0067 7.46 16.05 9.14 15.35C10.82 14.65 12.71 14.3 14.81 14.3C16.77 14.3 18.5433 14.6267 20.13 15.28C21.7633 15.9333 23.1633 16.82 24.33 17.94C25.4967 19.0133 26.3833 20.2733 26.99 21.72C27.6433 23.12 27.97 24.6133 27.97 26.2C27.97 26.5733 27.8533 26.9 27.62 27.18C27.4333 27.46 27.1533 27.6 26.78 27.6H25.17C24.8433 27.6 24.54 27.5067 24.26 27.32C23.98 27.1333 23.84 26.8533 23.84 26.48C23.84 25.4533 23.63 24.45 23.21 23.47C22.8367 22.49 22.2533 21.6267 21.46 20.88C20.7133 20.1333 19.78 19.55 18.66 19.13C17.54 18.6633 16.2567 18.43 14.81 18.43C13.0367 18.43 11.5433 18.7333 10.33 19.34C9.11667 19.9467 8.11333 20.7167 7.32 21.65C6.57333 22.5367 6.01333 23.5167 5.64 24.59C5.26667 25.6633 5.03333 26.6667 4.94 27.6C4.8 29.0467 4.73 30.68 4.73 32.5C4.73 34.32 4.8 35.9533 4.94 37.4C5.03333 38.3333 5.26667 39.3367 5.64 40.41C6.01333 41.4833 6.57333 42.4867 7.32 43.42C8.11333 44.3067 9.11667 45.0533 10.33 45.66C11.5433 46.2667 13.0367 46.57 14.81 46.57ZM52.7363 14.3C54.8363 14.3 56.7263 14.65 58.4063 15.35C60.0863 16.05 61.533 17.0067 62.7463 18.22C63.9597 19.3867 64.9163 20.7867 65.6163 22.42C66.3163 24.0533 66.7363 25.78 66.8763 27.6C66.9697 29 67.0163 30.6333 67.0163 32.5C67.0163 34.3667 66.9697 36 66.8763 37.4C66.7363 39.22 66.3163 40.9467 65.6163 42.58C64.9163 44.2133 63.9597 45.6367 62.7463 46.85C61.533 48.0167 60.0863 48.95 58.4063 49.65C56.7263 50.35 54.8363 50.7 52.7363 50.7C50.6363 50.7 48.7463 50.35 47.0663 49.65C45.3863 48.95 43.9397 48.0167 42.7263 46.85C41.513 45.6367 40.5563 44.2133 39.8563 42.58C39.1563 40.9467 38.7363 39.22 38.5963 37.4C38.503 36 38.4563 34.3667 38.4563 32.5C38.4563 30.6333 38.503 29 38.5963 27.6C38.7363 25.78 39.1563 24.0533 39.8563 22.42C40.5563 20.7867 41.513 19.3867 42.7263 18.22C43.9397 17.0067 45.3863 16.05 47.0663 15.35C48.7463 14.65 50.6363 14.3 52.7363 14.3ZM52.7363 46.57C54.463 46.57 55.933 46.2667 57.1463 45.66C58.4063 45.0533 59.4097 44.3067 60.1563 43.42C60.9497 42.4867 61.533 41.4833 61.9063 40.41C62.2797 39.3367 62.513 38.3333 62.6063 37.4C62.7463 35.9533 62.8163 34.32 62.8163 32.5C62.8163 30.68 62.7463 29.0467 62.6063 27.6C62.513 26.6667 62.2797 25.6633 61.9063 24.59C61.533 23.5167 60.9497 22.5367 60.1563 21.65C59.4097 20.7167 58.4063 19.9467 57.1463 19.34C55.933 18.7333 54.463 18.43 52.7363 18.43C50.963 18.43 49.4697 18.7333 48.2563 19.34C47.043 19.9467 46.0397 20.7167 45.2463 21.65C44.4997 22.5367 43.9397 23.5167 43.5663 24.59C43.193 25.6633 42.9597 26.6667 42.8663 27.6C42.7263 29.0467 42.6563 30.68 42.6563 32.5C42.6563 34.32 42.7263 35.9533 42.8663 37.4C42.9597 38.3333 43.193 39.3367 43.5663 40.41C43.9397 41.4833 44.4997 42.4867 45.2463 43.42C46.0397 44.3067 47.043 45.0533 48.2563 45.66C49.4697 46.2667 50.963 46.57 52.7363 46.57ZM92.1327 16.82C92.5527 16.3067 93.206 15.77 94.0927 15.21C95.026 14.6033 96.3793 14.3 98.1527 14.3C99.366 14.3 100.416 14.5333 101.303 15C102.189 15.4667 102.913 16.0967 103.473 16.89C104.033 17.6833 104.429 18.5933 104.663 19.62C104.943 20.6 105.083 21.6267 105.083 22.7V48.6C105.083 48.9733 104.943 49.3 104.663 49.58C104.383 49.86 104.056 50 103.683 50H102.353C101.979 50 101.653 49.86 101.373 49.58C101.093 49.3 100.953 48.9733 100.953 48.6V21.79C100.953 20.5767 100.509 19.7133 99.6227 19.2C98.7827 18.6867 97.896 18.43 96.9627 18.43C96.0293 18.43 95.166 18.7333 94.3727 19.34C93.626 19.9467 93.2527 20.7633 93.2527 21.79V48.6C93.2527 48.9733 93.1127 49.3 92.8327 49.58C92.5527 49.86 92.226 50 91.8527 50H90.5227C90.1493 50 89.8227 49.86 89.5427 49.58C89.2627 49.3 89.1227 48.9733 89.1227 48.6V21.79C89.1227 20.7633 88.7027 19.9467 87.8627 19.34C87.0693 18.7333 86.206 18.43 85.2727 18.43C84.3393 18.43 83.4527 18.7333 82.6127 19.34C81.7727 19.9467 81.3527 20.7633 81.3527 21.79V48.6C81.3527 48.9733 81.2127 49.3 80.9327 49.58C80.6527 49.86 80.326 50 79.9527 50H78.6227C78.2493 50 77.9227 49.86 77.6427 49.58C77.3627 49.3 77.2227 48.9733 77.2227 48.6V16.4C77.2227 16.0267 77.3627 15.7 77.6427 15.42C77.9227 15.14 78.2493 15 78.6227 15H79.0427C79.3693 15 79.696 15.1633 80.0227 15.49C80.1627 15.6767 80.2793 15.8167 80.3727 15.91C80.5127 16.0033 80.6993 16.05 80.9327 16.05C81.1193 16.05 81.3293 15.9567 81.5627 15.77C81.796 15.5833 82.076 15.3967 82.4027 15.21C82.776 14.9767 83.2193 14.7667 83.7327 14.58C84.2927 14.3933 84.9927 14.3 85.8327 14.3C87.0927 14.3 88.096 14.5567 88.8427 15.07C89.5893 15.5833 90.196 16.1667 90.6627 16.82C90.8493 17.1 91.0827 17.24 91.3627 17.24C91.6427 17.24 91.8993 17.1 92.1327 16.82ZM133.699 5.34C133.699 6.08666 133.326 6.46 132.579 6.46H128.939C128.192 6.46 127.819 6.08666 127.819 5.34V1.63C127.819 1.35 127.912 1.09333 128.099 0.859998C128.332 0.626665 128.612 0.509999 128.939 0.509999H132.579C132.906 0.509999 133.162 0.626665 133.349 0.859998C133.582 1.09333 133.699 1.35 133.699 1.63V5.34ZM119.629 19.2C119.256 19.2 118.929 19.06 118.649 18.78C118.369 18.5 118.229 18.1733 118.229 17.8V16.4C118.229 16.0267 118.369 15.7 118.649 15.42C118.929 15.14 119.256 15 119.629 15H131.879C132.252 15 132.579 15.14 132.859 15.42C133.139 15.7 133.279 16.0267 133.279 16.4V45.1C133.279 45.5667 133.512 45.8 133.979 45.8H143.149C143.522 45.8 143.849 45.94 144.129 46.22C144.409 46.5 144.549 46.8267 144.549 47.2V48.6C144.549 48.9733 144.409 49.3 144.129 49.58C143.849 49.86 143.522 50 143.149 50H118.929C118.556 50 118.229 49.86 117.949 49.58C117.669 49.3 117.529 48.9733 117.529 48.6V47.2C117.529 46.8267 117.669 46.5 117.949 46.22C118.229 45.94 118.556 45.8 118.929 45.8H128.379C128.846 45.8 129.079 45.5667 129.079 45.1V19.9C129.079 19.4333 128.846 19.2 128.379 19.2H119.629ZM160.355 16.61C160.869 16.61 161.335 16.4933 161.755 16.26C162.222 16.0267 162.735 15.77 163.295 15.49C163.902 15.1633 164.625 14.8833 165.465 14.65C166.305 14.4167 167.379 14.3 168.685 14.3C170.505 14.3 172.185 14.5567 173.725 15.07C175.265 15.5833 176.595 16.3533 177.715 17.38C178.835 18.4067 179.699 19.69 180.305 21.23C180.912 22.7233 181.215 24.4733 181.215 26.48V48.6C181.215 48.9733 181.075 49.3 180.795 49.58C180.515 49.86 180.189 50 179.815 50H178.485C178.112 50 177.785 49.86 177.505 49.58C177.225 49.3 177.085 48.9733 177.085 48.6V26.48C177.085 23.54 176.222 21.4633 174.495 20.25C172.815 19.0367 170.715 18.43 168.195 18.43C166.935 18.43 165.769 18.64 164.695 19.06C163.622 19.4333 162.665 19.97 161.825 20.67C161.032 21.37 160.402 22.1867 159.935 23.12C159.515 24.0533 159.305 25.0567 159.305 26.13V48.6C159.305 48.9733 159.165 49.3 158.885 49.58C158.605 49.86 158.279 50 157.905 50H156.575C156.202 50 155.875 49.86 155.595 49.58C155.315 49.3 155.175 48.9733 155.175 48.6V16.4C155.175 16.0267 155.315 15.7 155.595 15.42C155.875 15.14 156.202 15 156.575 15H157.695C158.022 15 158.349 15.1633 158.675 15.49C158.909 15.7233 159.142 15.98 159.375 16.26C159.609 16.4933 159.935 16.61 160.355 16.61ZM218.652 15C219.025 15 219.352 15.14 219.632 15.42C219.912 15.7 220.052 16.0267 220.052 16.4V52.1C220.052 53.78 219.748 55.39 219.142 56.93C218.535 58.47 217.672 59.8 216.552 60.92C215.478 62.0867 214.172 62.9967 212.632 63.65C211.138 64.35 209.458 64.7 207.592 64.7C206.192 64.7 204.815 64.49 203.462 64.07C202.155 63.6967 200.942 63.09 199.822 62.25C198.702 61.4567 197.722 60.4533 196.882 59.24C196.088 58.0733 195.528 56.6967 195.202 55.11C194.968 54.0367 195.388 53.5 196.462 53.5H197.582C198.188 53.5 198.608 53.64 198.842 53.92C199.075 54.2 199.262 54.5267 199.402 54.9C199.635 55.5533 199.962 56.2067 200.382 56.86C200.802 57.56 201.338 58.1667 201.992 58.68C202.645 59.24 203.438 59.6833 204.372 60.01C205.305 60.3833 206.378 60.57 207.592 60.57C208.898 60.57 210.065 60.3133 211.092 59.8C212.118 59.3333 212.982 58.7033 213.682 57.91C214.428 57.1167 214.988 56.2067 215.362 55.18C215.735 54.2 215.922 53.1733 215.922 52.1V50.7C215.922 49.5333 215.408 48.95 214.382 48.95C214.008 48.95 213.565 49.0433 213.052 49.23C212.538 49.4167 211.955 49.6267 211.302 49.86C210.648 50.0467 209.925 50.2333 209.132 50.42C208.385 50.6067 207.615 50.7 206.822 50.7C205.002 50.7 203.298 50.35 201.712 49.65C200.172 48.95 198.818 48.0167 197.652 46.85C196.485 45.6367 195.528 44.2133 194.782 42.58C194.082 40.9467 193.662 39.22 193.522 37.4C193.428 36 193.382 34.3667 193.382 32.5C193.382 30.6333 193.428 29 193.522 27.6C193.662 25.78 194.082 24.0533 194.782 22.42C195.528 20.7867 196.485 19.3867 197.652 18.22C198.818 17.0067 200.172 16.05 201.712 15.35C203.298 14.65 205.002 14.3 206.822 14.3C208.128 14.3 209.178 14.4167 209.972 14.65C210.765 14.8833 211.442 15.1633 212.002 15.49C212.562 15.77 213.028 16.0267 213.402 16.26C213.822 16.4933 214.288 16.61 214.802 16.61C215.175 16.61 215.502 16.4933 215.782 16.26C216.062 15.98 216.318 15.7233 216.552 15.49C216.878 15.1633 217.205 15 217.532 15H218.652ZM207.172 18.43C205.445 18.43 203.998 18.7333 202.832 19.34C201.712 19.9467 200.778 20.7167 200.032 21.65C199.332 22.5367 198.795 23.5167 198.422 24.59C198.095 25.6633 197.885 26.6667 197.792 27.6C197.605 29.0467 197.512 30.68 197.512 32.5C197.512 34.32 197.605 35.9533 197.792 37.4C197.885 38.3333 198.095 39.3367 198.422 40.41C198.795 41.4833 199.332 42.4867 200.032 43.42C200.778 44.3067 201.735 45.0533 202.902 45.66C204.068 46.2667 205.492 46.57 207.172 46.57C208.712 46.57 210.018 46.2667 211.092 45.66C212.165 45.0533 213.028 44.3067 213.682 43.42C214.335 42.4867 214.825 41.4833 215.152 40.41C215.478 39.3367 215.688 38.3333 215.782 37.4C215.922 35.9533 215.992 34.32 215.992 32.5C215.992 30.68 215.922 29.0467 215.782 27.6C215.688 26.6667 215.478 25.6633 215.152 24.59C214.825 23.5167 214.335 22.5367 213.682 21.65C213.028 20.7167 212.165 19.9467 211.092 19.34C210.018 18.7333 208.712 18.43 207.172 18.43ZM270.144 38.59C270.144 38.2167 270.284 37.89 270.564 37.61C270.844 37.33 271.171 37.19 271.544 37.19H272.874C273.248 37.19 273.574 37.33 273.854 37.61C274.134 37.89 274.274 38.2167 274.274 38.59C274.274 39.85 274.508 40.9933 274.974 42.02C275.488 43 276.164 43.84 277.004 44.54C277.844 45.24 278.824 45.7767 279.944 46.15C281.111 46.4767 282.348 46.64 283.654 46.64C286.548 46.64 288.811 45.9867 290.444 44.68C292.124 43.3733 292.964 41.7633 292.964 39.85C292.964 38.73 292.661 37.7967 292.054 37.05C291.448 36.3033 290.678 35.6967 289.744 35.23C288.811 34.7167 287.761 34.32 286.594 34.04C285.474 33.76 284.378 33.55 283.304 33.41C281.764 33.1767 280.271 32.8733 278.824 32.5C277.378 32.08 276.094 31.52 274.974 30.82C273.901 30.0733 273.014 29.1633 272.314 28.09C271.661 26.97 271.334 25.5933 271.334 23.96C271.334 22.6067 271.661 21.3467 272.314 20.18C273.014 18.9667 273.924 17.94 275.044 17.1C276.211 16.2133 277.541 15.5367 279.034 15.07C280.528 14.5567 282.068 14.3 283.654 14.3C285.241 14.3 286.758 14.5333 288.204 15C289.651 15.4667 290.934 16.1667 292.054 17.1C293.174 17.9867 294.061 19.0833 294.714 20.39C295.414 21.65 295.764 23.12 295.764 24.8C295.764 25.1733 295.624 25.5 295.344 25.78C295.064 26.06 294.738 26.2 294.364 26.2H293.034C292.661 26.2 292.334 26.06 292.054 25.78C291.774 25.5 291.634 25.1733 291.634 24.8C291.634 23.0267 290.911 21.4867 289.464 20.18C288.018 18.8733 286.081 18.22 283.654 18.22C281.181 18.22 279.198 18.8033 277.704 19.97C276.258 21.1367 275.534 22.4667 275.534 23.96C275.534 24.94 275.768 25.7333 276.234 26.34C276.748 26.9467 277.378 27.4367 278.124 27.81C278.871 28.1833 279.711 28.4867 280.644 28.72C281.578 28.9067 282.464 29.07 283.304 29.21C284.751 29.49 286.291 29.84 287.924 30.26C289.558 30.68 291.051 31.2867 292.404 32.08C293.758 32.8267 294.878 33.83 295.764 35.09C296.651 36.35 297.094 37.9367 297.094 39.85C297.094 41.3433 296.768 42.7433 296.114 44.05C295.508 45.3567 294.598 46.5 293.384 47.48C292.218 48.46 290.794 49.2533 289.114 49.86C287.481 50.42 285.661 50.7 283.654 50.7C281.881 50.7 280.178 50.4433 278.544 49.93C276.958 49.4167 275.534 48.6467 274.274 47.62C273.014 46.5933 272.011 45.3333 271.264 43.84C270.518 42.3 270.144 40.55 270.144 38.59ZM322.141 14.3C324.241 14.3 326.131 14.65 327.811 15.35C329.491 16.05 330.937 17.0067 332.151 18.22C333.364 19.3867 334.321 20.7867 335.021 22.42C335.721 24.0533 336.141 25.78 336.281 27.6C336.374 29 336.421 30.6333 336.421 32.5C336.421 34.3667 336.374 36 336.281 37.4C336.141 39.22 335.721 40.9467 335.021 42.58C334.321 44.2133 333.364 45.6367 332.151 46.85C330.937 48.0167 329.491 48.95 327.811 49.65C326.131 50.35 324.241 50.7 322.141 50.7C320.041 50.7 318.151 50.35 316.471 49.65C314.791 48.95 313.344 48.0167 312.131 46.85C310.917 45.6367 309.961 44.2133 309.261 42.58C308.561 40.9467 308.141 39.22 308.001 37.4C307.907 36 307.861 34.3667 307.861 32.5C307.861 30.6333 307.907 29 308.001 27.6C308.141 25.78 308.561 24.0533 309.261 22.42C309.961 20.7867 310.917 19.3867 312.131 18.22C313.344 17.0067 314.791 16.05 316.471 15.35C318.151 14.65 320.041 14.3 322.141 14.3ZM322.141 46.57C323.867 46.57 325.337 46.2667 326.551 45.66C327.811 45.0533 328.814 44.3067 329.561 43.42C330.354 42.4867 330.937 41.4833 331.311 40.41C331.684 39.3367 331.917 38.3333 332.011 37.4C332.151 35.9533 332.221 34.32 332.221 32.5C332.221 30.68 332.151 29.0467 332.011 27.6C331.917 26.6667 331.684 25.6633 331.311 24.59C330.937 23.5167 330.354 22.5367 329.561 21.65C328.814 20.7167 327.811 19.9467 326.551 19.34C325.337 18.7333 323.867 18.43 322.141 18.43C320.367 18.43 318.874 18.7333 317.661 19.34C316.447 19.9467 315.444 20.7167 314.651 21.65C313.904 22.5367 313.344 23.5167 312.971 24.59C312.597 25.6633 312.364 26.6667 312.271 27.6C312.131 29.0467 312.061 30.68 312.061 32.5C312.061 34.32 312.131 35.9533 312.271 37.4C312.364 38.3333 312.597 39.3367 312.971 40.41C313.344 41.4833 313.904 42.4867 314.651 43.42C315.444 44.3067 316.447 45.0533 317.661 45.66C318.874 46.2667 320.367 46.57 322.141 46.57ZM360.627 14.3C362.727 14.3 364.617 14.65 366.297 15.35C367.977 16.05 369.424 17.0067 370.637 18.22C371.85 19.3867 372.807 20.7867 373.507 22.42C374.207 24.0533 374.627 25.78 374.767 27.6C374.86 29 374.907 30.6333 374.907 32.5C374.907 34.3667 374.86 36 374.767 37.4C374.627 39.22 374.207 40.9467 373.507 42.58C372.807 44.2133 371.85 45.6367 370.637 46.85C369.424 48.0167 367.977 48.95 366.297 49.65C364.617 50.35 362.727 50.7 360.627 50.7C358.527 50.7 356.637 50.35 354.957 49.65C353.277 48.95 351.83 48.0167 350.617 46.85C349.404 45.6367 348.447 44.2133 347.747 42.58C347.047 40.9467 346.627 39.22 346.487 37.4C346.394 36 346.347 34.3667 346.347 32.5C346.347 30.6333 346.394 29 346.487 27.6C346.627 25.78 347.047 24.0533 347.747 22.42C348.447 20.7867 349.404 19.3867 350.617 18.22C351.83 17.0067 353.277 16.05 354.957 15.35C356.637 14.65 358.527 14.3 360.627 14.3ZM360.627 46.57C362.354 46.57 363.824 46.2667 365.037 45.66C366.297 45.0533 367.3 44.3067 368.047 43.42C368.84 42.4867 369.424 41.4833 369.797 40.41C370.17 39.3367 370.404 38.3333 370.497 37.4C370.637 35.9533 370.707 34.32 370.707 32.5C370.707 30.68 370.637 29.0467 370.497 27.6C370.404 26.6667 370.17 25.6633 369.797 24.59C369.424 23.5167 368.84 22.5367 368.047 21.65C367.3 20.7167 366.297 19.9467 365.037 19.34C363.824 18.7333 362.354 18.43 360.627 18.43C358.854 18.43 357.36 18.7333 356.147 19.34C354.934 19.9467 353.93 20.7167 353.137 21.65C352.39 22.5367 351.83 23.5167 351.457 24.59C351.084 25.6633 350.85 26.6667 350.757 27.6C350.617 29.0467 350.547 30.68 350.547 32.5C350.547 34.32 350.617 35.9533 350.757 37.4C350.85 38.3333 351.084 39.3367 351.457 40.41C351.83 41.4833 352.39 42.4867 353.137 43.42C353.93 44.3067 354.934 45.0533 356.147 45.66C357.36 46.2667 358.854 46.57 360.627 46.57ZM391.273 16.61C391.787 16.61 392.253 16.4933 392.673 16.26C393.14 16.0267 393.653 15.77 394.213 15.49C394.82 15.1633 395.543 14.8833 396.383 14.65C397.223 14.4167 398.297 14.3 399.603 14.3C401.423 14.3 403.103 14.5567 404.643 15.07C406.183 15.5833 407.513 16.3533 408.633 17.38C409.753 18.4067 410.617 19.69 411.223 21.23C411.83 22.7233 412.133 24.4733 412.133 26.48V48.6C412.133 48.9733 411.993 49.3 411.713 49.58C411.433 49.86 411.107 50 410.733 50H409.403C409.03 50 408.703 49.86 408.423 49.58C408.143 49.3 408.003 48.9733 408.003 48.6V26.48C408.003 23.54 407.14 21.4633 405.413 20.25C403.733 19.0367 401.633 18.43 399.113 18.43C397.853 18.43 396.687 18.64 395.613 19.06C394.54 19.4333 393.583 19.97 392.743 20.67C391.95 21.37 391.32 22.1867 390.853 23.12C390.433 24.0533 390.223 25.0567 390.223 26.13V48.6C390.223 48.9733 390.083 49.3 389.803 49.58C389.523 49.86 389.197 50 388.823 50H387.493C387.12 50 386.793 49.86 386.513 49.58C386.233 49.3 386.093 48.9733 386.093 48.6V16.4C386.093 16.0267 386.233 15.7 386.513 15.42C386.793 15.14 387.12 15 387.493 15H388.613C388.94 15 389.267 15.1633 389.593 15.49C389.827 15.7233 390.06 15.98 390.293 16.26C390.527 16.4933 390.853 16.61 391.273 16.61Z" fill="black"/>
</svg>
