<?xml version="1.0" encoding="UTF-8"?>
<!-- Generated by Pixelmator Pro 3.4.3 -->
<svg width="183" height="46" viewBox="0 0 183 46" xmlns="http://www.w3.org/2000/svg">
    <path id="Path" fill="#ffffff" fill-rule="evenodd" stroke="none" d="M 178.703995 0.112503 L 140.139999 0.112503 C 138.287003 0.112503 136.737 1.591599 136.737 3.3741 L 136.737 42.247002 C 136.737 44.067001 137.757996 45.508003 139.610992 45.508003 L 178.212997 45.508003 C 180.065002 45.508003 182.031006 44.028999 182.031006 42.247002 L 182.031006 3.3741 C 181.994003 1.591599 180.557007 0.112503 178.703995 0.112503 Z M 153.977997 17.406097 L 160.065002 17.406097 L 160.065002 20.515999 L 160.139999 20.515999 C 161.085999 18.847298 163.807999 17.140701 167.210999 17.140701 C 173.714005 17.140701 175.528 20.591797 175.528 27.039001 L 175.528 39.023003 L 169.063004 39.023003 L 169.063004 28.214699 C 169.063004 25.332397 167.929001 22.829399 165.244995 22.829399 C 161.992996 22.829399 160.442993 25.028999 160.442993 28.669701 L 160.442993 39.060997 L 153.977997 39.060997 L 153.977997 17.406097 Z M 143.201996 39.060997 L 149.667999 39.060997 L 149.667999 17.444099 L 143.201996 17.444099 L 143.201996 39.060997 Z M 150.462006 9.8592 C 150.462006 12.096703 148.647003 13.917099 146.416 13.917099 C 144.184998 13.917099 142.371002 12.096703 142.371002 9.8592 C 142.371002 7.621597 144.184998 5.801201 146.416 5.801201 C 148.647003 5.801201 150.462006 7.621597 150.462006 9.8592 Z"/>
    <path id="path1" fill="#ffffff" stroke="none" d="M 130.233994 39.060997 L 124.184998 39.060997 L 124.184998 36.482002 L 124.147003 36.482002 C 122.824005 38.037003 120.479996 39.325996 116.509995 39.325996 C 111.104004 39.325996 106.490997 35.268997 106.490997 28.252502 C 106.490997 21.577698 111.065994 17.140602 116.737 17.140602 C 120.253006 17.140602 122.408005 18.392097 123.731003 19.984901 L 123.807007 19.984901 L 123.807007 6.597504 L 130.272003 6.597504 L 130.272003 39.060997 L 130.233994 39.060997 Z M 118.363007 22.032799 C 114.658005 22.032799 112.578003 24.687599 112.578003 28.176598 C 112.578003 31.703598 114.658005 34.433998 118.363007 34.433998 C 122.067993 34.433998 124.223007 31.741501 124.223007 28.176598 C 124.223007 24.497902 122.067993 22.032799 118.363007 22.032799 Z"/>
    <path id="path2" fill="#ffffff" stroke="none" d="M 103.654999 35.571999 C 102.143005 37.543999 98.966995 39.325996 93.901001 39.325996 C 87.133003 39.325996 82.822998 34.813004 82.822998 27.759499 C 82.822998 21.463997 86.717003 17.140602 94.089996 17.140602 C 100.442001 17.140602 104.373993 21.350304 104.373993 28.707603 C 104.373993 29.4282 104.259995 30.186699 104.259995 30.186699 L 88.910004 30.186699 L 88.947998 30.869301 C 89.363998 32.727997 90.763 35.002998 94.014 35.002998 C 96.811996 35.002998 98.740005 33.486 99.610001 32.309998 L 103.654999 35.571999 Z M 98.134995 26.090797 C 98.173004 23.815399 96.509995 21.501999 93.862999 21.501999 C 90.724998 21.501999 89.060997 23.967102 88.872002 26.090797 L 98.134995 26.090797 Z"/>
    <path id="path3" fill="#ffffff" stroke="none" d="M 82.822998 17.405998 L 75.262001 17.405998 L 67.737801 26.090797 L 67.737801 6.597504 L 61.272598 6.597504 L 61.272598 39.060997 L 67.737801 39.060997 L 67.737801 28.252502 L 75.714996 39.060997 L 83.351997 39.060997 L 74.203003 27.2285 L 82.822998 17.405998 Z"/>
    <path id="path4" fill="#ffffff" stroke="none" d="M 35.374001 17.406097 L 41.461098 17.406097 L 41.461098 20.5159 L 41.536697 20.5159 C 42.481903 18.847198 45.204102 17.140602 48.606796 17.140602 C 55.109802 17.140602 56.924599 21.274399 56.924599 27.038902 L 56.924599 39.023003 L 50.459396 39.023003 L 50.459396 28.2146 C 50.459396 25.0289 49.325203 22.8293 46.6408 22.8293 C 43.389297 22.8293 41.839203 25.408203 41.839203 28.669701 L 41.839203 39.060997 L 35.374001 39.060997 L 35.374001 17.406097 Z"/>
    <path id="path5" fill="#ffffff" stroke="none" d="M 24.598701 39.060997 L 31.063801 39.060997 L 31.063801 17.444 L 24.598701 17.444 L 24.598701 39.060997 Z M 27.850201 13.765297 C 30.005199 13.765297 31.7444 12.020798 31.7444 9.8591 C 31.7444 7.697403 30.005199 5.952904 27.850201 5.952904 C 25.695099 5.952904 23.955898 7.697403 23.955898 9.8591 C 23.955898 12.020798 25.695099 13.765297 27.850201 13.765297 Z"/>
    <path id="path6" fill="#ffffff" stroke="none" d="M 7.3582 6.597504 L 0.893101 6.597504 L 0.893101 39.060997 L 20.288601 39.060997 L 20.288601 32.575996 L 7.3582 32.575996 L 7.3582 6.597504 Z"/>
</svg>
