<svg width="247" height="182" viewBox="0 0 247 182" fill="none" xmlns="http://www.w3.org/2000/svg">
<path fill-rule="evenodd" clip-rule="evenodd" d="M210.704 68.1125H172.14C170.287 68.1125 168.737 69.5916 168.737 71.3741V110.247C168.737 112.067 169.758 113.508 171.611 113.508H210.213C212.065 113.508 214.031 112.029 214.031 110.247V71.3741C213.994 69.5916 212.557 68.1125 210.704 68.1125ZM185.978 85.4061H192.065V88.516H192.14C193.086 86.8473 195.808 85.1407 199.211 85.1407C205.714 85.1407 207.528 88.5918 207.528 95.039V107.023H201.063V96.2147C201.063 93.3324 199.929 90.8294 197.245 90.8294C193.993 90.8294 192.443 93.029 192.443 96.6697V107.061H185.978V85.4061ZM175.202 107.061H181.668V85.4441H175.202V107.061ZM182.462 77.8592C182.462 80.0967 180.647 81.9171 178.416 81.9171C176.185 81.9171 174.371 80.0967 174.371 77.8592C174.371 75.6216 176.185 73.8012 178.416 73.8012C180.647 73.8012 182.462 75.6216 182.462 77.8592Z" fill="white"/>
<path d="M162.234 107.061H156.185V104.482H156.147C154.824 106.037 152.48 107.326 148.51 107.326C143.104 107.326 138.491 103.269 138.491 96.2525C138.491 89.5777 143.066 85.1406 148.737 85.1406C152.253 85.1406 154.408 86.3921 155.731 87.9849H155.807V74.5975H162.272V107.061H162.234ZM150.363 90.0328C146.658 90.0328 144.578 92.6876 144.578 96.1766C144.578 99.7036 146.658 102.434 150.363 102.434C154.068 102.434 156.223 99.7415 156.223 96.1766C156.223 92.4979 154.068 90.0328 150.363 90.0328Z" fill="white"/>
<path d="M135.655 103.572C134.143 105.544 130.967 107.326 125.901 107.326C119.133 107.326 114.823 102.813 114.823 95.7595C114.823 89.464 118.717 85.1406 126.09 85.1406C132.442 85.1406 136.374 89.3503 136.374 96.7076C136.374 97.4282 136.26 98.1867 136.26 98.1867H120.91L120.948 98.8693C121.364 100.728 122.763 103.003 126.014 103.003C128.812 103.003 130.74 101.486 131.61 100.31L135.655 103.572ZM130.135 94.0908C130.173 91.8154 128.51 89.502 125.863 89.502C122.725 89.502 121.061 91.9671 120.872 94.0908H130.135Z" fill="white"/>
<path d="M114.823 85.406H107.262L99.7378 94.0908V74.5975H93.2726V107.061H99.7378V96.2525L107.715 107.061H115.352L106.203 95.2285L114.823 85.406Z" fill="white"/>
<path d="M67.374 85.4061H73.4611V88.5159H73.5367C74.4819 86.8472 77.2041 85.1406 80.6068 85.1406C87.1098 85.1406 88.9246 89.2744 88.9246 95.0389V107.023H82.4594V96.2146C82.4594 93.0289 81.3252 90.8293 78.6408 90.8293C75.3893 90.8293 73.8392 93.4082 73.8392 96.6697V107.061H67.374V85.4061Z" fill="white"/>
<path d="M56.5987 107.061H63.0638V85.444H56.5987V107.061ZM59.8502 81.7653C62.0052 81.7653 63.7444 80.0208 63.7444 77.8591C63.7444 75.6974 62.0052 73.9529 59.8502 73.9529C57.6951 73.9529 55.9559 75.6974 55.9559 77.8591C55.9559 80.0208 57.6951 81.7653 59.8502 81.7653Z" fill="white"/>
<path d="M39.3582 74.5975H32.8931V107.061H52.2886V100.576H39.3582V74.5975Z" fill="white"/>
</svg>
