<svg width="1201" height="1201" viewBox="0 0 1201 1201" fill="none" xmlns="http://www.w3.org/2000/svg">
<g clip-path="url(#clip0_1_3)">
<path d="M1180.72 580.222H251.24C255.766 502.822 286.021 429.153 337.202 370.915C388.382 312.676 457.553 273.205 533.729 258.772C609.906 244.338 688.721 255.769 757.658 291.249C826.596 326.728 881.704 384.223 914.23 454.602C915.237 457.19 916.764 459.545 918.717 461.52C920.669 463.495 923.005 465.05 925.581 466.088C928.157 467.126 930.919 467.625 933.695 467.555C936.471 467.485 939.204 466.846 941.724 465.68C944.245 464.513 946.499 462.842 948.349 460.771C950.199 458.699 951.605 456.271 952.481 453.635C953.356 450.999 953.682 448.212 953.439 445.446C953.196 442.679 952.389 439.991 951.068 437.549C919.81 370.334 870.037 313.423 807.586 273.489C745.135 233.555 672.594 212.252 598.466 212.078C391.066 212.078 221.142 375.465 210.538 580.222H40.9339C51.654 280.814 298.536 40.6725 600.5 40.6725C851.478 40.6725 1073.4 209.173 1140.22 450.883C1140.77 453.621 1141.88 456.216 1143.48 458.506C1145.08 460.796 1147.13 462.733 1149.51 464.196C1151.89 465.659 1154.54 466.616 1157.31 467.008C1160.07 467.4 1162.89 467.218 1165.58 466.474C1168.27 465.73 1170.78 464.44 1172.95 462.684C1175.12 460.928 1176.91 458.744 1178.2 456.267C1179.49 453.791 1180.25 451.075 1180.45 448.289C1180.64 445.504 1180.26 442.708 1179.33 440.076C1107.66 180.963 869.636 0 600.5 0C269.397 0 0 269.397 0 600.5C0 605.893 2.14256 611.066 5.95635 614.88C9.77013 618.694 14.9427 620.836 20.3362 620.836H210.538C221.142 825.564 391.066 988.893 598.466 988.893C672.6 988.733 745.152 967.439 807.614 927.51C870.076 887.58 919.859 830.67 951.126 763.451C953.003 758.63 952.971 753.274 951.038 748.474C949.104 743.675 945.413 739.793 940.718 737.62C936.023 735.446 930.675 735.144 925.765 736.775C920.854 738.406 916.75 741.847 914.288 746.398C881.778 816.807 826.671 874.332 757.722 909.834C688.773 945.335 609.938 956.777 533.741 942.341C457.545 927.905 388.358 888.419 337.173 830.157C285.988 771.895 255.742 698.199 251.24 620.778H1160.07C1149.38 920.186 902.464 1160.44 600.5 1160.44C349.551 1160.44 127.595 991.711 60.7763 750.117C59.0573 745.269 55.5654 741.253 51.0037 738.877C46.4421 736.501 41.1496 735.942 36.1921 737.312C31.2347 738.682 26.9805 741.88 24.2864 746.261C21.5922 750.642 20.6583 755.882 21.6726 760.924C93.3433 1020.04 331.364 1201 600.5 1201C931.69 1201 1201 931.632 1201 600.5C1200.98 595.127 1198.84 589.978 1195.04 586.178C1191.24 582.379 1186.1 580.237 1180.72 580.222Z" fill="#EEFF12"/>
<path d="M331.945 563.285C331.997 562.108 331.759 560.936 331.252 559.873C330.746 558.809 329.986 557.886 329.04 557.184C325.993 555.295 322.609 554.013 319.076 553.407C315.364 552.636 311.728 551.538 308.21 550.124C305.053 548.878 302.112 547.143 299.495 544.982C297.042 542.941 295.06 540.394 293.684 537.516C292.188 534.288 291.452 530.759 291.534 527.202C291.461 523.748 292.104 520.315 293.423 517.121C294.76 513.978 296.739 511.148 299.233 508.813C301.843 506.421 304.878 504.539 308.181 503.264C311.784 501.872 315.62 501.182 319.482 501.23C323.391 501.187 327.274 501.877 330.929 503.264C334.268 504.517 337.335 506.401 339.964 508.813C342.495 511.181 344.51 514.048 345.879 517.233C347.249 520.418 347.945 523.852 347.924 527.319V529.149C347.928 529.474 347.866 529.796 347.741 530.095C347.616 530.395 347.431 530.666 347.198 530.892C346.973 531.129 346.703 531.319 346.404 531.449C346.104 531.578 345.781 531.646 345.455 531.647H332.962C332.312 531.618 331.696 531.345 331.238 530.882C330.78 530.419 330.514 529.8 330.493 529.149V527.319C330.495 526.09 330.237 524.876 329.736 523.754C329.235 522.633 328.503 521.63 327.588 520.811C326.49 519.807 325.202 519.032 323.8 518.533C322.398 518.034 320.91 517.821 319.424 517.906C316.553 517.725 313.717 518.615 311.464 520.404C310.548 521.147 309.811 522.086 309.308 523.152C308.805 524.218 308.549 525.384 308.559 526.563C308.528 527.718 308.798 528.862 309.343 529.88C309.888 530.899 310.689 531.758 311.667 532.374C314.054 533.964 316.745 535.042 319.569 535.54C323.627 536.38 327.618 537.516 331.51 538.939C334.932 540.172 338.123 541.969 340.952 544.256C343.585 546.426 345.717 549.142 347.198 552.216C348.805 555.7 349.59 559.507 349.493 563.343C349.542 567.131 348.779 570.885 347.256 574.353C345.81 577.615 343.68 580.528 341.01 582.895C338.216 585.35 334.969 587.235 331.452 588.444C327.549 589.801 323.44 590.47 319.308 590.419C315.28 590.465 311.279 589.755 307.513 588.327C304.076 587.01 300.929 585.036 298.245 582.517C295.626 580.063 293.539 577.097 292.116 573.801C290.626 570.456 289.873 566.83 289.908 563.169V559.479C289.908 558.824 290.168 558.196 290.631 557.733C291.094 557.27 291.722 557.01 292.377 557.01H304.869C305.189 557.008 305.506 557.071 305.801 557.196C306.096 557.321 306.362 557.505 306.583 557.736C306.821 557.96 307.01 558.23 307.14 558.53C307.27 558.829 307.337 559.152 307.339 559.479V563.169C307.302 564.525 307.558 565.873 308.09 567.121C308.621 568.37 309.415 569.489 310.418 570.402C312.892 572.488 316.08 573.53 319.308 573.308C322.538 573.476 325.716 572.441 328.227 570.402C329.349 569.578 330.267 568.508 330.912 567.275C331.556 566.041 331.91 564.676 331.945 563.285Z" fill="#303030"/>
<path d="M414.772 503.7C414.998 503.386 415.272 503.112 415.586 502.886C416.164 502.545 416.834 502.392 417.503 502.45H429.966C430.482 502.427 430.991 502.566 431.424 502.847C431.856 503.129 432.19 503.538 432.377 504.019C432.586 504.488 432.666 505.004 432.61 505.515C432.554 506.025 432.363 506.511 432.058 506.924L408.817 541.031C408.319 541.627 408.042 542.376 408.032 543.152C408.115 543.868 408.386 544.549 408.817 545.127L434.179 584.318C434.438 584.753 434.589 585.244 434.619 585.75C434.65 586.255 434.558 586.76 434.353 587.223C434.126 587.788 433.716 588.26 433.19 588.565C432.664 588.871 432.051 588.991 431.448 588.908H418.345C417.651 588.966 416.956 588.792 416.37 588.414C416.008 588.156 415.709 587.818 415.498 587.427L394.349 553.669C394.27 553.545 394.155 553.449 394.02 553.392C393.886 553.335 393.737 553.32 393.593 553.349C393.274 553.349 393.099 553.61 393.099 554.017V586.41C393.104 586.735 393.041 587.057 392.916 587.356C392.792 587.656 392.607 587.927 392.373 588.153C392.149 588.39 391.879 588.58 391.579 588.71C391.28 588.839 390.957 588.907 390.63 588.908H378.399C378.073 588.907 377.75 588.839 377.45 588.71C377.151 588.58 376.88 588.39 376.656 588.153C376.423 587.927 376.238 587.656 376.113 587.356C375.988 587.057 375.926 586.735 375.93 586.41V504.949C375.926 504.624 375.988 504.302 376.113 504.002C376.238 503.702 376.423 503.431 376.656 503.206C376.88 502.968 377.151 502.779 377.45 502.649C377.75 502.519 378.073 502.452 378.399 502.45H390.63C390.957 502.452 391.28 502.519 391.579 502.649C391.879 502.779 392.149 502.968 392.373 503.206C392.607 503.431 392.792 503.702 392.916 504.002C393.041 504.302 393.104 504.624 393.099 504.949V533.361C393.099 533.797 393.274 534.001 393.593 534.059C393.737 534.088 393.886 534.073 394.02 534.016C394.155 533.959 394.27 533.862 394.349 533.739L414.772 503.7Z" fill="#303030"/>
<path d="M470.784 587.165C470.718 587.724 470.434 588.234 469.992 588.582C469.551 588.931 468.989 589.09 468.431 589.025H455.445C455.057 589.062 454.665 589.007 454.302 588.866C453.939 588.725 453.614 588.5 453.353 588.211C453.156 587.983 453.019 587.71 452.953 587.416C452.887 587.122 452.895 586.816 452.975 586.526L475.113 504.31C475.185 503.754 475.472 503.249 475.911 502.902C476.351 502.555 476.909 502.393 477.466 502.45H494.025C494.582 502.393 495.14 502.555 495.58 502.902C496.019 503.249 496.306 503.754 496.378 504.31L518.4 586.526C518.473 586.817 518.477 587.121 518.411 587.414C518.346 587.706 518.212 587.979 518.022 588.211C517.755 588.501 517.425 588.725 517.057 588.866C516.689 589.007 516.294 589.062 515.901 589.025H502.944C502.397 589.037 501.863 588.858 501.433 588.518C501.004 588.179 500.706 587.701 500.591 587.165L496.785 574.412C496.631 573.958 496.416 573.528 496.146 573.133C496.011 572.94 495.827 572.786 495.612 572.689C495.397 572.592 495.16 572.555 494.926 572.581H476.129C475.142 572.581 474.532 573.191 474.27 574.412L470.784 587.165ZM478.947 553.901C478.686 554.802 478.947 555.266 479.935 555.266H491.323C492.224 555.266 492.544 554.802 492.311 553.901L486.356 524.21C486.334 524.066 486.26 523.936 486.147 523.845C486.034 523.753 485.891 523.707 485.746 523.716H485.484C485.339 523.707 485.196 523.753 485.083 523.845C484.97 523.936 484.895 524.066 484.874 524.21L478.947 553.901Z" fill="#303030"/>
<path d="M563.604 570.46C563.58 570.63 563.596 570.803 563.65 570.966C563.704 571.128 563.795 571.276 563.916 571.397C564.038 571.519 564.185 571.61 564.348 571.664C564.511 571.718 564.684 571.734 564.853 571.71H595.765C596.085 571.708 596.402 571.771 596.696 571.896C596.991 572.021 597.257 572.205 597.479 572.436C597.716 572.66 597.905 572.93 598.035 573.23C598.165 573.53 598.233 573.853 598.234 574.179V586.526C598.213 587.177 597.947 587.796 597.489 588.259C597.031 588.722 596.415 588.996 595.765 589.025H548.788C548.137 588.996 547.522 588.722 547.064 588.259C546.606 587.796 546.34 587.177 546.318 586.526V504.949C546.34 504.298 546.606 503.679 547.064 503.216C547.522 502.753 548.137 502.479 548.788 502.45H561.164C561.49 502.452 561.813 502.519 562.113 502.649C562.413 502.779 562.683 502.968 562.907 503.206C563.14 503.431 563.325 503.702 563.45 504.002C563.575 504.302 563.637 504.624 563.633 504.949L563.604 570.46Z" fill="#303030"/>
<path d="M636.466 587.165C636.387 587.718 636.098 588.218 635.66 588.564C635.222 588.91 634.669 589.075 634.113 589.025H621.127C620.739 589.062 620.348 589.007 619.984 588.866C619.621 588.725 619.296 588.5 619.035 588.211C618.831 587.987 618.689 587.714 618.623 587.419C618.557 587.123 618.569 586.816 618.657 586.526L640.795 504.31C640.86 503.751 641.145 503.241 641.586 502.893C642.028 502.544 642.589 502.385 643.148 502.45H659.708C660.263 502.4 660.817 502.565 661.255 502.911C661.693 503.257 661.981 503.757 662.061 504.31L684.053 586.526C684.142 586.816 684.154 587.123 684.087 587.419C684.021 587.714 683.879 587.987 683.675 588.211C683.414 588.5 683.089 588.725 682.726 588.866C682.363 589.007 681.971 589.062 681.584 589.025H668.597C668.051 589.031 667.52 588.85 667.091 588.512C666.663 588.173 666.364 587.698 666.244 587.165L662.38 574.412C662.248 573.955 662.042 573.523 661.77 573.133C661.633 572.942 661.448 572.79 661.234 572.693C661.02 572.596 660.784 572.558 660.55 572.581H641.754C640.766 572.581 640.127 573.191 639.894 574.412L636.466 587.165ZM644.63 553.901C644.368 554.802 644.63 555.266 645.617 555.266H656.977C657.877 555.266 658.226 554.802 657.964 553.901L652.154 524.21C652.133 524.066 652.058 523.936 651.945 523.845C651.832 523.753 651.689 523.707 651.544 523.716H651.283C651.137 523.707 650.994 523.753 650.881 523.845C650.769 523.936 650.694 524.066 650.672 524.21L644.63 553.901Z" fill="#303030"/>
<path d="M755.346 543.268C754.503 544.081 754.503 544.837 755.346 545.505C756.409 546.48 757.381 547.55 758.251 548.701C759.177 549.98 759.966 551.353 760.604 552.797C761.256 554.307 761.771 555.872 762.144 557.474C762.509 559.056 762.694 560.674 762.696 562.297C762.741 566.044 762.132 569.77 760.895 573.308C759.831 576.423 758.103 579.27 755.83 581.653C753.558 584.035 750.796 585.896 747.734 587.107C744.426 588.419 740.893 589.07 737.334 589.025H708.282C707.956 589.022 707.633 588.953 707.334 588.823C707.035 588.694 706.764 588.505 706.539 588.269C706.306 588.044 706.121 587.772 705.996 587.473C705.871 587.173 705.809 586.851 705.813 586.526V504.949C705.809 504.624 705.871 504.302 705.996 504.002C706.121 503.702 706.306 503.431 706.539 503.206C706.764 502.97 707.035 502.781 707.334 502.651C707.633 502.522 707.956 502.453 708.282 502.45H737.334C740.655 502.422 743.944 503.105 746.979 504.455C749.899 505.732 752.538 507.573 754.747 509.871C756.955 512.169 758.689 514.879 759.849 517.848C761.098 520.98 761.729 524.324 761.708 527.696C761.663 530.605 761.051 533.476 759.907 536.15C758.879 538.805 757.328 541.225 755.346 543.268ZM723.825 519.765C723.655 519.741 723.482 519.756 723.319 519.811C723.157 519.865 723.009 519.956 722.888 520.077C722.767 520.199 722.675 520.346 722.621 520.509C722.567 520.672 722.551 520.845 722.576 521.014V534.552C722.55 534.721 722.565 534.894 722.619 535.055C722.673 535.217 722.765 535.364 722.887 535.483C723.009 535.602 723.158 535.691 723.321 535.741C723.484 535.791 723.657 535.802 723.825 535.773H736.666C737.748 535.793 738.823 535.59 739.823 535.175C740.823 534.76 741.726 534.142 742.476 533.361C743.255 532.65 743.877 531.784 744.302 530.818C744.727 529.853 744.947 528.809 744.945 527.754C744.953 526.703 744.737 525.661 744.311 524.699C743.886 523.738 743.26 522.878 742.476 522.176C741.715 521.414 740.809 520.813 739.81 520.408C738.812 520.004 737.743 519.805 736.666 519.823L723.825 519.765ZM736.666 571.71C737.87 571.746 739.066 571.503 740.159 570.999C741.253 570.494 742.215 569.743 742.97 568.804C744.517 566.97 745.353 564.639 745.323 562.239C745.336 559.885 744.501 557.606 742.97 555.818C742.215 554.88 741.253 554.128 740.159 553.624C739.066 553.12 737.87 552.877 736.666 552.913H723.825C723.655 552.889 723.482 552.904 723.319 552.959C723.157 553.013 723.009 553.104 722.888 553.225C722.767 553.347 722.675 553.494 722.621 553.657C722.567 553.82 722.551 553.993 722.576 554.162V570.344C722.551 570.514 722.567 570.687 722.621 570.85C722.675 571.012 722.767 571.16 722.888 571.281C723.009 571.402 723.157 571.494 723.319 571.548C723.482 571.602 723.655 571.618 723.825 571.593L736.666 571.71Z" fill="#303030"/>
<path d="M802.148 587.165C802.069 587.718 801.78 588.218 801.343 588.564C800.905 588.91 800.351 589.075 799.795 589.025H786.809C786.417 589.057 786.023 589.001 785.656 588.86C785.289 588.719 784.958 588.497 784.688 588.211C784.494 587.982 784.361 587.707 784.3 587.413C784.239 587.119 784.253 586.814 784.34 586.526L806.448 504.31C806.528 503.757 806.816 503.257 807.254 502.911C807.692 502.565 808.246 502.4 808.801 502.45H825.39C825.944 502.393 826.498 502.556 826.933 502.904C827.368 503.252 827.648 503.757 827.714 504.31L849.735 586.526C849.816 586.816 849.823 587.122 849.758 587.416C849.692 587.71 849.554 587.983 849.357 588.211C849.096 588.5 848.771 588.725 848.408 588.866C848.045 589.007 847.654 589.061 847.266 589.025H834.28C833.732 589.037 833.198 588.858 832.769 588.518C832.339 588.179 832.041 587.7 831.926 587.165L827.975 574.412C827.831 573.96 827.626 573.53 827.365 573.133C827.222 572.942 827.032 572.791 826.813 572.694C826.594 572.597 826.354 572.558 826.116 572.581H807.32C806.332 572.581 805.722 573.191 805.489 574.412L802.148 587.165ZM810.283 553.901C810.051 554.802 810.283 555.266 811.271 555.266H822.659C823.56 555.266 823.908 554.802 823.647 553.901L817.836 524.21C817.808 524.064 817.728 523.933 817.61 523.842C817.493 523.751 817.346 523.706 817.197 523.716H816.965C816.82 523.707 816.677 523.753 816.564 523.845C816.451 523.936 816.376 524.066 816.355 524.21L810.283 553.901Z" fill="#303030"/>
<path d="M927.739 586.526C927.743 586.851 927.681 587.173 927.556 587.473C927.431 587.772 927.246 588.044 927.013 588.269C926.789 588.507 926.518 588.696 926.219 588.826C925.919 588.956 925.596 589.023 925.27 589.025H910.744C909.899 589.099 909.058 588.85 908.391 588.327C907.945 587.945 907.605 587.455 907.403 586.904L890.582 543.5C890.582 543.094 890.204 542.948 889.914 543.007C889.623 543.065 889.478 543.355 889.478 543.762V586.526C889.482 586.851 889.42 587.173 889.295 587.473C889.17 587.772 888.985 588.044 888.752 588.269C888.527 588.507 888.257 588.696 887.958 588.826C887.658 588.956 887.335 589.023 887.009 589.025H874.458C873.808 588.996 873.192 588.722 872.734 588.259C872.276 587.796 872.01 587.177 871.989 586.526V504.949C872.045 504.324 872.326 503.74 872.78 503.307C873.235 502.874 873.831 502.621 874.458 502.596H889.187C889.949 502.544 890.701 502.795 891.279 503.293C891.757 503.694 892.101 504.231 892.267 504.833L909.32 551.664C909.495 552.071 909.727 552.245 910.018 552.158C910.308 552.071 910.453 551.838 910.453 551.432V504.949C910.449 504.624 910.511 504.302 910.636 504.002C910.761 503.702 910.946 503.431 911.18 503.206C911.404 502.968 911.674 502.779 911.974 502.649C912.273 502.519 912.596 502.452 912.923 502.45H925.27C925.596 502.452 925.919 502.519 926.219 502.649C926.518 502.779 926.789 502.968 927.013 503.206C927.246 503.431 927.431 503.702 927.556 504.002C927.681 504.302 927.743 504.624 927.739 504.949V586.526Z" fill="#303030"/>
<path d="M339.906 673.681C339.934 673.036 340.203 672.424 340.66 671.967C341.118 671.51 341.729 671.24 342.375 671.212H345.716C346.043 671.213 346.365 671.281 346.665 671.411C346.965 671.541 347.235 671.73 347.459 671.967C347.69 672.189 347.874 672.455 347.999 672.749C348.124 673.044 348.187 673.361 348.185 673.681V674.175C348.256 677.906 347.502 681.606 345.977 685.012C344.561 688.096 342.512 690.847 339.964 693.088C337.425 695.344 334.462 697.072 331.248 698.172C327.847 699.344 324.271 699.934 320.673 699.915C313.812 700.15 307.134 697.677 302.08 693.03C296.942 688.012 293.759 681.327 293.103 674.175C292.784 671.706 292.522 668.859 292.377 665.605C292.232 662.351 292.115 659.01 292.115 655.582C292.115 652.154 292.115 648.842 292.377 645.617C292.638 642.393 292.784 639.575 293.103 637.105C293.608 633.75 294.586 630.483 296.008 627.402C297.366 624.353 299.255 621.569 301.586 619.18C303.904 616.705 306.701 614.728 309.808 613.37C313.261 611.908 316.982 611.185 320.731 611.249C324.563 611.218 328.363 611.938 331.916 613.37C335.159 614.654 338.119 616.558 340.632 618.977C343.025 621.327 344.939 624.119 346.268 627.199C347.619 630.285 348.312 633.62 348.302 636.989V637.483C348.303 637.803 348.24 638.12 348.115 638.415C347.99 638.71 347.807 638.976 347.575 639.197C347.351 639.434 347.081 639.624 346.781 639.754C346.482 639.883 346.159 639.951 345.832 639.952H342.491C341.845 639.924 341.234 639.655 340.777 639.197C340.32 638.74 340.05 638.129 340.022 637.483V636.989C340.035 634.691 339.57 632.416 338.656 630.307C337.765 628.127 336.44 626.151 334.763 624.497C333.021 622.805 330.97 621.463 328.721 620.546C326.183 619.524 323.467 619.02 320.731 619.064C318.061 619.008 315.409 619.513 312.946 620.546C310.767 621.492 308.794 622.854 307.135 624.555C305.532 626.257 304.235 628.222 303.3 630.365C302.385 632.463 301.74 634.67 301.383 636.931C300.938 639.818 300.657 642.728 300.54 645.646C300.366 648.871 300.279 652.183 300.279 655.553C300.279 658.923 300.279 662.235 300.54 665.46C300.655 668.379 300.937 671.288 301.383 674.175C301.686 676.165 302.212 678.114 302.952 679.986C303.736 682.119 304.908 684.089 306.409 685.796C308.038 687.649 310.012 689.168 312.219 690.27C314.874 691.534 317.793 692.141 320.731 692.042C323.727 692.12 326.704 691.535 329.447 690.328C331.736 689.273 333.798 687.783 335.519 685.941C337.06 684.254 338.255 682.279 339.034 680.131C339.716 678.267 340.089 676.304 340.138 674.321L339.906 673.681Z" fill="#303030"/>
<path d="M395.976 697.068C395.91 697.627 395.625 698.136 395.184 698.485C394.743 698.834 394.181 698.993 393.622 698.927H390.543C390.155 698.964 389.764 698.91 389.401 698.769C389.037 698.628 388.712 698.403 388.451 698.114C388.25 697.889 388.109 697.616 388.043 697.321C387.977 697.026 387.988 696.719 388.073 696.429L411.693 614.212C411.758 613.654 412.043 613.144 412.484 612.795C412.925 612.447 413.487 612.288 414.046 612.353H420.205C420.763 612.288 421.325 612.447 421.766 612.795C422.208 613.144 422.492 613.654 422.558 614.212L446.177 696.429C446.263 696.719 446.273 697.026 446.207 697.321C446.141 697.616 446.001 697.889 445.799 698.114C445.538 698.403 445.213 698.628 444.85 698.769C444.487 698.91 444.096 698.964 443.708 698.927H440.628C440.07 698.993 439.508 698.834 439.066 698.485C438.625 698.136 438.34 697.627 438.275 697.068L432.203 676.151C432.065 675.64 431.756 675.191 431.328 674.88C430.9 674.568 430.379 674.412 429.85 674.437H404.401C403.872 674.412 403.35 674.568 402.922 674.88C402.494 675.191 402.186 675.64 402.047 676.151L395.976 697.068ZM405.243 665.402C405.011 666.331 405.243 666.767 406.26 666.767H428.02C428.92 666.767 429.24 666.331 429.007 665.402L417.735 623.364C417.735 622.87 417.416 622.638 417.241 622.638H417.009C416.748 622.638 416.602 622.87 416.515 623.364L405.243 665.402Z" fill="#303030"/>
<path d="M498.615 696.429C498.594 697.085 498.323 697.708 497.86 698.171C497.396 698.635 496.773 698.906 496.117 698.927H493.212C492.561 698.898 491.946 698.625 491.488 698.162C491.03 697.699 490.764 697.08 490.742 696.429V614.852C490.764 614.201 491.03 613.582 491.488 613.119C491.946 612.655 492.561 612.382 493.212 612.353H514.216C517.682 612.344 521.113 613.046 524.297 614.416C530.548 617.024 535.518 621.993 538.126 628.244C539.504 631.457 540.214 634.917 540.214 638.413C540.214 641.908 539.504 645.368 538.126 648.581C536.825 651.654 534.94 654.446 532.577 656.802C530.198 659.173 527.388 661.066 524.297 662.38C521.107 663.727 517.679 664.419 514.216 664.414H499.865C499.696 664.388 499.524 664.403 499.362 664.457C499.2 664.512 499.053 664.603 498.934 664.726C498.815 664.848 498.726 664.996 498.676 665.159C498.626 665.322 498.615 665.495 498.645 665.663L498.615 696.429ZM499.836 620.284C499.67 620.26 499.5 620.274 499.341 620.327C499.182 620.38 499.037 620.469 498.919 620.588C498.8 620.706 498.711 620.851 498.658 621.01C498.606 621.169 498.591 621.339 498.615 621.504V655.146C498.592 655.313 498.607 655.483 498.66 655.644C498.713 655.804 498.801 655.95 498.919 656.07C499.037 656.191 499.181 656.283 499.34 656.339C499.498 656.396 499.668 656.415 499.836 656.396H514.216C516.613 656.401 518.986 655.916 521.189 654.972C523.348 654.042 525.318 652.723 526.999 651.079C528.661 649.413 529.983 647.44 530.892 645.269C531.831 643.059 532.315 640.683 532.315 638.282C532.315 635.881 531.831 633.505 530.892 631.295C529.035 626.961 525.581 623.507 521.247 621.65C519.048 620.692 516.673 620.207 514.274 620.226L499.836 620.284Z" fill="#303030"/>
<path d="M607.182 621.011C607.206 620.845 607.192 620.675 607.139 620.516C607.086 620.357 606.997 620.212 606.879 620.094C606.76 619.975 606.615 619.886 606.456 619.833C606.297 619.781 606.128 619.766 605.962 619.79H590.506C590.18 619.789 589.857 619.721 589.557 619.592C589.258 619.462 588.987 619.272 588.763 619.035C588.532 618.814 588.348 618.548 588.223 618.253C588.098 617.958 588.035 617.641 588.037 617.321V614.852C588.033 614.527 588.095 614.205 588.22 613.905C588.345 613.605 588.53 613.334 588.763 613.108C588.987 612.871 589.258 612.682 589.557 612.552C589.857 612.422 590.18 612.354 590.506 612.353H631.876C632.202 612.354 632.525 612.422 632.825 612.552C633.125 612.682 633.395 612.871 633.619 613.108C633.853 613.334 634.037 613.605 634.162 613.905C634.287 614.205 634.349 614.527 634.345 614.852V617.321C634.347 617.641 634.284 617.958 634.159 618.253C634.034 618.548 633.85 618.814 633.619 619.035C633.395 619.272 633.125 619.462 632.825 619.592C632.525 619.721 632.202 619.789 631.876 619.79H616.42C616.254 619.766 616.085 619.781 615.926 619.833C615.767 619.886 615.622 619.975 615.504 620.094C615.385 620.212 615.296 620.357 615.243 620.516C615.19 620.675 615.176 620.845 615.2 621.011V690.125C615.171 690.293 615.181 690.465 615.232 690.629C615.282 690.792 615.371 690.94 615.49 691.062C615.609 691.184 615.756 691.276 615.917 691.331C616.079 691.385 616.252 691.4 616.42 691.374H633.125C633.446 691.369 633.764 691.43 634.059 691.556C634.354 691.681 634.62 691.866 634.839 692.1C635.081 692.321 635.273 692.591 635.403 692.891C635.533 693.192 635.599 693.516 635.595 693.843V696.429C635.6 696.757 635.536 697.082 635.406 697.382C635.275 697.683 635.082 697.952 634.839 698.172C634.622 698.41 634.357 698.6 634.062 698.73C633.767 698.86 633.448 698.927 633.125 698.927H589.228C588.902 698.924 588.579 698.856 588.28 698.726C587.98 698.597 587.71 698.408 587.485 698.172C587.024 697.708 586.763 697.083 586.759 696.429V693.843C586.766 693.19 587.027 692.566 587.485 692.1C587.712 691.868 587.983 691.684 588.282 691.559C588.582 691.435 588.903 691.371 589.228 691.374H605.933C606.101 691.4 606.274 691.385 606.436 691.331C606.597 691.276 606.744 691.184 606.863 691.062C606.982 690.94 607.071 690.792 607.121 690.629C607.172 690.465 607.183 690.293 607.153 690.125L607.182 621.011Z" fill="#303030"/>
<path d="M682.455 620.284C682.129 620.283 681.806 620.215 681.506 620.085C681.206 619.956 680.936 619.766 680.712 619.529C680.481 619.308 680.297 619.041 680.172 618.747C680.047 618.452 679.984 618.135 679.986 617.815V614.91C679.982 614.585 680.044 614.263 680.169 613.963C680.294 613.663 680.478 613.392 680.712 613.167C680.936 612.929 681.206 612.74 681.506 612.61C681.806 612.48 682.129 612.413 682.455 612.411H734.371C734.697 612.413 735.02 612.48 735.32 612.61C735.619 612.74 735.889 612.929 736.114 613.167C736.347 613.392 736.532 613.663 736.657 613.963C736.782 614.263 736.844 614.585 736.84 614.91V617.815C736.842 618.135 736.778 618.452 736.654 618.747C736.529 619.041 736.345 619.308 736.114 619.529C735.889 619.766 735.619 619.956 735.32 620.085C735.02 620.215 734.697 620.283 734.371 620.284H713.744C713.576 620.255 713.403 620.266 713.24 620.316C713.077 620.366 712.928 620.455 712.806 620.574C712.684 620.693 712.592 620.84 712.538 621.002C712.484 621.163 712.469 621.336 712.495 621.504V696.429C712.499 696.754 712.436 697.076 712.312 697.376C712.187 697.675 712.002 697.946 711.768 698.172C711.544 698.409 711.274 698.599 710.974 698.729C710.675 698.858 710.352 698.926 710.025 698.927H706.946C706.29 698.906 705.667 698.635 705.203 698.172C704.739 697.708 704.469 697.085 704.447 696.429V621.504C704.472 621.339 704.457 621.169 704.404 621.01C704.352 620.851 704.262 620.706 704.144 620.588C704.025 620.469 703.881 620.38 703.721 620.327C703.562 620.274 703.393 620.26 703.227 620.284H682.455Z" fill="#303030"/>
<path d="M784.194 697.068C784.129 697.621 783.848 698.126 783.413 698.474C782.978 698.822 782.424 698.985 781.87 698.927H778.762C778.374 698.964 777.982 698.91 777.619 698.769C777.256 698.628 776.931 698.403 776.67 698.114C776.473 697.886 776.336 697.613 776.27 697.319C776.204 697.025 776.212 696.719 776.292 696.429L799.911 614.212C799.984 613.657 800.271 613.152 800.71 612.805C801.15 612.457 801.707 612.295 802.265 612.353H808.453C809.007 612.296 809.561 612.459 809.996 612.807C810.43 613.155 810.711 613.659 810.777 614.212L834.396 696.429C834.48 696.717 834.493 697.021 834.432 697.315C834.371 697.609 834.239 697.883 834.047 698.114C833.778 698.4 833.447 698.622 833.08 698.763C832.713 698.904 832.318 698.96 831.926 698.927H828.847C828.288 698.993 827.727 698.834 827.285 698.485C826.844 698.136 826.559 697.627 826.494 697.068L820.422 676.151C820.285 675.645 819.98 675.2 819.558 674.889C819.136 674.578 818.622 674.418 818.098 674.437H792.619C792.091 674.412 791.569 674.568 791.141 674.88C790.713 675.191 790.405 675.64 790.266 676.151L784.194 697.068ZM793.491 665.402C793.229 666.331 793.491 666.767 794.479 666.767H816.355C817.255 666.767 817.575 666.331 817.342 665.402L806.099 623.364C805.925 622.87 805.751 622.637 805.576 622.637H805.344C805.083 622.637 804.937 622.87 804.85 623.364L793.491 665.402Z" fill="#303030"/>
<path d="M891.163 689.776C891.138 689.942 891.153 690.111 891.206 690.27C891.258 690.43 891.348 690.574 891.466 690.693C891.585 690.812 891.729 690.901 891.889 690.953C892.048 691.006 892.217 691.021 892.383 690.996H925.153C925.48 690.998 925.803 691.065 926.102 691.195C926.402 691.325 926.672 691.514 926.896 691.752C927.128 691.973 927.311 692.239 927.436 692.534C927.561 692.828 927.625 693.146 927.623 693.466V696.371C927.627 696.696 927.565 697.018 927.44 697.317C927.315 697.617 927.13 697.888 926.896 698.114C926.672 698.351 926.402 698.541 926.102 698.671C925.803 698.8 925.48 698.868 925.153 698.869H885.701C885.051 698.84 884.435 698.567 883.977 698.104C883.519 697.641 883.253 697.022 883.232 696.371V614.852C883.253 614.201 883.519 613.582 883.977 613.119C884.435 612.655 885.051 612.382 885.701 612.353H888.606C889.257 612.382 889.873 612.655 890.33 613.119C890.788 613.582 891.054 614.201 891.076 614.852L891.163 689.776Z" fill="#303030"/>
</g>
<defs>
<clipPath id="clip0_1_3">
<rect width="1201" height="1201" fill="white"/>
</clipPath>
</defs>
</svg>
