<svg width="604" height="64" viewBox="0 0 604 64" fill="none" xmlns="http://www.w3.org/2000/svg">
<path d="M21.3088 48.39C20.7954 48.39 20.3054 48.5067 19.8388 48.74C19.4188 48.9733 18.9054 49.2533 18.2988 49.58C17.7388 49.86 17.0388 50.1167 16.1988 50.35C15.3588 50.5833 14.2854 50.7 12.9788 50.7C11.1588 50.7 9.47875 50.4433 7.93875 49.93C6.39875 49.4167 5.06875 48.6467 3.94875 47.62C2.82875 46.5933 1.96542 45.3333 1.35875 43.84C0.752084 42.3 0.44875 40.5267 0.44875 38.52V16.4C0.44875 16.0267 0.58875 15.7 0.86875 15.42C1.14875 15.14 1.47542 15 1.84875 15H3.17875C3.55208 15 3.87875 15.14 4.15875 15.42C4.43875 15.7 4.57875 16.0267 4.57875 16.4V38.52C4.57875 41.46 5.41875 43.5367 7.09875 44.75C8.82542 45.9633 10.9488 46.57 13.4688 46.57C14.7288 46.57 15.8954 46.3833 16.9688 46.01C18.0421 45.59 18.9754 45.03 19.7688 44.33C20.6088 43.63 21.2388 42.8133 21.6588 41.88C22.1254 40.9467 22.3588 39.9433 22.3588 38.87V16.4C22.3588 16.0267 22.4988 15.7 22.7788 15.42C23.0588 15.14 23.3854 15 23.7588 15H25.0888C25.4621 15 25.7888 15.14 26.0688 15.42C26.3488 15.7 26.4888 16.0267 26.4888 16.4V48.6C26.4888 48.9733 26.3488 49.3 26.0688 49.58C25.7888 49.86 25.4621 50 25.0888 50H23.9688C23.6421 50 23.3154 49.8367 22.9888 49.51C22.7554 49.2767 22.5221 49.0433 22.2888 48.81C22.0554 48.53 21.7288 48.39 21.3088 48.39ZM44.1151 16.61C44.6284 16.61 45.0951 16.4933 45.5151 16.26C45.9817 16.0267 46.4951 15.77 47.0551 15.49C47.6617 15.1633 48.3851 14.8833 49.2251 14.65C50.0651 14.4167 51.1384 14.3 52.4451 14.3C54.2651 14.3 55.9451 14.5567 57.4851 15.07C59.0251 15.5833 60.3551 16.3533 61.4751 17.38C62.5951 18.4067 63.4584 19.69 64.0651 21.23C64.6717 22.7233 64.9751 24.4733 64.9751 26.48V48.6C64.9751 48.9733 64.8351 49.3 64.5551 49.58C64.2751 49.86 63.9484 50 63.5751 50H62.2451C61.8717 50 61.5451 49.86 61.2651 49.58C60.9851 49.3 60.8451 48.9733 60.8451 48.6V26.48C60.8451 23.54 59.9817 21.4633 58.2551 20.25C56.5751 19.0367 54.4751 18.43 51.9551 18.43C50.6951 18.43 49.5284 18.64 48.4551 19.06C47.3817 19.4333 46.4251 19.97 45.5851 20.67C44.7917 21.37 44.1617 22.1867 43.6951 23.12C43.2751 24.0533 43.0651 25.0567 43.0651 26.13V48.6C43.0651 48.9733 42.9251 49.3 42.6451 49.58C42.3651 49.86 42.0384 50 41.6651 50H40.3351C39.9617 50 39.6351 49.86 39.3551 49.58C39.0751 49.3 38.9351 48.9733 38.9351 48.6V16.4C38.9351 16.0267 39.0751 15.7 39.3551 15.42C39.6351 15.14 39.9617 15 40.3351 15H41.4551C41.7817 15 42.1084 15.1633 42.4351 15.49C42.6684 15.7233 42.9017 15.98 43.1351 16.26C43.3684 16.4933 43.6951 16.61 44.1151 16.61ZM79.2414 4.71C78.8681 4.71 78.5414 4.57 78.2614 4.29C77.9814 4.01 77.8414 3.68333 77.8414 3.31V1.91C77.8414 1.53666 77.9814 1.21 78.2614 0.929998C78.5414 0.649998 78.8681 0.509999 79.2414 0.509999H91.2114C91.5847 0.509999 91.9114 0.649998 92.1914 0.929998C92.4714 1.21 92.6114 1.53666 92.6114 1.91V45.1C92.6114 45.5667 92.8447 45.8 93.3114 45.8H102.201C102.575 45.8 102.901 45.94 103.181 46.22C103.461 46.5 103.601 46.8267 103.601 47.2V48.6C103.601 48.9733 103.461 49.3 103.181 49.58C102.901 49.86 102.575 50 102.201 50H77.8414C77.4681 50 77.1414 49.86 76.8614 49.58C76.5814 49.3 76.4414 48.9733 76.4414 48.6V47.2C76.4414 46.8267 76.5814 46.5 76.8614 46.22C77.1414 45.94 77.4681 45.8 77.8414 45.8H87.5714C87.8047 45.8 87.9914 45.7533 88.1314 45.66C88.3181 45.52 88.4114 45.3333 88.4114 45.1V5.41C88.4114 4.94333 88.1781 4.71 87.7114 4.71H79.2414ZM128.928 14.3C131.028 14.3 132.918 14.65 134.598 15.35C136.278 16.05 137.724 17.0067 138.938 18.22C140.151 19.3867 141.108 20.7867 141.808 22.42C142.508 24.0533 142.928 25.78 143.068 27.6C143.161 29 143.208 30.6333 143.208 32.5C143.208 34.3667 143.161 36 143.068 37.4C142.928 39.22 142.508 40.9467 141.808 42.58C141.108 44.2133 140.151 45.6367 138.938 46.85C137.724 48.0167 136.278 48.95 134.598 49.65C132.918 50.35 131.028 50.7 128.928 50.7C126.828 50.7 124.938 50.35 123.258 49.65C121.578 48.95 120.131 48.0167 118.918 46.85C117.704 45.6367 116.748 44.2133 116.048 42.58C115.348 40.9467 114.928 39.22 114.788 37.4C114.694 36 114.648 34.3667 114.648 32.5C114.648 30.6333 114.694 29 114.788 27.6C114.928 25.78 115.348 24.0533 116.048 22.42C116.748 20.7867 117.704 19.3867 118.918 18.22C120.131 17.0067 121.578 16.05 123.258 15.35C124.938 14.65 126.828 14.3 128.928 14.3ZM128.928 46.57C130.654 46.57 132.124 46.2667 133.338 45.66C134.598 45.0533 135.601 44.3067 136.348 43.42C137.141 42.4867 137.724 41.4833 138.098 40.41C138.471 39.3367 138.704 38.3333 138.798 37.4C138.938 35.9533 139.008 34.32 139.008 32.5C139.008 30.68 138.938 29.0467 138.798 27.6C138.704 26.6667 138.471 25.6633 138.098 24.59C137.724 23.5167 137.141 22.5367 136.348 21.65C135.601 20.7167 134.598 19.9467 133.338 19.34C132.124 18.7333 130.654 18.43 128.928 18.43C127.154 18.43 125.661 18.7333 124.448 19.34C123.234 19.9467 122.231 20.7167 121.438 21.65C120.691 22.5367 120.131 23.5167 119.758 24.59C119.384 25.6633 119.151 26.6667 119.058 27.6C118.918 29.0467 118.848 30.68 118.848 32.5C118.848 34.32 118.918 35.9533 119.058 37.4C119.151 38.3333 119.384 39.3367 119.758 40.41C120.131 41.4833 120.691 42.4867 121.438 43.42C122.231 44.3067 123.234 45.0533 124.448 45.66C125.661 46.2667 127.154 46.57 128.928 46.57ZM167.974 46.57C169.514 46.57 170.844 46.3367 171.964 45.87C173.084 45.3567 174.017 44.7267 174.764 43.98C175.511 43.1867 176.047 42.3233 176.374 41.39C176.747 40.4567 176.934 39.5233 176.934 38.59C176.934 38.1233 177.074 37.82 177.354 37.68C177.634 37.4933 177.937 37.4 178.264 37.4H179.734C180.107 37.4 180.434 37.54 180.714 37.82C180.994 38.1 181.134 38.4267 181.134 38.8C181.134 40.3867 180.807 41.9033 180.154 43.35C179.547 44.75 178.661 46.01 177.494 47.13C176.327 48.2033 174.927 49.0667 173.294 49.72C171.707 50.3733 169.934 50.7 167.974 50.7C165.874 50.7 163.984 50.35 162.304 49.65C160.624 48.95 159.177 48.0167 157.964 46.85C156.751 45.6367 155.794 44.2133 155.094 42.58C154.394 40.9467 153.974 39.22 153.834 37.4C153.741 36 153.694 34.3667 153.694 32.5C153.694 30.6333 153.741 29 153.834 27.6C153.974 25.78 154.394 24.0533 155.094 22.42C155.794 20.7867 156.751 19.3867 157.964 18.22C159.177 17.0067 160.624 16.05 162.304 15.35C163.984 14.65 165.874 14.3 167.974 14.3C169.934 14.3 171.707 14.6267 173.294 15.28C174.927 15.9333 176.327 16.82 177.494 17.94C178.661 19.0133 179.547 20.2733 180.154 21.72C180.807 23.12 181.134 24.6133 181.134 26.2C181.134 26.5733 181.017 26.9 180.784 27.18C180.597 27.46 180.317 27.6 179.944 27.6H178.334C178.007 27.6 177.704 27.5067 177.424 27.32C177.144 27.1333 177.004 26.8533 177.004 26.48C177.004 25.4533 176.794 24.45 176.374 23.47C176.001 22.49 175.417 21.6267 174.624 20.88C173.877 20.1333 172.944 19.55 171.824 19.13C170.704 18.6633 169.421 18.43 167.974 18.43C166.201 18.43 164.707 18.7333 163.494 19.34C162.281 19.9467 161.277 20.7167 160.484 21.65C159.737 22.5367 159.177 23.5167 158.804 24.59C158.431 25.6633 158.197 26.6667 158.104 27.6C157.964 29.0467 157.894 30.68 157.894 32.5C157.894 34.32 157.964 35.9533 158.104 37.4C158.197 38.3333 158.431 39.3367 158.804 40.41C159.177 41.4833 159.737 42.4867 160.484 43.42C161.277 44.3067 162.281 45.0533 163.494 45.66C164.707 46.2667 166.201 46.57 167.974 46.57ZM199.67 35.37C199.577 35.2767 199.46 35.23 199.32 35.23C199.18 35.23 199.11 35.3233 199.11 35.51V48.6C199.11 48.9733 198.97 49.3 198.69 49.58C198.41 49.86 198.084 50 197.71 50H196.38C196.007 50 195.68 49.86 195.4 49.58C195.12 49.3 194.98 48.9733 194.98 48.6V1.91C194.98 1.53666 195.12 1.21 195.4 0.929998C195.68 0.649998 196.007 0.509999 196.38 0.509999H197.71C198.084 0.509999 198.41 0.649998 198.69 0.929998C198.97 1.21 199.11 1.53666 199.11 1.91V28.16C199.11 28.5333 199.297 28.58 199.67 28.3L213.74 15.91C213.927 15.7233 214.16 15.5367 214.44 15.35C214.767 15.1167 215.187 15 215.7 15H216.96C217.754 15 218.197 15.3033 218.29 15.91C218.43 16.47 218.314 16.9367 217.94 17.31L202.61 30.96C202.004 31.5667 202.004 32.1267 202.61 32.64L218.99 47.55C219.504 48.0167 219.644 48.5533 219.41 49.16C219.224 49.72 218.757 50 218.01 50H216.61C216.097 50 215.654 49.8833 215.28 49.65C214.954 49.37 214.697 49.1367 214.51 48.95L199.67 35.37ZM282.383 18.43C280.843 18.43 279.536 18.7333 278.463 19.34C277.39 19.9467 276.526 20.7167 275.873 21.65C275.22 22.5367 274.73 23.5167 274.403 24.59C274.076 25.6633 273.866 26.6667 273.773 27.6C273.633 29.0467 273.563 30.68 273.563 32.5C273.563 34.32 273.633 35.9533 273.773 37.4C273.866 38.3333 274.076 39.3367 274.403 40.41C274.73 41.4833 275.22 42.4867 275.873 43.42C276.526 44.3067 277.39 45.0533 278.463 45.66C279.536 46.2667 280.843 46.57 282.383 46.57C284.063 46.57 285.486 46.2667 286.653 45.66C287.82 45.0533 288.753 44.3067 289.453 43.42C290.2 42.4867 290.736 41.4833 291.063 40.41C291.436 39.3367 291.67 38.3333 291.763 37.4C291.95 35.9533 292.043 34.32 292.043 32.5C292.043 30.68 291.95 29.0467 291.763 27.6C291.67 26.6667 291.436 25.6633 291.063 24.59C290.736 23.5167 290.2 22.5367 289.453 21.65C288.753 20.7167 287.82 19.9467 286.653 19.34C285.533 18.7333 284.11 18.43 282.383 18.43ZM282.733 14.3C284.553 14.3 286.233 14.65 287.773 15.35C289.36 16.05 290.736 17.0067 291.903 18.22C293.07 19.3867 294.003 20.7867 294.703 22.42C295.45 24.0533 295.893 25.78 296.033 27.6C296.126 29 296.173 30.6333 296.173 32.5C296.173 34.3667 296.126 36 296.033 37.4C295.893 39.22 295.45 40.9467 294.703 42.58C294.003 44.2133 293.07 45.6367 291.903 46.85C290.736 48.0167 289.36 48.95 287.773 49.65C286.233 50.35 284.553 50.7 282.733 50.7C281.613 50.7 280.656 50.6067 279.863 50.42C279.07 50.2333 278.393 50.0467 277.833 49.86C277.273 49.6267 276.783 49.4167 276.363 49.23C275.943 49.0433 275.57 48.95 275.243 48.95C274.776 48.95 274.38 49.09 274.053 49.37C273.773 49.6033 273.633 50.0467 273.633 50.7V62.6C273.633 62.9733 273.493 63.3 273.213 63.58C272.933 63.86 272.606 64 272.233 64H270.903C270.53 64 270.203 63.86 269.923 63.58C269.643 63.3 269.503 62.9733 269.503 62.6V16.4C269.503 16.0267 269.643 15.7 269.923 15.42C270.203 15.14 270.53 15 270.903 15H272.023C272.35 15 272.676 15.1633 273.003 15.49C273.236 15.7233 273.493 15.98 273.773 16.26C274.053 16.4933 274.38 16.61 274.753 16.61C275.266 16.61 275.71 16.4933 276.083 16.26C276.503 16.0267 276.993 15.77 277.553 15.49C278.113 15.1633 278.79 14.8833 279.583 14.65C280.376 14.4167 281.426 14.3 282.733 14.3ZM321.359 14.3C323.459 14.3 325.349 14.65 327.029 15.35C328.709 16.05 330.156 17.0067 331.369 18.22C332.583 19.3867 333.539 20.7867 334.239 22.42C334.939 24.0533 335.359 25.78 335.499 27.6C335.593 29 335.639 30.6333 335.639 32.5C335.639 34.3667 335.593 36 335.499 37.4C335.359 39.22 334.939 40.9467 334.239 42.58C333.539 44.2133 332.583 45.6367 331.369 46.85C330.156 48.0167 328.709 48.95 327.029 49.65C325.349 50.35 323.459 50.7 321.359 50.7C319.259 50.7 317.369 50.35 315.689 49.65C314.009 48.95 312.563 48.0167 311.349 46.85C310.136 45.6367 309.179 44.2133 308.479 42.58C307.779 40.9467 307.359 39.22 307.219 37.4C307.126 36 307.079 34.3667 307.079 32.5C307.079 30.6333 307.126 29 307.219 27.6C307.359 25.78 307.779 24.0533 308.479 22.42C309.179 20.7867 310.136 19.3867 311.349 18.22C312.563 17.0067 314.009 16.05 315.689 15.35C317.369 14.65 319.259 14.3 321.359 14.3ZM321.359 46.57C323.086 46.57 324.556 46.2667 325.769 45.66C327.029 45.0533 328.033 44.3067 328.779 43.42C329.573 42.4867 330.156 41.4833 330.529 40.41C330.903 39.3367 331.136 38.3333 331.229 37.4C331.369 35.9533 331.439 34.32 331.439 32.5C331.439 30.68 331.369 29.0467 331.229 27.6C331.136 26.6667 330.903 25.6633 330.529 24.59C330.156 23.5167 329.573 22.5367 328.779 21.65C328.033 20.7167 327.029 19.9467 325.769 19.34C324.556 18.7333 323.086 18.43 321.359 18.43C319.586 18.43 318.093 18.7333 316.879 19.34C315.666 19.9467 314.663 20.7167 313.869 21.65C313.123 22.5367 312.563 23.5167 312.189 24.59C311.816 25.6633 311.583 26.6667 311.489 27.6C311.349 29.0467 311.279 30.68 311.279 32.5C311.279 34.32 311.349 35.9533 311.489 37.4C311.583 38.3333 311.816 39.3367 312.189 40.41C312.563 41.4833 313.123 42.4867 313.869 43.42C314.663 44.3067 315.666 45.0533 316.879 45.66C318.093 46.2667 319.586 46.57 321.359 46.57ZM357.326 38.8C357.326 41.2733 357.979 43.1867 359.286 44.54C360.639 45.8467 362.202 46.5 363.976 46.5C365.982 46.5 367.546 45.8233 368.666 44.47C369.832 43.1167 370.416 41.46 370.416 39.5C370.416 39.1267 370.556 38.8 370.836 38.52C371.116 38.24 371.442 38.1 371.816 38.1H373.286C373.659 38.1 373.986 38.24 374.266 38.52C374.546 38.8 374.686 39.1267 374.686 39.5C374.686 41.04 374.406 42.4867 373.846 43.84C373.332 45.1933 372.586 46.3833 371.606 47.41C370.672 48.4367 369.552 49.2533 368.246 49.86C366.939 50.42 365.516 50.7 363.976 50.7C362.436 50.7 360.989 50.42 359.636 49.86C358.329 49.2533 357.186 48.4367 356.206 47.41C355.272 46.3833 354.526 45.1933 353.966 43.84C353.406 42.4867 353.126 41.04 353.126 39.5V20.18C353.126 19.7133 352.892 19.48 352.426 19.48H344.656C344.282 19.48 343.956 19.34 343.676 19.06C343.396 18.78 343.256 18.4533 343.256 18.08V16.75C343.256 16.3767 343.396 16.05 343.676 15.77C343.956 15.49 344.282 15.35 344.656 15.35H352.426C352.892 15.35 353.126 15.1167 353.126 14.65V3.8C353.126 3.42666 353.266 3.1 353.546 2.82C353.826 2.54 354.152 2.4 354.526 2.4H355.926C356.299 2.4 356.626 2.54 356.906 2.82C357.186 3.1 357.326 3.42666 357.326 3.8V14.65C357.326 15.1167 357.559 15.35 358.026 15.35H369.646C370.019 15.35 370.346 15.49 370.626 15.77C370.906 16.05 371.046 16.3767 371.046 16.75V18.08C371.046 18.4533 370.906 18.78 370.626 19.06C370.346 19.34 370.019 19.48 369.646 19.48H358.026C357.559 19.48 357.326 19.7133 357.326 20.18V38.8ZM388.322 34.88C388.322 36.56 388.509 38.1233 388.882 39.57C389.302 40.97 389.932 42.2067 390.772 43.28C391.612 44.3067 392.662 45.1233 393.922 45.73C395.229 46.29 396.792 46.57 398.612 46.57C399.965 46.57 401.155 46.3833 402.182 46.01C403.255 45.6367 404.165 45.1467 404.912 44.54C405.705 43.8867 406.335 43.1867 406.802 42.44C407.315 41.6467 407.712 40.83 407.992 39.99C408.132 39.5233 408.342 39.22 408.622 39.08C408.949 38.8933 409.275 38.8 409.602 38.8H411.002C411.375 38.8 411.679 38.9167 411.912 39.15C412.192 39.3367 412.285 39.6867 412.192 40.2C411.959 41.74 411.469 43.1633 410.722 44.47C409.975 45.73 408.995 46.8267 407.782 47.76C406.615 48.6933 405.239 49.4167 403.652 49.93C402.112 50.4433 400.432 50.7 398.612 50.7C396.512 50.7 394.599 50.35 392.872 49.65C391.192 48.95 389.722 48.0167 388.462 46.85C387.249 45.6367 386.269 44.2133 385.522 42.58C384.822 40.9467 384.402 39.22 384.262 37.4C384.169 36 384.122 34.3667 384.122 32.5C384.122 30.6333 384.169 29 384.262 27.6C384.402 25.78 384.822 24.0533 385.522 22.42C386.269 20.7867 387.249 19.3867 388.462 18.22C389.722 17.0067 391.192 16.05 392.872 15.35C394.599 14.65 396.512 14.3 398.612 14.3C400.572 14.3 402.392 14.6733 404.072 15.42C405.799 16.1667 407.292 17.17 408.552 18.43C409.812 19.69 410.792 21.1833 411.492 22.91C412.239 24.59 412.612 26.3867 412.612 28.3V32.78C412.612 33.1533 412.472 33.48 412.192 33.76C411.912 34.04 411.585 34.18 411.212 34.18H389.022C388.555 34.18 388.322 34.4133 388.322 34.88ZM388.462 29.56C388.462 30.0267 388.695 30.26 389.162 30.26H408.062C408.529 30.26 408.762 30.0267 408.762 29.56C408.762 27.7867 408.505 26.2233 407.992 24.87C407.479 23.47 406.755 22.3033 405.822 21.37C404.935 20.39 403.885 19.6667 402.672 19.2C401.459 18.6867 400.129 18.43 398.682 18.43C395.555 18.43 393.059 19.3867 391.192 21.3C389.372 23.2133 388.462 25.9667 388.462 29.56ZM428.978 16.61C429.492 16.61 429.958 16.4933 430.378 16.26C430.845 16.0267 431.358 15.77 431.918 15.49C432.525 15.1633 433.248 14.8833 434.088 14.65C434.928 14.4167 436.002 14.3 437.308 14.3C439.128 14.3 440.808 14.5567 442.348 15.07C443.888 15.5833 445.218 16.3533 446.338 17.38C447.458 18.4067 448.322 19.69 448.928 21.23C449.535 22.7233 449.838 24.4733 449.838 26.48V48.6C449.838 48.9733 449.698 49.3 449.418 49.58C449.138 49.86 448.812 50 448.438 50H447.108C446.735 50 446.408 49.86 446.128 49.58C445.848 49.3 445.708 48.9733 445.708 48.6V26.48C445.708 23.54 444.845 21.4633 443.118 20.25C441.438 19.0367 439.338 18.43 436.818 18.43C435.558 18.43 434.392 18.64 433.318 19.06C432.245 19.4333 431.288 19.97 430.448 20.67C429.655 21.37 429.025 22.1867 428.558 23.12C428.138 24.0533 427.928 25.0567 427.928 26.13V48.6C427.928 48.9733 427.788 49.3 427.508 49.58C427.228 49.86 426.902 50 426.528 50H425.198C424.825 50 424.498 49.86 424.218 49.58C423.938 49.3 423.798 48.9733 423.798 48.6V16.4C423.798 16.0267 423.938 15.7 424.218 15.42C424.498 15.14 424.825 15 425.198 15H426.318C426.645 15 426.972 15.1633 427.298 15.49C427.532 15.7233 427.765 15.98 427.998 16.26C428.232 16.4933 428.558 16.61 428.978 16.61ZM472.785 38.8C472.785 41.2733 473.438 43.1867 474.745 44.54C476.098 45.8467 477.661 46.5 479.435 46.5C481.441 46.5 483.005 45.8233 484.125 44.47C485.291 43.1167 485.875 41.46 485.875 39.5C485.875 39.1267 486.015 38.8 486.295 38.52C486.575 38.24 486.901 38.1 487.275 38.1H488.745C489.118 38.1 489.445 38.24 489.725 38.52C490.005 38.8 490.145 39.1267 490.145 39.5C490.145 41.04 489.865 42.4867 489.305 43.84C488.791 45.1933 488.045 46.3833 487.065 47.41C486.131 48.4367 485.011 49.2533 483.705 49.86C482.398 50.42 480.975 50.7 479.435 50.7C477.895 50.7 476.448 50.42 475.095 49.86C473.788 49.2533 472.645 48.4367 471.665 47.41C470.731 46.3833 469.985 45.1933 469.425 43.84C468.865 42.4867 468.585 41.04 468.585 39.5V20.18C468.585 19.7133 468.351 19.48 467.885 19.48H460.115C459.741 19.48 459.415 19.34 459.135 19.06C458.855 18.78 458.715 18.4533 458.715 18.08V16.75C458.715 16.3767 458.855 16.05 459.135 15.77C459.415 15.49 459.741 15.35 460.115 15.35H467.885C468.351 15.35 468.585 15.1167 468.585 14.65V3.8C468.585 3.42666 468.725 3.1 469.005 2.82C469.285 2.54 469.611 2.4 469.985 2.4H471.385C471.758 2.4 472.085 2.54 472.365 2.82C472.645 3.1 472.785 3.42666 472.785 3.8V14.65C472.785 15.1167 473.018 15.35 473.485 15.35H485.105C485.478 15.35 485.805 15.49 486.085 15.77C486.365 16.05 486.505 16.3767 486.505 16.75V18.08C486.505 18.4533 486.365 18.78 486.085 19.06C485.805 19.34 485.478 19.48 485.105 19.48H473.485C473.018 19.48 472.785 19.7133 472.785 20.18V38.8ZM517.781 5.34C517.781 6.08666 517.408 6.46 516.661 6.46H513.021C512.274 6.46 511.901 6.08666 511.901 5.34V1.63C511.901 1.35 511.994 1.09333 512.181 0.859998C512.414 0.626665 512.694 0.509999 513.021 0.509999H516.661C516.988 0.509999 517.244 0.626665 517.431 0.859998C517.664 1.09333 517.781 1.35 517.781 1.63V5.34ZM503.711 19.2C503.338 19.2 503.011 19.06 502.731 18.78C502.451 18.5 502.311 18.1733 502.311 17.8V16.4C502.311 16.0267 502.451 15.7 502.731 15.42C503.011 15.14 503.338 15 503.711 15H515.961C516.334 15 516.661 15.14 516.941 15.42C517.221 15.7 517.361 16.0267 517.361 16.4V45.1C517.361 45.5667 517.594 45.8 518.061 45.8H527.231C527.604 45.8 527.931 45.94 528.211 46.22C528.491 46.5 528.631 46.8267 528.631 47.2V48.6C528.631 48.9733 528.491 49.3 528.211 49.58C527.931 49.86 527.604 50 527.231 50H503.011C502.638 50 502.311 49.86 502.031 49.58C501.751 49.3 501.611 48.9733 501.611 48.6V47.2C501.611 46.8267 501.751 46.5 502.031 46.22C502.311 45.94 502.638 45.8 503.011 45.8H512.461C512.928 45.8 513.161 45.5667 513.161 45.1V19.9C513.161 19.4333 512.928 19.2 512.461 19.2H503.711ZM550.597 33.13C548.637 33.13 546.911 33.6667 545.417 34.74C543.924 35.8133 543.177 37.3767 543.177 39.43C543.177 40.69 543.387 41.7867 543.807 42.72C544.274 43.6067 544.881 44.3533 545.627 44.96C546.421 45.5667 547.307 46.0333 548.287 46.36C549.267 46.64 550.317 46.78 551.437 46.78C554.657 46.78 557.131 46.0333 558.857 44.54C560.631 43.0467 561.517 40.8767 561.517 38.03V33.83C561.517 33.3633 561.284 33.13 560.817 33.13H550.597ZM552.837 18.15C551.764 18.15 550.737 18.3133 549.757 18.64C548.777 18.92 547.914 19.34 547.167 19.9C546.421 20.4133 545.814 21.0433 545.347 21.79C544.881 22.5367 544.647 23.3767 544.647 24.31C544.647 24.9167 544.461 25.2667 544.087 25.36C543.714 25.4533 543.364 25.5 543.037 25.5H542.057C541.124 25.5 540.657 25.0333 540.657 24.1C540.657 22.4667 541.007 21.0433 541.707 19.83C542.407 18.6167 543.341 17.6133 544.507 16.82C545.674 15.98 546.981 15.35 548.427 14.93C549.874 14.51 551.344 14.3 552.837 14.3C554.564 14.3 556.174 14.5333 557.667 15C559.207 15.4667 560.537 16.19 561.657 17.17C562.824 18.1033 563.734 19.2933 564.387 20.74C565.087 22.1867 565.437 23.9133 565.437 25.92V48.6C565.437 48.9733 565.297 49.3 565.017 49.58C564.737 49.86 564.411 50 564.037 50H563.407C562.941 50 562.614 49.8367 562.427 49.51C562.241 49.23 562.077 48.9267 561.937 48.6C561.797 48.2267 561.494 48.04 561.027 48.04C560.701 48.04 560.281 48.18 559.767 48.46C559.254 48.74 558.624 49.0433 557.877 49.37C557.131 49.6967 556.244 50 555.217 50.28C554.237 50.56 553.094 50.7 551.787 50.7C549.641 50.7 547.751 50.3967 546.117 49.79C544.531 49.1833 543.201 48.3667 542.127 47.34C541.101 46.3133 540.331 45.1233 539.817 43.77C539.304 42.4167 539.047 40.9933 539.047 39.5C539.047 38.0533 539.304 36.7 539.817 35.44C540.331 34.18 541.077 33.1067 542.057 32.22C543.037 31.2867 544.251 30.5633 545.697 30.05C547.144 29.5367 548.777 29.28 550.597 29.28H560.607C561.074 29.28 561.307 29.0467 561.307 28.58V25.85C561.307 23.5633 560.514 21.72 558.927 20.32C557.341 18.8733 555.311 18.15 552.837 18.15ZM579.564 4.71C579.19 4.71 578.864 4.57 578.584 4.29C578.304 4.01 578.164 3.68333 578.164 3.31V1.91C578.164 1.53666 578.304 1.21 578.584 0.929998C578.864 0.649998 579.19 0.509999 579.564 0.509999H591.534C591.907 0.509999 592.234 0.649998 592.514 0.929998C592.794 1.21 592.934 1.53666 592.934 1.91V45.1C592.934 45.5667 593.167 45.8 593.634 45.8H602.524C602.897 45.8 603.224 45.94 603.504 46.22C603.784 46.5 603.924 46.8267 603.924 47.2V48.6C603.924 48.9733 603.784 49.3 603.504 49.58C603.224 49.86 602.897 50 602.524 50H578.164C577.79 50 577.464 49.86 577.184 49.58C576.904 49.3 576.764 48.9733 576.764 48.6V47.2C576.764 46.8267 576.904 46.5 577.184 46.22C577.464 45.94 577.79 45.8 578.164 45.8H587.894C588.127 45.8 588.314 45.7533 588.454 45.66C588.64 45.52 588.734 45.3333 588.734 45.1V5.41C588.734 4.94333 588.5 4.71 588.034 4.71H579.564Z" fill="black"/>
</svg>
